ISO-10303-21;
HEADER;
FILE_DESCRIPTION (( 'STEP AP214' ),
    '1' );
FILE_NAME ('RC1206FR-070RL.STEP',
    '2025-01-10T10:31:24',
    ( '' ),
    ( '' ),
    'SwSTEP 2.0',
    'SolidWorks 2016',
    '' );
FILE_SCHEMA (( 'AUTOMOTIVE_DESIGN' ));
ENDSEC;

DATA;
#1 = LINE ( 'NONE', #344, #725 ) ;
#2 =( GEOMETRIC_REPRESENTATION_CONTEXT ( 3 ) GLOBAL_UNCERTAINTY_ASSIGNED_CONTEXT ( ( #7 ) ) GLOBAL_UNIT_ASSIGNED_CONTEXT ( ( #698, #697, #695 ) ) REPRESENTATION_CONTEXT ( 'NONE', 'WORKASPACE' ) );
#3 = ADVANCED_FACE ( 'NONE', ( #369 ), #241, .F. ) ;
#4 = VECTOR ( 'NONE', #881, 1000.000000000000000 ) ;
#5 = DIRECTION ( 'NONE',  ( 0.0000000000000000000, -0.0000000000000000000, 1.000000000000000000 ) ) ;
#6 = ORIENTED_EDGE ( 'NONE', *, *, #128, .F. ) ;
#7 = UNCERTAINTY_MEASURE_WITH_UNIT (LENGTH_MEASURE( 1.000000000000000100E-005 ), #698, 'distance_accuracy_value', 'NONE');
#8 = ORIENTED_EDGE ( 'NONE', *, *, #699, .F. ) ;
#9 = LINE ( 'NONE', #683, #467 ) ;
#10 = VECTOR ( 'NONE', #977, 1000.000000000000000 ) ;
#11 = ORIENTED_EDGE ( 'NONE', *, *, #501, .F. ) ;
#12 = VECTOR ( 'NONE', #761, 1000.000000000000000 ) ;
#13 = FACE_OUTER_BOUND ( 'NONE', #861, .T. ) ;
#14 = EDGE_CURVE ( 'NONE', #278, #909, #988, .T. ) ;
#15 = PRODUCT_DEFINITION_CONTEXT ( 'detailed design', #295, 'design' ) ;
#16 = ADVANCED_FACE ( 'NONE', ( #60 ), #322, .F. ) ;
#17 = ORIENTED_EDGE ( 'NONE', *, *, #68, .F. ) ;
#18 = ORIENTED_EDGE ( 'NONE', *, *, #673, .F. ) ;
#19 = VECTOR ( 'NONE', #1119, 1000.000000000000000 ) ;
#20 = VECTOR ( 'NONE', #1036, 1000.000000000000000 ) ;
#21 = FACE_OUTER_BOUND ( 'NONE', #682, .T. ) ;
#22 = FACE_OUTER_BOUND ( 'NONE', #1159, .T. ) ;
#23 =( GEOMETRIC_REPRESENTATION_CONTEXT ( 3 ) GLOBAL_UNCERTAINTY_ASSIGNED_CONTEXT ( ( #133 ) ) GLOBAL_UNIT_ASSIGNED_CONTEXT ( ( #383, #381, #380 ) ) REPRESENTATION_CONTEXT ( 'NONE', 'WORKASPACE' ) );
#24 = VECTOR ( 'NONE', #514, 1000.000000000000000 ) ;
#25 = EDGE_LOOP ( 'NONE', ( #712, #269, #538, #91 ) ) ;
#26 = EDGE_CURVE ( 'NONE', #476, #980, #55, .T. ) ;
#27 = ORIENTED_EDGE ( 'NONE', *, *, #315, .T. ) ;
#28 = VECTOR ( 'NONE', #1052, 1000.000000000000000 ) ;
#29 = VERTEX_POINT ( 'NONE', #342 ) ;
#30 = CLOSED_SHELL ( 'NONE', ( #1139, #835, #831, #3, #324, #847, #1154, #475, #951, #67, #701, #601, #368, #777 ) ) ;
#31 = ORIENTED_EDGE ( 'NONE', *, *, #173, .F. ) ;
#32 = AXIS2_PLACEMENT_3D ( 'NONE', #1163, #456, #89 ) ;
#33 = EDGE_CURVE ( 'NONE', #980, #51, #920, .T. ) ;
#34 = VERTEX_POINT ( 'NONE', #290 ) ;
#35 = VERTEX_POINT ( 'NONE', #347 ) ;
#36 = VERTEX_POINT ( 'NONE', #333 ) ;
#37 = LINE ( 'NONE', #505, #453 ) ;
#38 = EDGE_CURVE ( 'NONE', #964, #905, #1041, .T. ) ;
#39 = MECHANICAL_DESIGN_GEOMETRIC_PRESENTATION_REPRESENTATION (  '', ( #547 ), #2 ) ;
#40 = LINE ( 'NONE', #1030, #822 ) ;
#41 = ORIENTED_EDGE ( 'NONE', *, *, #617, .T. ) ;
#42 = APPLICATION_PROTOCOL_DEFINITION ( 'draft international standard', 'automotive_design', 1998, #295 ) ;
#43 = LINE ( 'NONE', #645, #540 ) ;
#44 = ORIENTED_EDGE ( 'NONE', *, *, #156, .F. ) ;
#45 = FACE_OUTER_BOUND ( 'NONE', #179, .T. ) ;
#46 = LINE ( 'NONE', #707, #929 ) ;
#47 = LINE ( 'NONE', #759, #334 ) ;
#48 = DIRECTION ( 'NONE',  ( 0.0000000000000000000, 0.0000000000000000000, -1.000000000000000000 ) ) ;
#49 = EDGE_CURVE ( 'NONE', #348, #471, #1, .T. ) ;
#50 = PRESENTATION_LAYER_ASSIGNMENT (  '', '', ( #892 ) ) ;
#51 = VERTEX_POINT ( 'NONE', #397 ) ;
#52 = ORIENTED_EDGE ( 'NONE', *, *, #128, .T. ) ;
#53 = VECTOR ( 'NONE', #615, 1000.000000000000000 ) ;
#54 = PRESENTATION_STYLE_ASSIGNMENT (( #1214 ) ) ;
#55 = LINE ( 'NONE', #329, #771 ) ;
#56 = LINE ( 'NONE', #903, #73 ) ;
#57 = LINE ( 'NONE', #983, #896 ) ;
#58 = AXIS2_PLACEMENT_3D ( 'NONE', #422, #411, #409 ) ;
#59 = AXIS2_PLACEMENT_3D ( 'NONE', #1118, #1122, #1123 ) ;
#60 = FACE_OUTER_BOUND ( 'NONE', #662, .T. ) ;
#61 = LINE ( 'NONE', #1143, #508 ) ;
#62 = DIRECTION ( 'NONE',  ( -1.000000000000000000, 0.0000000000000000000, -0.0000000000000000000 ) ) ;
#63 = LINE ( 'NONE', #677, #688 ) ;
#64 = ORIENTED_EDGE ( 'NONE', *, *, #418, .F. ) ;
#65 = VERTEX_POINT ( 'NONE', #366 ) ;
#66 = EDGE_CURVE ( 'NONE', #591, #443, #326, .T. ) ;
#67 = ADVANCED_FACE ( 'NONE', ( #1012 ), #405, .F. ) ;
#68 = EDGE_CURVE ( 'NONE', #1167, #670, #1086, .T. ) ;
#69 = AXIS2_PLACEMENT_3D ( 'NONE', #1076, #1068, #1061 ) ;
#70 = ADVANCED_FACE ( 'NONE', ( #45 ), #522, .F. ) ;
#71 = LINE ( 'NONE', #1000, #1117 ) ;
#72 = VERTEX_POINT ( 'NONE', #488 ) ;
#73 = VECTOR ( 'NONE', #890, 1000.000000000000000 ) ;
#74 = EDGE_CURVE ( 'NONE', #34, #244, #705, .T. ) ;
#75 = VERTEX_POINT ( 'NONE', #586 ) ;
#76 = ORIENTED_EDGE ( 'NONE', *, *, #478, .T. ) ;
#77 = VERTEX_POINT ( 'NONE', #780 ) ;
#78 = EDGE_CURVE ( 'NONE', #82, #940, #304, .T. ) ;
#79 = ORIENTED_EDGE ( 'NONE', *, *, #736, .F. ) ;
#80 = EDGE_CURVE ( 'NONE', #750, #655, #715, .T. ) ;
#81 = ORIENTED_EDGE ( 'NONE', *, *, #479, .T. ) ;
#82 = VERTEX_POINT ( 'NONE', #778 ) ;
#83 = EDGE_CURVE ( 'NONE', #102, #1167, #43, .T. ) ;
#84 = LINE ( 'NONE', #660, #178 ) ;
#85 = VERTEX_POINT ( 'NONE', #841 ) ;
#86 = VERTEX_POINT ( 'NONE', #748 ) ;
#87 = ORIENTED_EDGE ( 'NONE', *, *, #171, .T. ) ;
#88 = DIRECTION ( 'NONE',  ( 0.0000000000000000000, -0.0000000000000000000, 1.000000000000000000 ) ) ;
#89 = DIRECTION ( 'NONE',  ( -1.000000000000000000, 0.0000000000000000000, -0.0000000000000000000 ) ) ;
#90 = VECTOR ( 'NONE', #647, 1000.000000000000000 ) ;
#91 = ORIENTED_EDGE ( 'NONE', *, *, #185, .F. ) ;
#92 = EDGE_CURVE ( 'NONE', #35, #1097, #1213, .T. ) ;
#93 = FACE_OUTER_BOUND ( 'NONE', #355, .T. ) ;
#94 = ORIENTED_EDGE ( 'NONE', *, *, #242, .F. ) ;
#95 = ORIENTED_EDGE ( 'NONE', *, *, #605, .T. ) ;
#96 = VERTEX_POINT ( 'NONE', #875 ) ;
#97 = PRODUCT ( 'RC1206FR-070RL', 'RC1206FR-070RL', '', ( #343 ) ) ;
#98 = ORIENTED_EDGE ( 'NONE', *, *, #1090, .F. ) ;
#99 = DIRECTION ( 'NONE',  ( -0.0000000000000000000, 0.0000000000000000000, -1.000000000000000000 ) ) ;
#100 = ORIENTED_EDGE ( 'NONE', *, *, #541, .T. ) ;
#101 = ORIENTED_EDGE ( 'NONE', *, *, #156, .T. ) ;
#102 = VERTEX_POINT ( 'NONE', #866 ) ;
#103 = VECTOR ( 'NONE', #1111, 1000.000000000000000 ) ;
#104 = VECTOR ( 'NONE', #877, 1000.000000000000000 ) ;
#105 = LINE ( 'NONE', #882, #152 ) ;
#106 = VECTOR ( 'NONE', #1043, 1000.000000000000000 ) ;
#107 = EDGE_CURVE ( 'NONE', #902, #197, #876, .T. ) ;
#108 = ORIENTED_EDGE ( 'NONE', *, *, #214, .F. ) ;
#109 = ORIENTED_EDGE ( 'NONE', *, *, #249, .F. ) ;
#110 = VECTOR ( 'NONE', #626, 1000.000000000000000 ) ;
#111 = ORIENTED_EDGE ( 'NONE', *, *, #66, .F. ) ;
#112 = ORIENTED_EDGE ( 'NONE', *, *, #83, .F. ) ;
#113 = CARTESIAN_POINT ( 'NONE',  ( 1.517499999999999800, 0.6174999999999999400, 0.8000000000000000400 ) ) ;
#114 = VECTOR ( 'NONE', #787, 1000.000000000000000 ) ;
#115 = LINE ( 'NONE', #625, #110 ) ;
#116 = ADVANCED_FACE ( 'NONE', ( #93 ), #878, .T. ) ;
#117 = VECTOR ( 'NONE', #800, 1000.000000000000000 ) ;
#118 = LINE ( 'NONE', #1032, #106 ) ;
#119 = DIRECTION ( 'NONE',  ( 0.0000000000000000000, 1.000000000000000000, 0.0000000000000000000 ) ) ;
#120 = ORIENTED_EDGE ( 'NONE', *, *, #233, .F. ) ;
#121 = ORIENTED_EDGE ( 'NONE', *, *, #49, .F. ) ;
#122 = EDGE_LOOP ( 'NONE', ( #1112, #1074, #868, #764 ) ) ;
#123 = LINE ( 'NONE', #1027, #161 ) ;
#124 = EDGE_CURVE ( 'NONE', #245, #577, #390, .T. ) ;
#125 = LINE ( 'NONE', #641, #90 ) ;
#126 = EDGE_LOOP ( 'NONE', ( #27, #570, #926, #444 ) ) ;
#127 = AXIS2_PLACEMENT_3D ( 'NONE', #1079, #1174, #1173 ) ;
#128 = EDGE_CURVE ( 'NONE', #258, #65, #105, .T. ) ;
#129 = LINE ( 'NONE', #1106, #103 ) ;
#130 = ORIENTED_EDGE ( 'NONE', *, *, #663, .T. ) ;
#131 = VERTEX_POINT ( 'NONE', #906 ) ;
#132 = ADVANCED_FACE ( 'NONE', ( #730 ), #904, .T. ) ;
#133 = UNCERTAINTY_MEASURE_WITH_UNIT (LENGTH_MEASURE( 1.000000000000000100E-005 ), #383, 'distance_accuracy_value', 'NONE');
#134 = ORIENTED_EDGE ( 'NONE', *, *, #160, .F. ) ;
#135 = EDGE_CURVE ( 'NONE', #131, #1084, #416, .T. ) ;
#136 = ORIENTED_EDGE ( 'NONE', *, *, #185, .T. ) ;
#137 = VECTOR ( 'NONE', #854, 1000.000000000000000 ) ;
#138 = EDGE_LOOP ( 'NONE', ( #691, #257, #151, #943, #1189, #294, #557, #630 ) ) ;
#139 = EDGE_LOOP ( 'NONE', ( #293, #395, #535, #1066 ) ) ;
#140 = ORIENTED_EDGE ( 'NONE', *, *, #749, .T. ) ;
#141 = LINE ( 'NONE', #1021, #1002 ) ;
#142 = EDGE_CURVE ( 'NONE', #34, #1195, #56, .T. ) ;
#143 = MECHANICAL_DESIGN_GEOMETRIC_PRESENTATION_REPRESENTATION (  '', ( #892 ), #353 ) ;
#144 = ADVANCED_FACE ( 'NONE', ( #872 ), #925, .T. ) ;
#145 = ORIENTED_EDGE ( 'NONE', *, *, #315, .F. ) ;
#146 = EDGE_CURVE ( 'NONE', #86, #493, #289, .T. ) ;
#147 = LINE ( 'NONE', #785, #458 ) ;
#148 = EDGE_LOOP ( 'NONE', ( #982, #889, #235, #101 ) ) ;
#149 = ORIENTED_EDGE ( 'NONE', *, *, #135, .T. ) ;
#150 = EDGE_CURVE ( 'NONE', #940, #174, #984, .T. ) ;
#151 = ORIENTED_EDGE ( 'NONE', *, *, #382, .T. ) ;
#152 = VECTOR ( 'NONE', #900, 1000.000000000000000 ) ;
#153 =( GEOMETRIC_REPRESENTATION_CONTEXT ( 3 ) GLOBAL_UNCERTAINTY_ASSIGNED_CONTEXT ( ( #756 ) ) GLOBAL_UNIT_ASSIGNED_CONTEXT ( ( #1186, #1191, #1185 ) ) REPRESENTATION_CONTEXT ( 'NONE', 'WORKASPACE' ) );
#154 = VECTOR ( 'NONE', #1059, 1000.000000000000000 ) ;
#155 = VECTOR ( 'NONE', #1160, 1000.000000000000000 ) ;
#156 = EDGE_CURVE ( 'NONE', #1195, #271, #837, .T. ) ;
#157 = ORIENTED_EDGE ( 'NONE', *, *, #605, .F. ) ;
#158 = VECTOR ( 'NONE', #419, 1000.000000000000000 ) ;
#159 = ORIENTED_EDGE ( 'NONE', *, *, #92, .T. ) ;
#160 = EDGE_CURVE ( 'NONE', #471, #964, #263, .T. ) ;
#161 = VECTOR ( 'NONE', #741, 1000.000000000000000 ) ;
#162 = ORIENTED_EDGE ( 'NONE', *, *, #74, .T. ) ;
#163 = VECTOR ( 'NONE', #963, 1000.000000000000000 ) ;
#164 = VERTEX_POINT ( 'NONE', #945 ) ;
#165 = LINE ( 'NONE', #1026, #154 ) ;
#166 = ORIENTED_EDGE ( 'NONE', *, *, #602, .T. ) ;
#167 = VECTOR ( 'NONE', #1211, 1000.000000000000000 ) ;
#168 = ORIENTED_EDGE ( 'NONE', *, *, #124, .F. ) ;
#169 = LINE ( 'NONE', #1100, #1064 ) ;
#170 = VECTOR ( 'NONE', #270, 1000.000000000000000 ) ;
#171 = EDGE_CURVE ( 'NONE', #909, #35, #620, .T. ) ;
#172 = EDGE_CURVE ( 'NONE', #750, #1129, #208, .T. ) ;
#173 = EDGE_CURVE ( 'NONE', #670, #1129, #692, .T. ) ;
#174 = VERTEX_POINT ( 'NONE', #956 ) ;
#175 = VECTOR ( 'NONE', #823, 1000.000000000000000 ) ;
#176 = ORIENTED_EDGE ( 'NONE', *, *, #262, .F. ) ;
#177 = ORIENTED_EDGE ( 'NONE', *, *, #751, .F. ) ;
#178 = VECTOR ( 'NONE', #685, 1000.000000000000000 ) ;
#179 = EDGE_LOOP ( 'NONE', ( #359, #484, #1011, #8 ) ) ;
#180 = ORIENTED_EDGE ( 'NONE', *, *, #617, .F. ) ;
#181 = ORIENTED_EDGE ( 'NONE', *, *, #1090, .T. ) ;
#182 = VECTOR ( 'NONE', #88, 1000.000000000000000 ) ;
#183 = ORIENTED_EDGE ( 'NONE', *, *, #107, .F. ) ;
#184 = MANIFOLD_SOLID_BREP ( 'Cut-Extrude1[2]', #30 ) ;
#185 = EDGE_CURVE ( 'NONE', #561, #77, #287, .T. ) ;
#186 = EDGE_CURVE ( 'NONE', #174, #253, #431, .T. ) ;
#187 = ORIENTED_EDGE ( 'NONE', *, *, #749, .F. ) ;
#188 = ORIENTED_EDGE ( 'NONE', *, *, #675, .T. ) ;
#189 = LINE ( 'NONE', #1120, #19 ) ;
#190 = EDGE_CURVE ( 'NONE', #476, #1222, #676, .T. ) ;
#191 = ORIENTED_EDGE ( 'NONE', *, *, #14, .F. ) ;
#192 = VECTOR ( 'NONE', #575, 1000.000000000000000 ) ;
#193 = SURFACE_STYLE_FILL_AREA ( #370 ) ;
#194 = AXIS2_PLACEMENT_3D ( 'NONE', #1133, #1136, #1135 ) ;
#195 = ORIENTED_EDGE ( 'NONE', *, *, #382, .F. ) ;
#196 = VECTOR ( 'NONE', #997, 1000.000000000000000 ) ;
#197 = VERTEX_POINT ( 'NONE', #989 ) ;
#198 = LINE ( 'NONE', #724, #28 ) ;
#199 = EDGE_CURVE ( 'NONE', #1097, #174, #427, .T. ) ;
#200 = ORIENTED_EDGE ( 'NONE', *, *, #80, .T. ) ;
#201 = ORIENTED_EDGE ( 'NONE', *, *, #142, .F. ) ;
#202 = FACE_OUTER_BOUND ( 'NONE', #858, .T. ) ;
#203 = DIRECTION ( 'NONE',  ( -1.000000000000000000, -0.0000000000000000000, 0.0000000000000000000 ) ) ;
#204 = AXIS2_PLACEMENT_3D ( 'NONE', #494, #434, #430 ) ;
#205 = ADVANCED_FACE ( 'NONE', ( #580 ), #990, .T. ) ;
#206 = VECTOR ( 'NONE', #745, 1000.000000000000000 ) ;
#207 = STYLED_ITEM ( 'NONE', ( #54 ), #812 ) ;
#208 = LINE ( 'NONE', #955, #1080 ) ;
#209 = FACE_OUTER_BOUND ( 'NONE', #885, .T. ) ;
#210 = EDGE_CURVE ( 'NONE', #244, #577, #71, .T. ) ;
#211 = AXIS2_PLACEMENT_3D ( 'NONE', #679, #667, #665 ) ;
#212 = VECTOR ( 'NONE', #747, 1000.000000000000000 ) ;
#213 = LINE ( 'NONE', #648, #407 ) ;
#214 = EDGE_CURVE ( 'NONE', #834, #51, #57, .T. ) ;
#215 = AXIS2_PLACEMENT_3D ( 'NONE', #919, #927, #916 ) ;
#216 = ORIENTED_EDGE ( 'NONE', *, *, #171, .F. ) ;
#217 = LINE ( 'NONE', #844, #433 ) ;
#218 = VERTEX_POINT ( 'NONE', #1004 ) ;
#219 = FACE_OUTER_BOUND ( 'NONE', #726, .T. ) ;
#220 = DIRECTION ( 'NONE',  ( -0.0000000000000000000, -1.000000000000000000, 0.0000000000000000000 ) ) ;
#221 = LINE ( 'NONE', #859, #729 ) ;
#222 = EDGE_CURVE ( 'NONE', #29, #36, #1180, .T. ) ;
#223 = ORIENTED_EDGE ( 'NONE', *, *, #590, .F. ) ;
#224 = ORIENTED_EDGE ( 'NONE', *, *, #328, .F. ) ;
#225 = AXIS2_PLACEMENT_3D ( 'NONE', #851, #1108, #704 ) ;
#226 = EDGE_CURVE ( 'NONE', #1099, #640, #1152, .T. ) ;
#227 = EDGE_LOOP ( 'NONE', ( #201, #356, #1148, #779 ) ) ;
#228 = CARTESIAN_POINT ( 'NONE',  ( 1.549999999999999800, -1.898202538678397000E-016, -0.8000000000000000400 ) ) ;
#229 = LINE ( 'NONE', #515, #24 ) ;
#230 = ORIENTED_EDGE ( 'NONE', *, *, #281, .F. ) ;
#231 = ORIENTED_EDGE ( 'NONE', *, *, #565, .T. ) ;
#232 = EDGE_CURVE ( 'NONE', #708, #245, #879, .T. ) ;
#233 = EDGE_CURVE ( 'NONE', #72, #839, #118, .T. ) ;
#234 = AXIS2_PLACEMENT_3D ( 'NONE', #408, #396, #391 ) ;
#235 = ORIENTED_EDGE ( 'NONE', *, *, #142, .T. ) ;
#236 = VERTEX_POINT ( 'NONE', #1033 ) ;
#237 = VECTOR ( 'NONE', #1201, 1000.000000000000000 ) ;
#238 = ORIENTED_EDGE ( 'NONE', *, *, #961, .T. ) ;
#239 = PRESENTATION_STYLE_ASSIGNMENT (( #364 ) ) ;
#240 = LINE ( 'NONE', #552, #642 ) ;
#241 = PLANE ( 'NONE',  #386 ) ;
#242 = EDGE_CURVE ( 'NONE', #75, #616, #165, .T. ) ;
#243 = EDGE_LOOP ( 'NONE', ( #974, #737, #801, #1202 ) ) ;
#244 = VERTEX_POINT ( 'NONE', #1015 ) ;
#245 = VERTEX_POINT ( 'NONE', #1037 ) ;
#246 = CARTESIAN_POINT ( 'NONE',  ( -1.149999999999999500, 0.6499999999999999100, 0.8000000000000000400 ) ) ;
#247 = ORIENTED_EDGE ( 'NONE', *, *, #624, .F. ) ;
#248 = VECTOR ( 'NONE', #592, 1000.000000000000000 ) ;
#249 = EDGE_CURVE ( 'NONE', #75, #834, #843, .T. ) ;
#250 = VECTOR ( 'NONE', #1014, 1000.000000000000000 ) ;
#251 = LINE ( 'NONE', #1181, #842 ) ;
#252 = DIRECTION ( 'NONE',  ( 0.0000000000000000000, 0.0000000000000000000, -1.000000000000000000 ) ) ;
#253 = VERTEX_POINT ( 'NONE', #1072 ) ;
#254 = ORIENTED_EDGE ( 'NONE', *, *, #1023, .F. ) ;
#255 = ORIENTED_EDGE ( 'NONE', *, *, #479, .F. ) ;
#256 = EDGE_CURVE ( 'NONE', #36, #561, #129, .T. ) ;
#257 = ORIENTED_EDGE ( 'NONE', *, *, #280, .T. ) ;
#258 = VERTEX_POINT ( 'NONE', #1054 ) ;
#259 = FACE_OUTER_BOUND ( 'NONE', #398, .T. ) ;
#260 = EDGE_LOOP ( 'NONE', ( #649, #1051, #962, #216 ) ) ;
#261 = LINE ( 'NONE', #796, #20 ) ;
#262 = EDGE_CURVE ( 'NONE', #1099, #77, #740, .T. ) ;
#263 = LINE ( 'NONE', #936, #921 ) ;
#264 = CARTESIAN_POINT ( 'NONE',  ( 0.0000000000000000000, 0.0000000000000000000, 0.8000000000000000400 ) ) ;
#265 = ADVANCED_FACE ( 'NONE', ( #303 ), #1121, .F. ) ;
#266 = EDGE_CURVE ( 'NONE', #909, #1088, #464, .T. ) ;
#267 = VECTOR ( 'NONE', #551, 1000.000000000000000 ) ;
#268 = CARTESIAN_POINT ( 'NONE',  ( -1.549999999999999800, 0.6499999999999999100, 0.5333333333333333300 ) ) ;
#269 = ORIENTED_EDGE ( 'NONE', *, *, #643, .T. ) ;
#270 = DIRECTION ( 'NONE',  ( -1.000000000000000000, -0.0000000000000000000, -0.0000000000000000000 ) ) ;
#271 = VERTEX_POINT ( 'NONE', #1172 ) ;
#272 = CLOSED_SHELL ( 'NONE', ( #116, #1039, #144, #132, #723, #205 ) ) ;
#273 = ADVANCED_FACE ( 'NONE', ( #259 ), #1102, .T. ) ;
#274 = EDGE_CURVE ( 'NONE', #299, #564, #286, .T. ) ;
#275 = CARTESIAN_POINT ( 'NONE',  ( 0.0000000000000000000, 0.0000000000000000000, 0.8000000000000000400 ) ) ;
#276 = ORIENTED_EDGE ( 'NONE', *, *, #38, .F. ) ;
#277 = ORIENTED_EDGE ( 'NONE', *, *, #501, .T. ) ;
#278 = VERTEX_POINT ( 'NONE', #583 ) ;
#279 = DIRECTION ( 'NONE',  ( -1.000000000000000000, 0.0000000000000000000, -0.0000000000000000000 ) ) ;
#280 = EDGE_CURVE ( 'NONE', #86, #781, #696, .T. ) ;
#281 = EDGE_CURVE ( 'NONE', #258, #348, #292, .T. ) ;
#282 = ORIENTED_EDGE ( 'NONE', *, *, #738, .F. ) ;
#283 = PRESENTATION_LAYER_ASSIGNMENT (  '', '', ( #339 ) ) ;
#284 = ORIENTED_EDGE ( 'NONE', *, *, #274, .F. ) ;
#285 = AXIS2_PLACEMENT_3D ( 'NONE', #1149, #1206, #763 ) ;
#286 = LINE ( 'NONE', #587, #1218 ) ;
#287 = LINE ( 'NONE', #934, #163 ) ;
#288 = ORIENTED_EDGE ( 'NONE', *, *, #33, .T. ) ;
#289 = LINE ( 'NONE', #930, #321 ) ;
#290 = CARTESIAN_POINT ( 'NONE',  ( -1.309999999999999600, 0.6174999999999998300, -0.5333333333333331000 ) ) ;
#291 = EDGE_CURVE ( 'NONE', #197, #856, #553, .T. ) ;
#292 = LINE ( 'NONE', #588, #864 ) ;
#293 = ORIENTED_EDGE ( 'NONE', *, *, #199, .T. ) ;
#294 = ORIENTED_EDGE ( 'NONE', *, *, #1131, .F. ) ;
#295 = APPLICATION_CONTEXT ( 'automotive_design' ) ;
#296 = ORIENTED_EDGE ( 'NONE', *, *, #350, .F. ) ;
#297 = COLOUR_RGB ( '',0.7921568627450980000, 0.8196078431372548800, 0.9333333333333333500 ) ;
#298 = EDGE_CURVE ( 'NONE', #35, #253, #689, .T. ) ;
#299 = VERTEX_POINT ( 'NONE', #560 ) ;
#300 = ORIENTED_EDGE ( 'NONE', *, *, #516, .T. ) ;
#301 = VECTOR ( 'NONE', #534, 1000.000000000000000 ) ;
#302 = ORIENTED_EDGE ( 'NONE', *, *, #172, .F. ) ;
#303 = FACE_OUTER_BOUND ( 'NONE', #148, .T. ) ;
#304 = LINE ( 'NONE', #567, #638 ) ;
#305 = SURFACE_STYLE_FILL_AREA ( #969 ) ;
#306 = EDGE_CURVE ( 'NONE', #197, #476, #240, .T. ) ;
#307 = VERTEX_POINT ( 'NONE', #554 ) ;
#308 = AXIS2_PLACEMENT_3D ( 'NONE', #582, #531, #517 ) ;
#309 = EDGE_CURVE ( 'NONE', #218, #278, #1212, .T. ) ;
#310 = DIRECTION ( 'NONE',  ( -1.000000000000000000, -0.0000000000000000000, -0.0000000000000000000 ) ) ;
#311 = DIRECTION ( 'NONE',  ( 1.000000000000000000, 0.0000000000000000000, -0.0000000000000000000 ) ) ;
#312 = EDGE_LOOP ( 'NONE', ( #121, #653, #572, #134 ) ) ;
#313 = ORIENTED_EDGE ( 'NONE', *, *, #663, .F. ) ;
#314 = VECTOR ( 'NONE', #99, 1000.000000000000000 ) ;
#315 = EDGE_CURVE ( 'NONE', #404, #258, #412, .T. ) ;
#316 = EDGE_LOOP ( 'NONE', ( #702, #426, #276, #296 ) ) ;
#317 = FACE_OUTER_BOUND ( 'NONE', #631, .T. ) ;
#318 = ORIENTED_EDGE ( 'NONE', *, *, #1040, .F. ) ;
#319 = LINE ( 'NONE', #813, #998 ) ;
#320 = VECTOR ( 'NONE', #818, 1000.000000000000000 ) ;
#321 = VECTOR ( 'NONE', #922, 1000.000000000000000 ) ;
#322 = PLANE ( 'NONE',  #1207 ) ;
#323 = DIRECTION ( 'NONE',  ( -1.000000000000000000, 0.0000000000000000000, 0.0000000000000000000 ) ) ;
#324 = ADVANCED_FACE ( 'NONE', ( #489 ), #529, .F. ) ;
#325 = DIRECTION ( 'NONE',  ( 0.0000000000000000000, 0.0000000000000000000, 1.000000000000000000 ) ) ;
#326 = LINE ( 'NONE', #403, #559 ) ;
#327 = DIRECTION ( 'NONE',  ( 1.000000000000000000, 4.745506346695990900E-016, -0.0000000000000000000 ) ) ;
#328 = EDGE_CURVE ( 'NONE', #271, #244, #229, .T. ) ;
#329 = CARTESIAN_POINT ( 'NONE',  ( -1.149999999999999200, 0.0000000000000000000, 0.8000000000000000400 ) ) ;
#330 = ORIENTED_EDGE ( 'NONE', *, *, #883, .F. ) ;
#331 = CARTESIAN_POINT ( 'NONE',  ( -1.149999999999999500, 0.6174999999999996000, 0.8000000000000000400 ) ) ;
#332 = ORIENTED_EDGE ( 'NONE', *, *, #421, .F. ) ;
#333 = CARTESIAN_POINT ( 'NONE',  ( -1.517499999999999800, 0.03249999999999989700, 0.7999999999999999300 ) ) ;
#334 = VECTOR ( 'NONE', #693, 1000.000000000000000 ) ;
#335 = EDGE_CURVE ( 'NONE', #838, #348, #666, .T. ) ;
#336 = DIRECTION ( 'NONE',  ( 1.204606360024539500E-048, 1.277711250893791200E-032, 1.000000000000000000 ) ) ;
#337 = FACE_OUTER_BOUND ( 'NONE', #126, .T. ) ;
#338 = VECTOR ( 'NONE', #470, 1000.000000000000000 ) ;
#339 = STYLED_ITEM ( 'NONE', ( #239 ), #1048 ) ;
#340 = AXIS2_PLACEMENT_3D ( 'NONE', #1098, #690, #1025 ) ;
#341 = CARTESIAN_POINT ( 'NONE',  ( -1.149999999999999200, 0.0000000000000000000, 0.8000000000000000400 ) ) ;
#342 = CARTESIAN_POINT ( 'NONE',  ( 1.517499999999999800, 0.03249999999999989700, 0.7999999999999999300 ) ) ;
#343 = PRODUCT_CONTEXT ( 'NONE', #373, 'mechanical' ) ;
#344 = CARTESIAN_POINT ( 'NONE',  ( -1.149999999999999500, 0.6500000000000000200, -8.305123130809639000E-033 ) ) ;
#345 = VECTOR ( 'NONE', #1060, 1000.000000000000000 ) ;
#346 = DIRECTION ( 'NONE',  ( 1.000000000000000000, 0.0000000000000000000, 0.0000000000000000000 ) ) ;
#347 = CARTESIAN_POINT ( 'NONE',  ( 1.149999999999999200, -4.745506346695992400E-017, -0.8000000000000000400 ) ) ;
#348 = VERTEX_POINT ( 'NONE', #512 ) ;
#349 = ADVANCED_FACE ( 'NONE', ( #337 ), #510, .T. ) ;
#350 = EDGE_CURVE ( 'NONE', #838, #964, #782, .T. ) ;
#351 = DIRECTION ( 'NONE',  ( 0.0000000000000000000, 0.0000000000000000000, 1.000000000000000000 ) ) ;
#352 = VECTOR ( 'NONE', #354, 1000.000000000000000 ) ;
#353 =( GEOMETRIC_REPRESENTATION_CONTEXT ( 3 ) GLOBAL_UNCERTAINTY_ASSIGNED_CONTEXT ( ( #637 ) ) GLOBAL_UNIT_ASSIGNED_CONTEXT ( ( #611, #459, #455 ) ) REPRESENTATION_CONTEXT ( 'NONE', 'WORKASPACE' ) );
#354 = DIRECTION ( 'NONE',  ( 1.000000000000000000, 0.0000000000000000000, -0.0000000000000000000 ) ) ;
#355 = EDGE_LOOP ( 'NONE', ( #358, #967, #1042, #946 ) ) ;
#356 = ORIENTED_EDGE ( 'NONE', *, *, #624, .T. ) ;
#357 =( NAMED_UNIT ( * ) SI_UNIT ( $, .STERADIAN. ) SOLID_ANGLE_UNIT ( ) );
#358 = ORIENTED_EDGE ( 'NONE', *, *, #539, .T. ) ;
#359 = ORIENTED_EDGE ( 'NONE', *, *, #33, .F. ) ;
#360 =( NAMED_UNIT ( * ) PLANE_ANGLE_UNIT ( ) SI_UNIT ( $, .RADIAN. ) );
#361 =( LENGTH_UNIT ( ) NAMED_UNIT ( * ) SI_UNIT ( .MILLI., .METRE. ) );
#362 = ADVANCED_FACE ( 'NONE', ( #374 ), #614, .F. ) ;
#363 = VECTOR ( 'NONE', #932, 1000.000000000000000 ) ;
#364 = SURFACE_STYLE_USAGE ( .BOTH. , #367 ) ;
#365 = DIRECTION ( 'NONE',  ( -0.0000000000000000000, -0.0000000000000000000, -1.000000000000000000 ) ) ;
#366 = CARTESIAN_POINT ( 'NONE',  ( 1.149999999999999500, 0.6174999999999998300, -0.7999999999999999300 ) ) ;
#367 = SURFACE_SIDE_STYLE ('',( #193 ) ) ;
#368 = ADVANCED_FACE ( 'NONE', ( #378 ), #504, .F. ) ;
#369 = FACE_OUTER_BOUND ( 'NONE', #138, .T. ) ;
#370 = FILL_AREA_STYLE ('',( #400 ) ) ;
#371 = EDGE_LOOP ( 'NONE', ( #644, #41, #79, #277 ) ) ;
#372 = ORIENTED_EDGE ( 'NONE', *, *, #38, .T. ) ;
#373 = APPLICATION_CONTEXT ( 'automotive_design' ) ;
#374 = FACE_OUTER_BOUND ( 'NONE', #417, .T. ) ;
#375 = SHAPE_DEFINITION_REPRESENTATION ( #1142, #1048 ) ;
#376 = DIRECTION ( 'NONE',  ( -0.0000000000000000000, -1.000000000000000000, -0.0000000000000000000 ) ) ;
#377 = APPLICATION_PROTOCOL_DEFINITION ( 'draft international standard', 'automotive_design', 1998, #373 ) ;
#378 = FACE_OUTER_BOUND ( 'NONE', #139, .T. ) ;
#379 = FACE_OUTER_BOUND ( 'NONE', #316, .T. ) ;
#380 =( NAMED_UNIT ( * ) SI_UNIT ( $, .STERADIAN. ) SOLID_ANGLE_UNIT ( ) );
#381 =( NAMED_UNIT ( * ) PLANE_ANGLE_UNIT ( ) SI_UNIT ( $, .RADIAN. ) );
#382 = EDGE_CURVE ( 'NONE', #781, #940, #115, .T. ) ;
#383 =( LENGTH_UNIT ( ) NAMED_UNIT ( * ) SI_UNIT ( .MILLI., .METRE. ) );
#384 = PRESENTATION_LAYER_ASSIGNMENT (  '', '', ( #547 ) ) ;
#385 = PRODUCT_RELATED_PRODUCT_CATEGORY ( 'part', '', ( #97 ) ) ;
#386 = AXIS2_PLACEMENT_3D ( 'NONE', #275, #252, #279 ) ;
#387 = ORIENTED_EDGE ( 'NONE', *, *, #935, .T. ) ;
#388 = AXIS2_PLACEMENT_3D ( 'NONE', #1155, #1197, #1104 ) ;
#389 = CARTESIAN_POINT ( 'NONE',  ( 0.0000000000000000000, 0.0000000000000000000, 0.0000000000000000000 ) ) ;
#390 = LINE ( 'NONE', #871, #1208 ) ;
#391 = DIRECTION ( 'NONE',  ( 0.0000000000000000000, 0.0000000000000000000, 1.000000000000000000 ) ) ;
#392 = LINE ( 'NONE', #1109, #447 ) ;
#393 = VECTOR ( 'NONE', #767, 1000.000000000000000 ) ;
#394 = ORIENTED_EDGE ( 'NONE', *, *, #806, .T. ) ;
#395 = ORIENTED_EDGE ( 'NONE', *, *, #150, .F. ) ;
#396 = DIRECTION ( 'NONE',  ( -1.000000000000000000, 0.0000000000000000000, 0.0000000000000000000 ) ) ;
#397 = CARTESIAN_POINT ( 'NONE',  ( -1.149999999999999200, 0.0000000000000000000, -0.8000000000000000400 ) ) ;
#398 = EDGE_LOOP ( 'NONE', ( #807, #1016, #372, #452 ) ) ;
#399 = VECTOR ( 'NONE', #1113, 1000.000000000000000 ) ;
#400 = FILL_AREA_STYLE_COLOUR ( '', #1009 ) ;
#401 = EDGE_CURVE ( 'NONE', #65, #838, #213, .T. ) ;
#402 = PLANE ( 'NONE',  #234 ) ;
#403 = CARTESIAN_POINT ( 'NONE',  ( 1.517499999999999800, 0.03249999999999989700, -0.7999999999999999300 ) ) ;
#404 = VERTEX_POINT ( 'NONE', #646 ) ;
#405 = PLANE ( 'NONE',  #706 ) ;
#406 = CARTESIAN_POINT ( 'NONE',  ( -1.549999999999999800, -1.423651904008798500E-016, -0.8000000000000000400 ) ) ;
#407 = VECTOR ( 'NONE', #623, 1000.000000000000000 ) ;
#408 = CARTESIAN_POINT ( 'NONE',  ( -1.517499999999999800, 0.03249999999999989700, 0.8000000000000000400 ) ) ;
#409 = DIRECTION ( 'NONE',  ( 1.000000000000000000, 1.290716872006552000E-016, 0.0000000000000000000 ) ) ;
#410 = LINE ( 'NONE', #1031, #399 ) ;
#411 = DIRECTION ( 'NONE',  ( 1.290716872006552000E-016, -1.000000000000000000, 0.0000000000000000000 ) ) ;
#412 = LINE ( 'NONE', #536, #267 ) ;
#413 = CARTESIAN_POINT ( 'NONE',  ( -1.149999999999999500, 0.6174999999999997200, -0.5333333333333331000 ) ) ;
#414 = VECTOR ( 'NONE', #365, 1000.000000000000000 ) ;
#415 = EDGE_CURVE ( 'NONE', #102, #493, #497, .T. ) ;
#416 = LINE ( 'NONE', #914, #104 ) ;
#417 = EDGE_LOOP ( 'NONE', ( #318, #254, #18, #44, #524, #98, #1205, #1105 ) ) ;
#418 = EDGE_CURVE ( 'NONE', #1222, #902, #125, .T. ) ;
#419 = DIRECTION ( 'NONE',  ( 1.000000000000000000, 0.0000000000000000000, 0.0000000000000000000 ) ) ;
#420 = CARTESIAN_POINT ( 'NONE',  ( 1.149999999999999500, 0.6499999999999998000, 0.5333333333333329900 ) ) ;
#421 = EDGE_CURVE ( 'NONE', #85, #834, #84, .T. ) ;
#422 = CARTESIAN_POINT ( 'NONE',  ( -1.149999999999999200, 0.03249999999999994600, 0.8000000000000000400 ) ) ;
#423 = DIRECTION ( 'NONE',  ( 1.000000000000000000, 0.0000000000000000000, -0.0000000000000000000 ) ) ;
#424 = PLANE ( 'NONE',  #793 ) ;
#425 = AXIS2_PLACEMENT_3D ( 'NONE', #509, #607, #589 ) ;
#426 = ORIENTED_EDGE ( 'NONE', *, *, #639, .F. ) ;
#427 = LINE ( 'NONE', #987, #766 ) ;
#428 = CARTESIAN_POINT ( 'NONE',  ( 1.149999999999999500, 0.6174999999999993800, -0.5333333333333332100 ) ) ;
#429 = PLANE ( 'NONE',  #58 ) ;
#430 = DIRECTION ( 'NONE',  ( 0.0000000000000000000, 0.0000000000000000000, 1.000000000000000000 ) ) ;
#431 = LINE ( 'NONE', #976, #10 ) ;
#432 = LINE ( 'NONE', #1029, #155 ) ;
#433 = VECTOR ( 'NONE', #1058, 1000.000000000000000 ) ;
#434 = DIRECTION ( 'NONE',  ( -1.000000000000000000, 0.0000000000000000000, 0.0000000000000000000 ) ) ;
#435 = DIRECTION ( 'NONE',  ( 0.0000000000000000000, 0.0000000000000000000, 1.000000000000000000 ) ) ;
#436 = CARTESIAN_POINT ( 'NONE',  ( -1.309999999999999600, 0.6500000000000000200, -0.5333333333333331000 ) ) ;
#437 = DIRECTION ( 'NONE',  ( 0.0000000000000000000, 0.0000000000000000000, 1.000000000000000000 ) ) ;
#438 = CARTESIAN_POINT ( 'NONE',  ( 1.310000000000000100, 0.6174999999999993800, 0.7999999999999997100 ) ) ;
#439 = DIRECTION ( 'NONE',  ( -1.000000000000000000, 0.0000000000000000000, 0.0000000000000000000 ) ) ;
#440 = PLANE ( 'NONE',  #441 ) ;
#441 = AXIS2_PLACEMENT_3D ( 'NONE', #469, #439, #437 ) ;
#442 = ORIENTED_EDGE ( 'NONE', *, *, #222, .F. ) ;
#443 = VERTEX_POINT ( 'NONE', #664 ) ;
#444 = ORIENTED_EDGE ( 'NONE', *, *, #783, .T. ) ;
#445 = PLANE ( 'NONE',  #204 ) ;
#446 = DIRECTION ( 'NONE',  ( 1.000000000000000000, -9.856383386231858800E-017, 0.0000000000000000000 ) ) ;
#447 = VECTOR ( 'NONE', #1110, 1000.000000000000000 ) ;
#448 = DIRECTION ( 'NONE',  ( 0.0000000000000000000, 1.000000000000000000, 0.0000000000000000000 ) ) ;
#449 = FACE_OUTER_BOUND ( 'NONE', #312, .T. ) ;
#450 = LINE ( 'NONE', #1141, #167 ) ;
#451 = AXIS2_PLACEMENT_3D ( 'NONE', #717, #776, #794 ) ;
#452 = ORIENTED_EDGE ( 'NONE', *, *, #602, .F. ) ;
#453 = VECTOR ( 'NONE', #498, 1000.000000000000000 ) ;
#454 = DIRECTION ( 'NONE',  ( 9.856383386231858800E-017, 1.000000000000000000, 0.0000000000000000000 ) ) ;
#455 =( NAMED_UNIT ( * ) SI_UNIT ( $, .STERADIAN. ) SOLID_ANGLE_UNIT ( ) );
#456 = DIRECTION ( 'NONE',  ( 0.0000000000000000000, 0.0000000000000000000, -1.000000000000000000 ) ) ;
#457 = CARTESIAN_POINT ( 'NONE',  ( 1.149999999999999500, 0.6499999999999998000, -0.5333333333333332100 ) ) ;
#458 = VECTOR ( 'NONE', #827, 1000.000000000000000 ) ;
#459 =( NAMED_UNIT ( * ) PLANE_ANGLE_UNIT ( ) SI_UNIT ( $, .RADIAN. ) );
#460 = SURFACE_STYLE_FILL_AREA ( #727 ) ;
#461 = SURFACE_STYLE_USAGE ( .BOTH. , #465 ) ;
#462 = AXIS2_PLACEMENT_3D ( 'NONE', #604, #491, #490 ) ;
#463 = PRODUCT_DEFINITION_FORMATION_WITH_SPECIFIED_SOURCE ( 'ANY', '', #97, .NOT_KNOWN. ) ;
#464 = LINE ( 'NONE', #1198, #237 ) ;
#465 = SURFACE_SIDE_STYLE ('',( #853 ) ) ;
#466 = FILL_AREA_STYLE ('',( #473 ) ) ;
#467 = VECTOR ( 'NONE', #687, 1000.000000000000000 ) ;
#468 = AXIS2_PLACEMENT_3D ( 'NONE', #898, #910, #901 ) ;
#469 = CARTESIAN_POINT ( 'NONE',  ( 1.549999999999999800, -1.898202538678397000E-016, 0.8000000000000000400 ) ) ;
#470 = DIRECTION ( 'NONE',  ( -1.000000000000000000, 0.0000000000000000000, -0.0000000000000000000 ) ) ;
#471 = VERTEX_POINT ( 'NONE', #650 ) ;
#472 = ORIENTED_EDGE ( 'NONE', *, *, #415, .T. ) ;
#473 = FILL_AREA_STYLE_COLOUR ( '', #658 ) ;
#474 = ORIENTED_EDGE ( 'NONE', *, *, #335, .T. ) ;
#475 = ADVANCED_FACE ( 'NONE', ( #809 ), #669, .F. ) ;
#476 = VERTEX_POINT ( 'NONE', #681 ) ;
#477 = CARTESIAN_POINT ( 'NONE',  ( -1.149999999999999200, 0.0000000000000000000, 0.8000000000000000400 ) ) ;
#478 = EDGE_CURVE ( 'NONE', #307, #85, #9, .T. ) ;
#479 = EDGE_CURVE ( 'NONE', #616, #164, #63, .T. ) ;
#480 = ADVANCED_FACE ( 'NONE', ( #21 ), #825, .T. ) ;
#481 = CARTESIAN_POINT ( 'NONE',  ( 1.149999999999999500, 0.6174999999999996000, -0.5333333333333332100 ) ) ;
#482 = CARTESIAN_POINT ( 'NONE',  ( -1.517499999999999800, 0.6174999999999999400, 0.7999999999999999300 ) ) ;
#483 = CARTESIAN_POINT ( 'NONE',  ( 0.0000000000000000000, -1.898202538678397000E-016, 0.8000000000000000400 ) ) ;
#484 = ORIENTED_EDGE ( 'NONE', *, *, #26, .F. ) ;
#485 = EDGE_LOOP ( 'NONE', ( #231, #555, #795, #915, #840, #87, #159, #1204 ) ) ;
#486 = ORIENTED_EDGE ( 'NONE', *, *, #309, .F. ) ;
#487 = AXIS2_PLACEMENT_3D ( 'NONE', #610, #657, #656 ) ;
#488 = CARTESIAN_POINT ( 'NONE',  ( 1.517499999999999800, 0.6174999999999999400, -0.8000000000000000400 ) ) ;
#489 = FACE_OUTER_BOUND ( 'NONE', #260, .T. ) ;
#490 = DIRECTION ( 'NONE',  ( -9.856383386231858800E-017, -1.000000000000000000, 0.0000000000000000000 ) ) ;
#491 = DIRECTION ( 'NONE',  ( -1.000000000000000000, 9.856383386231858800E-017, 0.0000000000000000000 ) ) ;
#492 = ORIENTED_EDGE ( 'NONE', *, *, #511, .F. ) ;
#493 = VERTEX_POINT ( 'NONE', #1045 ) ;
#494 = CARTESIAN_POINT ( 'NONE',  ( -1.149999999999999200, 0.03249999999999994600, 0.8000000000000000400 ) ) ;
#495 = CARTESIAN_POINT ( 'NONE',  ( 1.149999999999999500, 0.6499999999999999100, 0.5333333333333329900 ) ) ;
#496 = CARTESIAN_POINT ( 'NONE',  ( 1.149999999999999200, 0.03249999999999994600, -0.8000000000000000400 ) ) ;
#497 = LINE ( 'NONE', #627, #1134 ) ;
#498 = DIRECTION ( 'NONE',  ( 1.000000000000000000, -0.0000000000000000000, 0.0000000000000000000 ) ) ;
#499 = ORIENTED_EDGE ( 'NONE', *, *, #232, .T. ) ;
#500 = PLANE ( 'NONE',  #462 ) ;
#501 = EDGE_CURVE ( 'NONE', #655, #218, #1038, .T. ) ;
#502 = CARTESIAN_POINT ( 'NONE',  ( 1.549999999999999800, -1.898202538678397700E-016, 0.8000000000000000400 ) ) ;
#503 = CARTESIAN_POINT ( 'NONE',  ( -1.309999999999999600, 0.6174999999999999400, -0.7999999999999999300 ) ) ;
#504 = PLANE ( 'NONE',  #487 ) ;
#505 = CARTESIAN_POINT ( 'NONE',  ( 0.0000000000000000000, 0.6499999999999999100, -0.8000000000000000400 ) ) ;
#506 = VECTOR ( 'NONE', #578, 1000.000000000000000 ) ;
#507 = AXIS2_PLACEMENT_3D ( 'NONE', #981, #991, #993 ) ;
#508 = VECTOR ( 'NONE', #1132, 1000.000000000000000 ) ;
#509 = CARTESIAN_POINT ( 'NONE',  ( 6.128099235787634200E-017, 0.6499999999999999100, -8.305123130809639000E-033 ) ) ;
#510 = PLANE ( 'NONE',  #425 ) ;
#511 = EDGE_CURVE ( 'NONE', #640, #29, #147, .T. ) ;
#512 = CARTESIAN_POINT ( 'NONE',  ( -1.149999999999999500, 0.6500000000000000200, -0.8000000000000000400 ) ) ;
#513 = ORIENTED_EDGE ( 'NONE', *, *, #186, .F. ) ;
#514 = DIRECTION ( 'NONE',  ( -0.0000000000000000000, -1.000000000000000000, 0.0000000000000000000 ) ) ;
#515 = CARTESIAN_POINT ( 'NONE',  ( -1.149999999999999500, 0.6499999999999999100, -0.5333333333333329900 ) ) ;
#516 = EDGE_CURVE ( 'NONE', #86, #564, #198, .T. ) ;
#517 = DIRECTION ( 'NONE',  ( -1.000000000000000000, 0.0000000000000000000, -0.0000000000000000000 ) ) ;
#518 = ORIENTED_EDGE ( 'NONE', *, *, #527, .F. ) ;
#519 = CARTESIAN_POINT ( 'NONE',  ( -1.149999999999999700, -2.184285145224379200, -0.8000000000000000400 ) ) ;
#520 = DIRECTION ( 'NONE',  ( 0.0000000000000000000, 1.000000000000000000, 0.0000000000000000000 ) ) ;
#521 = EDGE_LOOP ( 'NONE', ( #11, #817, #223, #112, #799, #284, #140, #486 ) ) ;
#522 = PLANE ( 'NONE',  #628 ) ;
#523 = DIRECTION ( 'NONE',  ( -1.000000000000000000, 4.745506346695990900E-016, 0.0000000000000000000 ) ) ;
#524 = ORIENTED_EDGE ( 'NONE', *, *, #808, .F. ) ;
#525 = EDGE_LOOP ( 'NONE', ( #472, #754, #300, #100 ) ) ;
#526 = DIRECTION ( 'NONE',  ( 4.745506346695990900E-016, 1.000000000000000000, 0.0000000000000000000 ) ) ;
#527 = EDGE_CURVE ( 'NONE', #1088, #299, #1070, .T. ) ;
#528 = ORIENTED_EDGE ( 'NONE', *, *, #673, .T. ) ;
#529 = PLANE ( 'NONE',  #1003 ) ;
#530 = DIRECTION ( 'NONE',  ( -1.000000000000000000, 0.0000000000000000000, -0.0000000000000000000 ) ) ;
#531 = DIRECTION ( 'NONE',  ( 0.0000000000000000000, 0.0000000000000000000, -1.000000000000000000 ) ) ;
#532 = ORIENTED_EDGE ( 'NONE', *, *, #639, .T. ) ;
#533 = PLANE ( 'NONE',  #308 ) ;
#534 = DIRECTION ( 'NONE',  ( -0.0000000000000000000, 0.0000000000000000000, 1.000000000000000000 ) ) ;
#535 = ORIENTED_EDGE ( 'NONE', *, *, #78, .F. ) ;
#536 = CARTESIAN_POINT ( 'NONE',  ( 1.149999999999999500, 0.6499999999999998000, -8.305123130809639000E-033 ) ) ;
#537 = DIRECTION ( 'NONE',  ( 1.000000000000000000, -0.0000000000000000000, 0.0000000000000000000 ) ) ;
#538 = ORIENTED_EDGE ( 'NONE', *, *, #262, .T. ) ;
#539 = EDGE_CURVE ( 'NONE', #591, #29, #752, .T. ) ;
#540 = VECTOR ( 'NONE', #310, 1000.000000000000000 ) ;
#541 = EDGE_CURVE ( 'NONE', #564, #102, #217, .T. ) ;
#542 = ORIENTED_EDGE ( 'NONE', *, *, #124, .T. ) ;
#543 = CARTESIAN_POINT ( 'NONE',  ( 1.149999999999999200, 0.0000000000000000000, 0.8000000000000000400 ) ) ;
#544 = PRODUCT_DEFINITION ( 'UNKNOWN', '', #463, #15 ) ;
#545 = AXIS2_PLACEMENT_3D ( 'NONE', #863, #886, #887 ) ;
#546 = CARTESIAN_POINT ( 'NONE',  ( -1.309999999999999400, 0.6499999999999999100, 0.8000000000000000400 ) ) ;
#547 = STYLED_ITEM ( 'NONE', ( #874 ), #985 ) ;
#548 = VECTOR ( 'NONE', #931, 1000.000000000000000 ) ;
#549 = CARTESIAN_POINT ( 'NONE',  ( 0.0000000000000000000, 0.6499999999999999100, -0.8000000000000000400 ) ) ;
#550 = DIRECTION ( 'NONE',  ( -0.0000000000000000000, -1.000000000000000000, -0.0000000000000000000 ) ) ;
#551 = DIRECTION ( 'NONE',  ( -1.204606360024539500E-048, -1.277711250893791200E-032, -1.000000000000000000 ) ) ;
#552 = CARTESIAN_POINT ( 'NONE',  ( -1.549999999999999800, -1.898202538678397000E-016, 0.8000000000000000400 ) ) ;
#553 = LINE ( 'NONE', #571, #954 ) ;
#554 = CARTESIAN_POINT ( 'NONE',  ( -1.517499999999999800, 0.6174999999999999400, -0.8000000000000000400 ) ) ;
#555 = ORIENTED_EDGE ( 'NONE', *, *, #233, .T. ) ;
#556 = DIRECTION ( 'NONE',  ( -4.745506346695990900E-016, 1.000000000000000000, 0.0000000000000000000 ) ) ;
#557 = ORIENTED_EDGE ( 'NONE', *, *, #527, .T. ) ;
#558 = DIRECTION ( 'NONE',  ( -1.000000000000000000, -4.745506346695990900E-016, 0.0000000000000000000 ) ) ;
#559 = VECTOR ( 'NONE', #448, 1000.000000000000000 ) ;
#560 = CARTESIAN_POINT ( 'NONE',  ( 1.549999999999999800, 0.6499999999999998000, 0.8000000000000000400 ) ) ;
#561 = VERTEX_POINT ( 'NONE', #1130 ) ;
#562 = AXIS2_PLACEMENT_3D ( 'NONE', #846, #790, #815 ) ;
#563 = ADVANCED_FACE ( 'NONE', ( #912 ), #789, .F. ) ;
#564 = VERTEX_POINT ( 'NONE', #709 ) ;
#565 = EDGE_CURVE ( 'NONE', #82, #72, #46, .T. ) ;
#566 = CARTESIAN_POINT ( 'NONE',  ( 1.149999999999999200, 0.0000000000000000000, 0.8000000000000000400 ) ) ;
#567 = CARTESIAN_POINT ( 'NONE',  ( 1.517499999999999800, 0.03249999999999989700, 0.8000000000000000400 ) ) ;
#568 = DIRECTION ( 'NONE',  ( 0.0000000000000000000, -0.0000000000000000000, 1.000000000000000000 ) ) ;
#569 = DIRECTION ( 'NONE',  ( -1.000000000000000000, 9.427844978134825100E-017, 0.0000000000000000000 ) ) ;
#570 = ORIENTED_EDGE ( 'NONE', *, *, #281, .T. ) ;
#571 = CARTESIAN_POINT ( 'NONE',  ( 0.0000000000000000000, 0.6499999999999999100, 0.8000000000000000400 ) ) ;
#572 = ORIENTED_EDGE ( 'NONE', *, *, #350, .T. ) ;
#573 = EDGE_CURVE ( 'NONE', #561, #591, #319, .T. ) ;
#574 = PRESENTATION_STYLE_ASSIGNMENT (( #461 ) ) ;
#575 = DIRECTION ( 'NONE',  ( 1.000000000000000000, 0.0000000000000000000, -0.0000000000000000000 ) ) ;
#576 = ORIENTED_EDGE ( 'NONE', *, *, #199, .F. ) ;
#577 = VERTEX_POINT ( 'NONE', #710 ) ;
#578 = DIRECTION ( 'NONE',  ( -0.0000000000000000000, -0.0000000000000000000, -1.000000000000000000 ) ) ;
#579 = AXIS2_PLACEMENT_3D ( 'NONE', #1219, #311, #1081 ) ;
#580 = FACE_OUTER_BOUND ( 'NONE', #1225, .T. ) ;
#581 = DIRECTION ( 'NONE',  ( 1.000000000000000000, -0.0000000000000000000, 0.0000000000000000000 ) ) ;
#582 = CARTESIAN_POINT ( 'NONE',  ( 0.0000000000000000000, 0.0000000000000000000, 0.8000000000000000400 ) ) ;
#583 = CARTESIAN_POINT ( 'NONE',  ( 1.549999999999999800, 0.6499999999999999100, -0.8000000000000000400 ) ) ;
#584 = ADVANCED_FACE ( 'NONE', ( #618 ), #773, .T. ) ;
#585 = DIRECTION ( 'NONE',  ( -1.000000000000000000, -0.0000000000000000000, -0.0000000000000000000 ) ) ;
#586 = CARTESIAN_POINT ( 'NONE',  ( -1.149999999999999200, 0.03249999999999993900, 0.8000000000000000400 ) ) ;
#587 = CARTESIAN_POINT ( 'NONE',  ( 1.549999999999999800, 0.6499999999999999100, 0.8000000000000000400 ) ) ;
#588 = CARTESIAN_POINT ( 'NONE',  ( 6.128099235787634200E-017, 0.6499999999999999100, -0.8000000000000000400 ) ) ;
#589 = DIRECTION ( 'NONE',  ( -1.000000000000000000, 9.427844978134825100E-017, 0.0000000000000000000 ) ) ;
#590 = EDGE_CURVE ( 'NONE', #1167, #750, #788, .T. ) ;
#591 = VERTEX_POINT ( 'NONE', #848 ) ;
#592 = DIRECTION ( 'NONE',  ( 1.000000000000000000, 0.0000000000000000000, -0.0000000000000000000 ) ) ;
#593 = ADVANCED_FACE ( 'NONE', ( #379 ), #1223, .F. ) ;
#594 = ORIENTED_EDGE ( 'NONE', *, *, #758, .T. ) ;
#595 = CARTESIAN_POINT ( 'NONE',  ( 1.517499999999999800, 0.6174999999999999400, 0.8000000000000000400 ) ) ;
#596 = FACE_OUTER_BOUND ( 'NONE', #521, .T. ) ;
#597 = LINE ( 'NONE', #719, #117 ) ;
#598 = ORIENTED_EDGE ( 'NONE', *, *, #232, .F. ) ;
#599 = ORIENTED_EDGE ( 'NONE', *, *, #306, .T. ) ;
#600 = DIRECTION ( 'NONE',  ( 0.0000000000000000000, 0.0000000000000000000, -1.000000000000000000 ) ) ;
#601 = ADVANCED_FACE ( 'NONE', ( #22 ), #816, .F. ) ;
#602 = EDGE_CURVE ( 'NONE', #404, #905, #826, .T. ) ;
#603 = DIRECTION ( 'NONE',  ( -0.0000000000000000000, 0.0000000000000000000, 1.000000000000000000 ) ) ;
#604 = CARTESIAN_POINT ( 'NONE',  ( -1.309999999999999600, 0.6174999999999997200, -0.7999999999999998200 ) ) ;
#605 = EDGE_CURVE ( 'NONE', #856, #96, #169, .T. ) ;
#606 = EDGE_LOOP ( 'NONE', ( #1116, #181, #149, #635, #76, #1114, #672, #884 ) ) ;
#607 = DIRECTION ( 'NONE',  ( 9.427844978134825100E-017, 1.000000000000000000, -1.277711250893791200E-032 ) ) ;
#608 = CARTESIAN_POINT ( 'NONE',  ( -1.149999999999999500, 0.6174999999999996000, -0.8000000000000000400 ) ) ;
#609 = PRESENTATION_LAYER_ASSIGNMENT (  '', '', ( #207 ) ) ;
#610 = CARTESIAN_POINT ( 'NONE',  ( 1.149999999999999200, 0.03249999999999994600, 0.8000000000000000400 ) ) ;
#611 =( LENGTH_UNIT ( ) NAMED_UNIT ( * ) SI_UNIT ( .MILLI., .METRE. ) );
#612 = EDGE_LOOP ( 'NONE', ( #684, #733, #183, #64 ) ) ;
#613 = EDGE_LOOP ( 'NONE', ( #111, #1176, #136, #594 ) ) ;
#614 = PLANE ( 'NONE',  #1087 ) ;
#615 = DIRECTION ( 'NONE',  ( 1.355252715606880500E-016, 0.0000000000000000000, 1.000000000000000000 ) ) ;
#616 = VERTEX_POINT ( 'NONE', #802 ) ;
#617 = EDGE_CURVE ( 'NONE', #839, #236, #714, .T. ) ;
#618 = FACE_OUTER_BOUND ( 'NONE', #606, .T. ) ;
#619 = CARTESIAN_POINT ( 'NONE',  ( -1.549999999999999800, 0.6499999999999999100, 0.8000000000000000400 ) ) ;
#620 = LINE ( 'NONE', #948, #829 ) ;
#621 = DIRECTION ( 'NONE',  ( 0.0000000000000000000, -1.000000000000000000, 0.0000000000000000000 ) ) ;
#622 = DIRECTION ( 'NONE',  ( 0.0000000000000000000, -0.0000000000000000000, -1.000000000000000000 ) ) ;
#623 = DIRECTION ( 'NONE',  ( -1.000000000000000000, 0.0000000000000000000, -0.0000000000000000000 ) ) ;
#624 = EDGE_CURVE ( 'NONE', #34, #1084, #1101, .T. ) ;
#625 = CARTESIAN_POINT ( 'NONE',  ( 1.517499999999999800, 0.03249999999999989700, 0.8000000000000000400 ) ) ;
#626 = DIRECTION ( 'NONE',  ( -0.0000000000000000000, -1.000000000000000000, -0.0000000000000000000 ) ) ;
#627 = CARTESIAN_POINT ( 'NONE',  ( 1.310000000000000100, 0.6174999999999993800, 0.5333333333333329900 ) ) ;
#628 = AXIS2_PLACEMENT_3D ( 'NONE', #477, #556, #558 ) ;
#629 = AXIS2_PLACEMENT_3D ( 'NONE', #1203, #1184, #1170 ) ;
#630 = ORIENTED_EDGE ( 'NONE', *, *, #274, .T. ) ;
#631 = EDGE_LOOP ( 'NONE', ( #95, #238, #598, #895 ) ) ;
#632 = ORIENTED_EDGE ( 'NONE', *, *, #675, .F. ) ;
#633 = DIRECTION ( 'NONE',  ( -0.0000000000000000000, -1.000000000000000000, -0.0000000000000000000 ) ) ;
#634 = FACE_OUTER_BOUND ( 'NONE', #651, .T. ) ;
#635 = ORIENTED_EDGE ( 'NONE', *, *, #680, .T. ) ;
#636 = PLANE ( 'NONE',  #340 ) ;
#637 = UNCERTAINTY_MEASURE_WITH_UNIT (LENGTH_MEASURE( 1.000000000000000100E-005 ), #611, 'distance_accuracy_value', 'NONE');
#638 = VECTOR ( 'NONE', #603, 1000.000000000000000 ) ;
#639 = EDGE_CURVE ( 'NONE', #905, #65, #47, .T. ) ;
#640 = VERTEX_POINT ( 'NONE', #1075 ) ;
#641 = CARTESIAN_POINT ( 'NONE',  ( -1.549999999999999800, -1.898202538678397000E-016, -0.8000000000000000400 ) ) ;
#642 = VECTOR ( 'NONE', #550, 1000.000000000000000 ) ;
#643 = EDGE_CURVE ( 'NONE', #36, #1099, #261, .T. ) ;
#644 = ORIENTED_EDGE ( 'NONE', *, *, #979, .F. ) ;
#645 = CARTESIAN_POINT ( 'NONE',  ( 1.549999999999999800, 0.6499999999999999100, 0.5333333333333329900 ) ) ;
#646 = CARTESIAN_POINT ( 'NONE',  ( 1.149999999999999500, 0.6499999999999998000, 0.8000000000000000400 ) ) ;
#647 = DIRECTION ( 'NONE',  ( 0.0000000000000000000, 1.000000000000000000, 0.0000000000000000000 ) ) ;
#648 = CARTESIAN_POINT ( 'NONE',  ( -1.149999999999999700, 0.6174999999999999400, -0.8000000000000000400 ) ) ;
#649 = ORIENTED_EDGE ( 'NONE', *, *, #266, .T. ) ;
#650 = CARTESIAN_POINT ( 'NONE',  ( -1.149999999999999500, 0.6500000000000000200, 0.8000000000000000400 ) ) ;
#651 = EDGE_LOOP ( 'NONE', ( #820, #513, #576, #1017 ) ) ;
#652 = CARTESIAN_POINT ( 'NONE',  ( 1.149999999999999500, 0.6499999999999999100, 0.8000000000000000400 ) ) ;
#653 = ORIENTED_EDGE ( 'NONE', *, *, #335, .F. ) ;
#654 = EDGE_CURVE ( 'NONE', #443, #640, #996, .T. ) ;
#655 = VERTEX_POINT ( 'NONE', #739 ) ;
#656 = DIRECTION ( 'NONE',  ( 1.000000000000000000, -1.290716872006552000E-016, 0.0000000000000000000 ) ) ;
#657 = DIRECTION ( 'NONE',  ( -1.290716872006552000E-016, -1.000000000000000000, 0.0000000000000000000 ) ) ;
#658 = COLOUR_RGB ( '',1.000000000000000000, 1.000000000000000000, 1.000000000000000000 ) ;
#659 = VECTOR ( 'NONE', #960, 1000.000000000000000 ) ;
#660 = CARTESIAN_POINT ( 'NONE',  ( -1.149999999999999200, 0.03249999999999994600, -0.8000000000000000400 ) ) ;
#661 = VECTOR ( 'NONE', #942, 1000.000000000000000 ) ;
#662 = EDGE_LOOP ( 'NONE', ( #130, #792, #224, #528 ) ) ;
#663 = EDGE_CURVE ( 'NONE', #694, #577, #123, .T. ) ;
#664 = CARTESIAN_POINT ( 'NONE',  ( 1.517499999999999800, 0.6174999999999999400, -0.7999999999999999300 ) ) ;
#665 = DIRECTION ( 'NONE',  ( 1.355252715606880500E-016, 0.0000000000000000000, 1.000000000000000000 ) ) ;
#666 = LINE ( 'NONE', #519, #686 ) ;
#667 = DIRECTION ( 'NONE',  ( -1.000000000000000000, 9.856383386231860100E-017, 1.355252715606880500E-016 ) ) ;
#668 = ORIENTED_EDGE ( 'NONE', *, *, #242, .T. ) ;
#669 = PLANE ( 'NONE',  #957 ) ;
#670 = VERTEX_POINT ( 'NONE', #760 ) ;
#671 = DIRECTION ( 'NONE',  ( 1.000000000000000000, 0.0000000000000000000, -0.0000000000000000000 ) ) ;
#672 = ORIENTED_EDGE ( 'NONE', *, *, #214, .T. ) ;
#673 = EDGE_CURVE ( 'NONE', #271, #694, #597, .T. ) ;
#674 = DIRECTION ( 'NONE',  ( -0.0000000000000000000, 0.0000000000000000000, -1.000000000000000000 ) ) ;
#675 = EDGE_CURVE ( 'NONE', #781, #72, #944, .T. ) ;
#676 = LINE ( 'NONE', #968, #661 ) ;
#677 = CARTESIAN_POINT ( 'NONE',  ( -1.517499999999999800, 0.03249999999999989700, 0.8000000000000000400 ) ) ;
#678 = PLANE ( 'NONE',  #211 ) ;
#679 = CARTESIAN_POINT ( 'NONE',  ( -1.149999999999999700, -2.184285145224379200, -0.8000000000000000400 ) ) ;
#680 = EDGE_CURVE ( 'NONE', #1084, #307, #755, .T. ) ;
#681 = CARTESIAN_POINT ( 'NONE',  ( -1.549999999999999800, -9.491012693391988500E-017, 0.8000000000000000400 ) ) ;
#682 = EDGE_LOOP ( 'NONE', ( #145, #166, #532, #6 ) ) ;
#683 = CARTESIAN_POINT ( 'NONE',  ( -1.517499999999999800, 0.03249999999999989700, -0.8000000000000000400 ) ) ;
#684 = ORIENTED_EDGE ( 'NONE', *, *, #190, .F. ) ;
#685 = DIRECTION ( 'NONE',  ( 1.000000000000000000, 1.290716872006552000E-016, 0.0000000000000000000 ) ) ;
#686 = VECTOR ( 'NONE', #520, 1000.000000000000000 ) ;
#687 = DIRECTION ( 'NONE',  ( -0.0000000000000000000, -1.000000000000000000, 0.0000000000000000000 ) ) ;
#688 = VECTOR ( 'NONE', #836, 1000.000000000000000 ) ;
#689 = LINE ( 'NONE', #566, #1124 ) ;
#690 = DIRECTION ( 'NONE',  ( -1.000000000000000000, 0.0000000000000000000, 0.0000000000000000000 ) ) ;
#691 = ORIENTED_EDGE ( 'NONE', *, *, #516, .F. ) ;
#692 = LINE ( 'NONE', #952, #659 ) ;
#693 = DIRECTION ( 'NONE',  ( -1.355252715606880500E-016, 0.0000000000000000000, -1.000000000000000000 ) ) ;
#694 = VERTEX_POINT ( 'NONE', #832 ) ;
#695 =( NAMED_UNIT ( * ) SI_UNIT ( $, .STERADIAN. ) SOLID_ANGLE_UNIT ( ) );
#696 = LINE ( 'NONE', #595, #192 ) ;
#697 =( NAMED_UNIT ( * ) PLANE_ANGLE_UNIT ( ) SI_UNIT ( $, .RADIAN. ) );
#698 =( LENGTH_UNIT ( ) NAMED_UNIT ( * ) SI_UNIT ( .MILLI., .METRE. ) );
#699 = EDGE_CURVE ( 'NONE', #51, #1222, #251, .T. ) ;
#700 = CARTESIAN_POINT ( 'NONE',  ( 1.309999999999999600, 0.6174999999999999400, 0.8000000000000000400 ) ) ;
#701 = ADVANCED_FACE ( 'NONE', ( #634 ), #852, .F. ) ;
#702 = ORIENTED_EDGE ( 'NONE', *, *, #401, .F. ) ;
#703 = SURFACE_STYLE_USAGE ( .BOTH. , #721 ) ;
#704 = DIRECTION ( 'NONE',  ( -1.355252715606880500E-016, 0.0000000000000000000, -1.000000000000000000 ) ) ;
#705 = LINE ( 'NONE', #413, #248 ) ;
#706 = AXIS2_PLACEMENT_3D ( 'NONE', #438, #446, #454 ) ;
#707 = CARTESIAN_POINT ( 'NONE',  ( 1.517499999999999800, 0.03249999999999989700, -0.8000000000000000400 ) ) ;
#708 = VERTEX_POINT ( 'NONE', #830 ) ;
#709 = CARTESIAN_POINT ( 'NONE',  ( 1.310000000000000100, 0.6499999999999998000, 0.7999999999999999300 ) ) ;
#710 = CARTESIAN_POINT ( 'NONE',  ( -1.149999999999999500, 0.6174999999999998300, 0.5333333333333333300 ) ) ;
#711 = VECTOR ( 'NONE', #810, 1000.000000000000000 ) ;
#712 = ORIENTED_EDGE ( 'NONE', *, *, #256, .F. ) ;
#713 = DIRECTION ( 'NONE',  ( 0.0000000000000000000, -0.0000000000000000000, -1.000000000000000000 ) ) ;
#714 = LINE ( 'NONE', #700, #182 ) ;
#715 = LINE ( 'NONE', #1157, #158 ) ;
#716 = ADVANCED_FACE ( 'NONE', ( #317 ), #819, .F. ) ;
#717 = CARTESIAN_POINT ( 'NONE',  ( -1.309999999999999400, 0.6174999999999997200, 0.8000000000000000400 ) ) ;
#718 = DIRECTION ( 'NONE',  ( -0.0000000000000000000, 0.0000000000000000000, -1.000000000000000000 ) ) ;
#719 = CARTESIAN_POINT ( 'NONE',  ( -1.149999999999999500, 0.6499999999999999100, 0.8000000000000000400 ) ) ;
#720 = ORIENTED_EDGE ( 'NONE', *, *, #226, .T. ) ;
#721 = SURFACE_SIDE_STYLE ('',( #460 ) ) ;
#722 = CARTESIAN_POINT ( 'NONE',  ( -1.309999999999999600, 0.6174999999999999400, 0.8000000000000000400 ) ) ;
#723 = ADVANCED_FACE ( 'NONE', ( #1177 ), #636, .T. ) ;
#724 = CARTESIAN_POINT ( 'NONE',  ( 1.310000000000000100, 0.0000000000000000000, 0.8000000000000000400 ) ) ;
#725 = VECTOR ( 'NONE', #336, 1000.000000000000000 ) ;
#726 = EDGE_LOOP ( 'NONE', ( #177, #94, #1103, #332 ) ) ;
#727 = FILL_AREA_STYLE ('',( #814 ) ) ;
#728 = EDGE_CURVE ( 'NONE', #493, #670, #1020, .T. ) ;
#729 = VECTOR ( 'NONE', #1221, 1000.000000000000000 ) ;
#730 = FACE_OUTER_BOUND ( 'NONE', #613, .T. ) ;
#731 = PLANE ( 'NONE',  #1094 ) ;
#732 = EDGE_LOOP ( 'NONE', ( #911, #1008, #302, #200 ) ) ;
#733 = ORIENTED_EDGE ( 'NONE', *, *, #306, .F. ) ;
#734 = FACE_OUTER_BOUND ( 'NONE', #1151, .T. ) ;
#735 = CARTESIAN_POINT ( 'NONE',  ( -1.517499999999999800, 0.6174999999999999400, -3.890865574559980300 ) ) ;
#736 = EDGE_CURVE ( 'NONE', #655, #236, #432, .T. ) ;
#737 = ORIENTED_EDGE ( 'NONE', *, *, #728, .F. ) ;
#738 = EDGE_CURVE ( 'NONE', #236, #1129, #40, .T. ) ;
#739 = CARTESIAN_POINT ( 'NONE',  ( 1.309999999999999600, 0.6499999999999998000, -0.5333333333333332100 ) ) ;
#740 = LINE ( 'NONE', #1089, #506 ) ;
#741 = DIRECTION ( 'NONE',  ( -0.0000000000000000000, -1.000000000000000000, -0.0000000000000000000 ) ) ;
#742 = MECHANICAL_DESIGN_GEOMETRIC_PRESENTATION_REPRESENTATION (  '', ( #339 ), #821 ) ;
#743 = CARTESIAN_POINT ( 'NONE',  ( 1.149999999999999200, -2.184285145224379700, 0.8000000000000000400 ) ) ;
#744 = AXIS2_PLACEMENT_3D ( 'NONE', #828, #757, #5 ) ;
#745 = DIRECTION ( 'NONE',  ( 0.0000000000000000000, 1.000000000000000000, 0.0000000000000000000 ) ) ;
#746 = EDGE_LOOP ( 'NONE', ( #1161, #31, #17, #1188 ) ) ;
#747 = DIRECTION ( 'NONE',  ( 0.0000000000000000000, 1.000000000000000000, -0.0000000000000000000 ) ) ;
#748 = CARTESIAN_POINT ( 'NONE',  ( 1.310000000000000100, 0.6174999999999999400, 0.7999999999999999300 ) ) ;
#749 = EDGE_CURVE ( 'NONE', #299, #278, #221, .T. ) ;
#750 = VERTEX_POINT ( 'NONE', #457 ) ;
#751 = EDGE_CURVE ( 'NONE', #616, #85, #410, .T. ) ;
#752 = LINE ( 'NONE', #811, #393 ) ;
#753 = DIRECTION ( 'NONE',  ( 1.000000000000000000, -0.0000000000000000000, 0.0000000000000000000 ) ) ;
#754 = ORIENTED_EDGE ( 'NONE', *, *, #146, .F. ) ;
#755 = LINE ( 'NONE', #1171, #137 ) ;
#756 = UNCERTAINTY_MEASURE_WITH_UNIT (LENGTH_MEASURE( 1.000000000000000100E-005 ), #1186, 'distance_accuracy_value', 'NONE');
#757 = DIRECTION ( 'NONE',  ( 0.0000000000000000000, 1.000000000000000000, 0.0000000000000000000 ) ) ;
#758 = EDGE_CURVE ( 'NONE', #77, #443, #141, .T. ) ;
#759 = CARTESIAN_POINT ( 'NONE',  ( 1.149999999999999200, 0.6174999999999996000, -0.8000000000000000400 ) ) ;
#760 = CARTESIAN_POINT ( 'NONE',  ( 1.149999999999999500, 0.6174999999999994900, 0.5333333333333329900 ) ) ;
#761 = DIRECTION ( 'NONE',  ( -9.856383386231860100E-017, -1.000000000000000000, 1.335789035025326800E-032 ) ) ;
#762 = ORIENTED_EDGE ( 'NONE', *, *, #961, .F. ) ;
#763 = DIRECTION ( 'NONE',  ( 1.000000000000000000, 0.0000000000000000000, -0.0000000000000000000 ) ) ;
#764 = ORIENTED_EDGE ( 'NONE', *, *, #66, .T. ) ;
#765 = CARTESIAN_POINT ( 'NONE',  ( 1.309999999999999600, 0.6499999999999999100, 0.8000000000000000400 ) ) ;
#766 = VECTOR ( 'NONE', #970, 1000.000000000000000 ) ;
#767 = DIRECTION ( 'NONE',  ( -0.0000000000000000000, 0.0000000000000000000, 1.000000000000000000 ) ) ;
#768 = EDGE_CURVE ( 'NONE', #1097, #82, #189, .T. ) ;
#769 = DIRECTION ( 'NONE',  ( 0.0000000000000000000, 0.0000000000000000000, -1.000000000000000000 ) ) ;
#770 = FACE_OUTER_BOUND ( 'NONE', #891, .T. ) ;
#771 = VECTOR ( 'NONE', #327, 1000.000000000000000 ) ;
#772 = CLOSED_SHELL ( 'NONE', ( #349, #939, #480, #273, #999, #593 ) ) ;
#773 = PLANE ( 'NONE',  #562 ) ;
#774 = CARTESIAN_POINT ( 'NONE',  ( 1.309999999999999600, 0.0000000000000000000, -0.8000000000000000400 ) ) ;
#775 = DIRECTION ( 'NONE',  ( 0.0000000000000000000, 1.000000000000000000, 0.0000000000000000000 ) ) ;
#776 = DIRECTION ( 'NONE',  ( -1.000000000000000000, 9.856383386231858800E-017, 0.0000000000000000000 ) ) ;
#777 = ADVANCED_FACE ( 'NONE', ( #995 ), #1127, .F. ) ;
#778 = CARTESIAN_POINT ( 'NONE',  ( 1.517499999999999800, 0.03249999999999991100, -0.8000000000000000400 ) ) ;
#779 = ORIENTED_EDGE ( 'NONE', *, *, #808, .T. ) ;
#780 = CARTESIAN_POINT ( 'NONE',  ( -1.517499999999999800, 0.6174999999999999400, -0.7999999999999999300 ) ) ;
#781 = VERTEX_POINT ( 'NONE', #1126 ) ;
#782 = LINE ( 'NONE', #608, #53 ) ;
#783 = EDGE_CURVE ( 'NONE', #471, #404, #61, .T. ) ;
#784 = FACE_OUTER_BOUND ( 'NONE', #849, .T. ) ;
#785 = CARTESIAN_POINT ( 'NONE',  ( 1.517499999999999800, 0.0000000000000000000, 0.8000000000000000400 ) ) ;
#786 = VECTOR ( 'NONE', #1096, 1000.000000000000000 ) ;
#787 = DIRECTION ( 'NONE',  ( -0.0000000000000000000, 0.0000000000000000000, -1.000000000000000000 ) ) ;
#788 = LINE ( 'NONE', #1065, #1215 ) ;
#789 = PLANE ( 'NONE',  #1018 ) ;
#790 = DIRECTION ( 'NONE',  ( 0.0000000000000000000, 0.0000000000000000000, -1.000000000000000000 ) ) ;
#791 = DIRECTION ( 'NONE',  ( 0.0000000000000000000, -0.0000000000000000000, 1.000000000000000000 ) ) ;
#792 = ORIENTED_EDGE ( 'NONE', *, *, #210, .F. ) ;
#793 = AXIS2_PLACEMENT_3D ( 'NONE', #428, #435, #423 ) ;
#794 = DIRECTION ( 'NONE',  ( -9.856383386231858800E-017, -1.000000000000000000, 0.0000000000000000000 ) ) ;
#795 = ORIENTED_EDGE ( 'NONE', *, *, #979, .T. ) ;
#796 = CARTESIAN_POINT ( 'NONE',  ( -1.517499999999999800, 0.0000000000000000000, 0.8000000000000000400 ) ) ;
#797 = ORIENTED_EDGE ( 'NONE', *, *, #883, .T. ) ;
#798 = CARTESIAN_POINT ( 'NONE',  ( -1.309999999999999400, 0.6174999999999999400, 0.8000000000000000400 ) ) ;
#799 = ORIENTED_EDGE ( 'NONE', *, *, #541, .F. ) ;
#800 = DIRECTION ( 'NONE',  ( -0.0000000000000000000, 0.0000000000000000000, 1.000000000000000000 ) ) ;
#801 = ORIENTED_EDGE ( 'NONE', *, *, #415, .F. ) ;
#803 = AXIS2_PLACEMENT_3D ( 'NONE', #735, #775, #791 ) ;
#802 = CARTESIAN_POINT ( 'NONE',  ( -1.517499999999999800, 0.03249999999999989700, 0.8000000000000000400 ) ) ;
#804 = CARTESIAN_POINT ( 'NONE',  ( -1.149999999999999500, 0.6174999999999998300, 0.7999999999999999300 ) ) ;
#805 = VECTOR ( 'NONE', #376, 1000.000000000000000 ) ;
#806 = EDGE_CURVE ( 'NONE', #75, #980, #950, .T. ) ;
#807 = ORIENTED_EDGE ( 'NONE', *, *, #783, .F. ) ;
#808 = EDGE_CURVE ( 'NONE', #131, #1195, #450, .T. ) ;
#809 = FACE_OUTER_BOUND ( 'NONE', #746, .T. ) ;
#810 = DIRECTION ( 'NONE',  ( 0.0000000000000000000, -0.0000000000000000000, -1.000000000000000000 ) ) ;
#811 = CARTESIAN_POINT ( 'NONE',  ( 1.517499999999999800, 0.03249999999999989700, -3.890865574559980300 ) ) ;
#812 = MANIFOLD_SOLID_BREP ( 'Cut-Extrude1[1]', #1193 ) ;
#813 = CARTESIAN_POINT ( 'NONE',  ( -1.517499999999999800, 0.03249999999999989700, -0.7999999999999999300 ) ) ;
#814 = FILL_AREA_STYLE_COLOUR ( '', #1150 ) ;
#815 = DIRECTION ( 'NONE',  ( -1.000000000000000000, 0.0000000000000000000, -0.0000000000000000000 ) ) ;
#816 = PLANE ( 'NONE',  #744 ) ;
#817 = ORIENTED_EDGE ( 'NONE', *, *, #80, .F. ) ;
#818 = DIRECTION ( 'NONE',  ( -0.0000000000000000000, -1.000000000000000000, -0.0000000000000000000 ) ) ;
#819 = PLANE ( 'NONE',  #451 ) ;
#820 = ORIENTED_EDGE ( 'NONE', *, *, #298, .T. ) ;
#821 =( GEOMETRIC_REPRESENTATION_CONTEXT ( 3 ) GLOBAL_UNCERTAINTY_ASSIGNED_CONTEXT ( ( #1093 ) ) GLOBAL_UNIT_ASSIGNED_CONTEXT ( ( #361, #360, #357 ) ) REPRESENTATION_CONTEXT ( 'NONE', 'WORKASPACE' ) );
#822 = VECTOR ( 'NONE', #203, 1000.000000000000000 ) ;
#823 = DIRECTION ( 'NONE',  ( -0.0000000000000000000, -0.0000000000000000000, 1.000000000000000000 ) ) ;
#824 = DIRECTION ( 'NONE',  ( -0.0000000000000000000, -1.000000000000000000, -0.0000000000000000000 ) ) ;
#825 = PLANE ( 'NONE',  #225 ) ;
#826 = LINE ( 'NONE', #743, #12 ) ;
#827 = DIRECTION ( 'NONE',  ( -0.0000000000000000000, -1.000000000000000000, -0.0000000000000000000 ) ) ;
#828 = CARTESIAN_POINT ( 'NONE',  ( 1.517499999999999800, 0.6174999999999999400, 0.8000000000000000400 ) ) ;
#829 = VECTOR ( 'NONE', #941, 1000.000000000000000 ) ;
#830 = CARTESIAN_POINT ( 'NONE',  ( -1.309999999999999400, 0.6500000000000000200, 0.5333333333333333300 ) ) ;
#831 = ADVANCED_FACE ( 'NONE', ( #596 ), #1140, .F. ) ;
#832 = CARTESIAN_POINT ( 'NONE',  ( -1.149999999999999500, 0.6500000000000000200, 0.5333333333333333300 ) ) ;
#833 = CARTESIAN_POINT ( 'NONE',  ( 1.517499999999999800, 0.6174999999999999400, -3.890865574559980300 ) ) ;
#834 = VERTEX_POINT ( 'NONE', #1156 ) ;
#835 = ADVANCED_FACE ( 'NONE', ( #1055 ), #1073, .T. ) ;
#836 = DIRECTION ( 'NONE',  ( 0.0000000000000000000, 1.000000000000000000, -0.0000000000000000000 ) ) ;
#837 = LINE ( 'NONE', #928, #363 ) ;
#838 = VERTEX_POINT ( 'NONE', #1169 ) ;
#839 = VERTEX_POINT ( 'NONE', #1078 ) ;
#840 = ORIENTED_EDGE ( 'NONE', *, *, #14, .T. ) ;
#841 = CARTESIAN_POINT ( 'NONE',  ( -1.517499999999999800, 0.03249999999999989700, -0.8000000000000000400 ) ) ;
#842 = VECTOR ( 'NONE', #850, 1000.000000000000000 ) ;
#843 = LINE ( 'NONE', #1047, #786 ) ;
#844 = CARTESIAN_POINT ( 'NONE',  ( 1.310000000000000100, 0.6499999999999999100, 0.8000000000000000400 ) ) ;
#845 = VECTOR ( 'NONE', #718, 1000.000000000000000 ) ;
#846 = CARTESIAN_POINT ( 'NONE',  ( 0.0000000000000000000, 0.0000000000000000000, -0.8000000000000000400 ) ) ;
#847 = ADVANCED_FACE ( 'NONE', ( #1022 ), #1063, .F. ) ;
#848 = CARTESIAN_POINT ( 'NONE',  ( 1.517499999999999800, 0.03249999999999989700, -0.7999999999999999300 ) ) ;
#849 = EDGE_LOOP ( 'NONE', ( #187, #518, #873, #191 ) ) ;
#850 = DIRECTION ( 'NONE',  ( -1.000000000000000000, 0.0000000000000000000, -0.0000000000000000000 ) ) ;
#851 = CARTESIAN_POINT ( 'NONE',  ( 1.149999999999999000, -2.184285145224379700, -0.8000000000000000400 ) ) ;
#852 = PLANE ( 'NONE',  #579 ) ;
#853 = SURFACE_STYLE_FILL_AREA ( #466 ) ;
#854 = DIRECTION ( 'NONE',  ( -1.000000000000000000, -0.0000000000000000000, 0.0000000000000000000 ) ) ;
#855 = CARTESIAN_POINT ( 'NONE',  ( 1.549999999999999800, -1.898202538678397000E-016, 0.8000000000000000400 ) ) ;
#856 = VERTEX_POINT ( 'NONE', #1083 ) ;
#857 = ORIENTED_EDGE ( 'NONE', *, *, #565, .F. ) ;
#858 = EDGE_LOOP ( 'NONE', ( #157, #1210, #599, #949, #1190, #668, #81, #387 ) ) ;
#859 = CARTESIAN_POINT ( 'NONE',  ( 1.549999999999999800, 0.6499999999999999100, 0.8000000000000000400 ) ) ;
#860 = CARTESIAN_POINT ( 'NONE',  ( -1.549999999999999800, -1.898202538678397000E-016, 0.8000000000000000400 ) ) ;
#861 = EDGE_LOOP ( 'NONE', ( #797, #255, #870, #1183 ) ) ;
#862 = CARTESIAN_POINT ( 'NONE',  ( 1.149999999999999200, 0.03249999999999994600, -0.8000000000000000400 ) ) ;
#863 = CARTESIAN_POINT ( 'NONE',  ( -1.517499999999999800, 0.03249999999999989700, -3.890865574559980300 ) ) ;
#864 = VECTOR ( 'NONE', #569, 1000.000000000000000 ) ;
#865 = AXIS2_PLACEMENT_3D ( 'NONE', #1158, #1056, #1050 ) ;
#866 = CARTESIAN_POINT ( 'NONE',  ( 1.310000000000000100, 0.6499999999999998000, 0.5333333333333329900 ) ) ;
#867 = DIRECTION ( 'NONE',  ( 0.0000000000000000000, 1.000000000000000000, 0.0000000000000000000 ) ) ;
#868 = ORIENTED_EDGE ( 'NONE', *, *, #539, .F. ) ;
#869 = CARTESIAN_POINT ( 'NONE',  ( -1.549999999999999800, 0.6499999999999999100, 0.8000000000000000400 ) ) ;
#870 = ORIENTED_EDGE ( 'NONE', *, *, #751, .T. ) ;
#871 = CARTESIAN_POINT ( 'NONE',  ( -1.517499999999999800, 0.6174999999999999400, 0.5333333333333333300 ) ) ;
#872 = FACE_OUTER_BOUND ( 'NONE', #122, .T. ) ;
#873 = ORIENTED_EDGE ( 'NONE', *, *, #266, .F. ) ;
#874 = PRESENTATION_STYLE_ASSIGNMENT (( #703 ) ) ;
#875 = CARTESIAN_POINT ( 'NONE',  ( -1.309999999999999400, 0.6174999999999998300, 0.8000000000000000400 ) ) ;
#876 = LINE ( 'NONE', #869, #4 ) ;
#877 = DIRECTION ( 'NONE',  ( -0.0000000000000000000, -1.000000000000000000, -0.0000000000000000000 ) ) ;
#878 = PLANE ( 'NONE',  #545 ) ;
#879 = LINE ( 'NONE', #1019, #196 ) ;
#880 = VECTOR ( 'NONE', #1006, 1000.000000000000000 ) ;
#881 = DIRECTION ( 'NONE',  ( -0.0000000000000000000, -0.0000000000000000000, 1.000000000000000000 ) ) ;
#882 = CARTESIAN_POINT ( 'NONE',  ( 1.149999999999999200, -2.184285145224379200, -0.8000000000000000400 ) ) ;
#883 = EDGE_CURVE ( 'NONE', #307, #164, #965, .T. ) ;
#884 = ORIENTED_EDGE ( 'NONE', *, *, #699, .T. ) ;
#885 = EDGE_LOOP ( 'NONE', ( #109, #394, #288, #108 ) ) ;
#886 = DIRECTION ( 'NONE',  ( 0.0000000000000000000, -1.000000000000000000, 0.0000000000000000000 ) ) ;
#887 = DIRECTION ( 'NONE',  ( 0.0000000000000000000, -0.0000000000000000000, -1.000000000000000000 ) ) ;
#888 = DIRECTION ( 'NONE',  ( 1.000000000000000000, 0.0000000000000000000, -0.0000000000000000000 ) ) ;
#889 = ORIENTED_EDGE ( 'NONE', *, *, #74, .F. ) ;
#890 = DIRECTION ( 'NONE',  ( 9.856383386231858800E-017, 1.000000000000000000, -0.0000000000000000000 ) ) ;
#891 = EDGE_LOOP ( 'NONE', ( #230, #52, #1085, #474 ) ) ;
#892 = STYLED_ITEM ( 'NONE', ( #574 ), #1137 ) ;
#893 = LINE ( 'NONE', #483, #338 ) ;
#894 = ORIENTED_EDGE ( 'NONE', *, *, #728, .T. ) ;
#895 = ORIENTED_EDGE ( 'NONE', *, *, #1040, .T. ) ;
#896 = VECTOR ( 'NONE', #1005, 1000.000000000000000 ) ;
#897 = LINE ( 'NONE', #798, #114 ) ;
#898 = CARTESIAN_POINT ( 'NONE',  ( 0.0000000000000000000, 0.0000000000000000000, -0.8000000000000000400 ) ) ;
#899 = ORIENTED_EDGE ( 'NONE', *, *, #78, .T. ) ;
#900 = DIRECTION ( 'NONE',  ( -0.0000000000000000000, -1.000000000000000000, -0.0000000000000000000 ) ) ;
#901 = DIRECTION ( 'NONE',  ( -1.000000000000000000, 0.0000000000000000000, -0.0000000000000000000 ) ) ;
#902 = VERTEX_POINT ( 'NONE', #1062 ) ;
#903 = CARTESIAN_POINT ( 'NONE',  ( -1.309999999999999600, 0.6174999999999997200, -0.5333333333333331000 ) ) ;
#904 = PLANE ( 'NONE',  #468 ) ;
#905 = VERTEX_POINT ( 'NONE', #1092 ) ;
#906 = CARTESIAN_POINT ( 'NONE',  ( -1.309999999999999600, 0.6500000000000000200, -0.7999999999999999300 ) ) ;
#907 = UNCERTAINTY_MEASURE_WITH_UNIT (LENGTH_MEASURE( 1.000000000000000100E-005 ), #972, 'distance_accuracy_value', 'NONE');
#908 = EDGE_LOOP ( 'NONE', ( #762, #923, #330, #1220, #247, #162, #1082, #168 ) ) ;
#909 = VERTEX_POINT ( 'NONE', #1166 ) ;
#910 = DIRECTION ( 'NONE',  ( 0.0000000000000000000, 0.0000000000000000000, -1.000000000000000000 ) ) ;
#911 = ORIENTED_EDGE ( 'NONE', *, *, #736, .T. ) ;
#912 = FACE_OUTER_BOUND ( 'NONE', #612, .T. ) ;
#913 = LINE ( 'NONE', #546, #301 ) ;
#914 = CARTESIAN_POINT ( 'NONE',  ( -1.309999999999999600, 0.0000000000000000000, -0.8000000000000000400 ) ) ;
#915 = ORIENTED_EDGE ( 'NONE', *, *, #309, .T. ) ;
#916 = DIRECTION ( 'NONE',  ( 0.0000000000000000000, 0.0000000000000000000, -1.000000000000000000 ) ) ;
#917 = ADVANCED_FACE ( 'NONE', ( #1069 ), #1046, .F. ) ;
#918 = CARTESIAN_POINT ( 'NONE',  ( 1.149999999999999200, 0.03249999999999994600, 0.8000000000000000400 ) ) ;
#919 = CARTESIAN_POINT ( 'NONE',  ( 1.517499999999999800, 0.03249999999999989700, -3.890865574559980300 ) ) ;
#920 = LINE ( 'NONE', #341, #414 ) ;
#921 = VECTOR ( 'NONE', #933, 1000.000000000000000 ) ;
#922 = DIRECTION ( 'NONE',  ( 0.0000000000000000000, -0.0000000000000000000, -1.000000000000000000 ) ) ;
#923 = ORIENTED_EDGE ( 'NONE', *, *, #935, .F. ) ;
#924 = PRESENTATION_LAYER_ASSIGNMENT (  '', '', ( #938 ) ) ;
#925 = PLANE ( 'NONE',  #215 ) ;
#926 = ORIENTED_EDGE ( 'NONE', *, *, #49, .T. ) ;
#927 = DIRECTION ( 'NONE',  ( 1.000000000000000000, -0.0000000000000000000, 0.0000000000000000000 ) ) ;
#928 = CARTESIAN_POINT ( 'NONE',  ( -1.549999999999999800, 0.6499999999999999100, -0.5333333333333329900 ) ) ;
#929 = VECTOR ( 'NONE', #119, 1000.000000000000000 ) ;
#930 = CARTESIAN_POINT ( 'NONE',  ( 1.310000000000000100, 0.6174999999999999400, 0.7999999999999997100 ) ) ;
#931 = DIRECTION ( 'NONE',  ( -1.000000000000000000, 1.290716872006552000E-016, -0.0000000000000000000 ) ) ;
#932 = DIRECTION ( 'NONE',  ( 1.000000000000000000, 0.0000000000000000000, 0.0000000000000000000 ) ) ;
#933 = DIRECTION ( 'NONE',  ( 0.0000000000000000000, -1.000000000000000000, -0.0000000000000000000 ) ) ;
#934 = CARTESIAN_POINT ( 'NONE',  ( -1.517499999999999800, 0.0000000000000000000, -0.8000000000000000400 ) ) ;
#935 = EDGE_CURVE ( 'NONE', #164, #96, #392, .T. ) ;
#936 = CARTESIAN_POINT ( 'NONE',  ( -1.149999999999999200, -2.184285145224379200, 0.8000000000000000400 ) ) ;
#937 = AXIS2_PLACEMENT_3D ( 'NONE', #389, #351, #346 ) ;
#938 = STYLED_ITEM ( 'NONE', ( #1153 ), #184 ) ;
#939 = ADVANCED_FACE ( 'NONE', ( #770 ), #1107, .T. ) ;
#940 = VERTEX_POINT ( 'NONE', #1077 ) ;
#941 = DIRECTION ( 'NONE',  ( -1.000000000000000000, 0.0000000000000000000, -0.0000000000000000000 ) ) ;
#942 = DIRECTION ( 'NONE',  ( 0.0000000000000000000, 0.0000000000000000000, -1.000000000000000000 ) ) ;
#943 = ORIENTED_EDGE ( 'NONE', *, *, #150, .T. ) ;
#944 = LINE ( 'NONE', #113, #314 ) ;
#945 = CARTESIAN_POINT ( 'NONE',  ( -1.517499999999999800, 0.6174999999999998300, 0.8000000000000000400 ) ) ;
#946 = ORIENTED_EDGE ( 'NONE', *, *, #573, .T. ) ;
#947 = ORIENTED_EDGE ( 'NONE', *, *, #146, .T. ) ;
#948 = CARTESIAN_POINT ( 'NONE',  ( 0.0000000000000000000, -1.898202538678397000E-016, -0.8000000000000000400 ) ) ;
#949 = ORIENTED_EDGE ( 'NONE', *, *, #26, .T. ) ;
#950 = LINE ( 'NONE', #1138, #320 ) ;
#951 = ADVANCED_FACE ( 'NONE', ( #1175 ), #1091, .F. ) ;
#952 = CARTESIAN_POINT ( 'NONE',  ( 1.149999999999999500, 0.6174999999999993800, 0.8000000000000000400 ) ) ;
#953 = SURFACE_SIDE_STYLE ('',( #305 ) ) ;
#954 = VECTOR ( 'NONE', #581, 1000.000000000000000 ) ;
#955 = CARTESIAN_POINT ( 'NONE',  ( 1.149999999999999500, 0.6174999999999993800, -0.5333333333333332100 ) ) ;
#956 = CARTESIAN_POINT ( 'NONE',  ( 1.149999999999999200, 0.03249999999999994600, 0.8000000000000000400 ) ) ;
#957 = AXIS2_PLACEMENT_3D ( 'NONE', #652, #671, #674 ) ;
#958 = ADVANCED_FACE ( 'NONE', ( #978 ), #1057, .F. ) ;
#959 = DIRECTION ( 'NONE',  ( 0.0000000000000000000, -1.000000000000000000, -0.0000000000000000000 ) ) ;
#960 = DIRECTION ( 'NONE',  ( -0.0000000000000000000, 0.0000000000000000000, -1.000000000000000000 ) ) ;
#961 = EDGE_CURVE ( 'NONE', #96, #245, #897, .T. ) ;
#962 = ORIENTED_EDGE ( 'NONE', *, *, #298, .F. ) ;
#963 = DIRECTION ( 'NONE',  ( 0.0000000000000000000, 1.000000000000000000, 0.0000000000000000000 ) ) ;
#964 = VERTEX_POINT ( 'NONE', #804 ) ;
#965 = LINE ( 'NONE', #1146, #345 ) ;
#966 = FILL_AREA_STYLE_COLOUR ( '', #297 ) ;
#967 = ORIENTED_EDGE ( 'NONE', *, *, #222, .T. ) ;
#968 = CARTESIAN_POINT ( 'NONE',  ( -1.549999999999999800, -1.898202538678397000E-016, 0.8000000000000000400 ) ) ;
#969 = FILL_AREA_STYLE ('',( #966 ) ) ;
#970 = DIRECTION ( 'NONE',  ( 0.0000000000000000000, -0.0000000000000000000, 1.000000000000000000 ) ) ;
#971 = SURFACE_STYLE_USAGE ( .BOTH. , #953 ) ;
#972 =( LENGTH_UNIT ( ) NAMED_UNIT ( * ) SI_UNIT ( .MILLI., .METRE. ) );
#973 =( NAMED_UNIT ( * ) PLANE_ANGLE_UNIT ( ) SI_UNIT ( $, .RADIAN. ) );
#974 = ORIENTED_EDGE ( 'NONE', *, *, #68, .T. ) ;
#975 =( NAMED_UNIT ( * ) SI_UNIT ( $, .STERADIAN. ) SOLID_ANGLE_UNIT ( ) );
#976 = CARTESIAN_POINT ( 'NONE',  ( 1.149999999999999200, 0.03249999999999994600, 0.8000000000000000400 ) ) ;
#977 = DIRECTION ( 'NONE',  ( -0.0000000000000000000, -1.000000000000000000, -0.0000000000000000000 ) ) ;
#978 = FACE_OUTER_BOUND ( 'NONE', #1024, .T. ) ;
#979 = EDGE_CURVE ( 'NONE', #839, #218, #1192, .T. ) ;
#980 = VERTEX_POINT ( 'NONE', #1179 ) ;
#981 = CARTESIAN_POINT ( 'NONE',  ( -1.517499999999999800, 0.6174999999999999400, -3.890865574559980300 ) ) ;
#982 = ORIENTED_EDGE ( 'NONE', *, *, #328, .T. ) ;
#983 = CARTESIAN_POINT ( 'NONE',  ( -1.149999999999999200, 0.03249999999999994600, -0.8000000000000000400 ) ) ;
#984 = LINE ( 'NONE', #918, #548 ) ;
#985 = MANIFOLD_SOLID_BREP ( 'Boss-Extrude3', #772 ) ;
#986 = VECTOR ( 'NONE', #1035, 1000.000000000000000 ) ;
#987 = CARTESIAN_POINT ( 'NONE',  ( 1.149999999999999200, 0.03249999999999994600, 0.8000000000000000400 ) ) ;
#988 = LINE ( 'NONE', #228, #1187 ) ;
#989 = CARTESIAN_POINT ( 'NONE',  ( -1.549999999999999800, 0.6499999999999999100, 0.8000000000000000400 ) ) ;
#990 = PLANE ( 'NONE',  #507 ) ;
#991 = DIRECTION ( 'NONE',  ( 0.0000000000000000000, 1.000000000000000000, 0.0000000000000000000 ) ) ;
#992 = ORIENTED_EDGE ( 'NONE', *, *, #643, .F. ) ;
#993 = DIRECTION ( 'NONE',  ( 0.0000000000000000000, -0.0000000000000000000, 1.000000000000000000 ) ) ;
#994 = CARTESIAN_POINT ( 'NONE',  ( -1.517499999999999800, 0.03249999999999989700, 0.7999999999999999300 ) ) ;
#995 = FACE_OUTER_BOUND ( 'NONE', #1071, .T. ) ;
#996 = LINE ( 'NONE', #833, #175 ) ;
#997 = DIRECTION ( 'NONE',  ( -9.856383386231858800E-017, -1.000000000000000000, 0.0000000000000000000 ) ) ;
#998 = VECTOR ( 'NONE', #1067, 1000.000000000000000 ) ;
#999 = ADVANCED_FACE ( 'NONE', ( #449 ), #678, .T. ) ;
#1000 = CARTESIAN_POINT ( 'NONE',  ( -1.149999999999999500, 0.6174999999999997200, 0.8000000000000000400 ) ) ;
#1001 = DIRECTION ( 'NONE',  ( 0.0000000000000000000, 0.0000000000000000000, 1.000000000000000000 ) ) ;
#1002 = VECTOR ( 'NONE', #1125, 1000.000000000000000 ) ;
#1003 = AXIS2_PLACEMENT_3D ( 'NONE', #543, #526, #523 ) ;
#1004 = CARTESIAN_POINT ( 'NONE',  ( 1.309999999999999600, 0.6499999999999999100, -0.7999999999999999300 ) ) ;
#1005 = DIRECTION ( 'NONE',  ( -0.0000000000000000000, -1.000000000000000000, 0.0000000000000000000 ) ) ;
#1006 = DIRECTION ( 'NONE',  ( 1.000000000000000000, -0.0000000000000000000, 0.0000000000000000000 ) ) ;
#1007 = VECTOR ( 'NONE', #537, 1000.000000000000000 ) ;
#1008 = ORIENTED_EDGE ( 'NONE', *, *, #738, .T. ) ;
#1009 = COLOUR_RGB ( '',0.7921568627450980000, 0.8196078431372548800, 0.9333333333333333500 ) ;
#1010 = ORIENTED_EDGE ( 'NONE', *, *, #758, .F. ) ;
#1011 = ORIENTED_EDGE ( 'NONE', *, *, #190, .T. ) ;
#1012 = FACE_OUTER_BOUND ( 'NONE', #525, .T. ) ;
#1013 = CARTESIAN_POINT ( 'NONE',  ( 0.0000000000000000000, 0.6174999999999999400, 0.8000000000000000400 ) ) ;
#1014 = DIRECTION ( 'NONE',  ( -1.000000000000000000, -0.0000000000000000000, -0.0000000000000000000 ) ) ;
#1015 = CARTESIAN_POINT ( 'NONE',  ( -1.149999999999999500, 0.6174999999999998300, -0.5333333333333331000 ) ) ;
#1016 = ORIENTED_EDGE ( 'NONE', *, *, #160, .T. ) ;
#1017 = ORIENTED_EDGE ( 'NONE', *, *, #92, .F. ) ;
#1019 = CARTESIAN_POINT ( 'NONE',  ( -1.309999999999999400, 0.6174999999999997200, 0.5333333333333333300 ) ) ;
#1018 = AXIS2_PLACEMENT_3D ( 'NONE', #860, #753, #769 ) ;
#1020 = LINE ( 'NONE', #1034, #986 ) ;
#1021 = CARTESIAN_POINT ( 'NONE',  ( 0.0000000000000000000, 0.6174999999999999400, -0.8000000000000000400 ) ) ;
#1022 = FACE_OUTER_BOUND ( 'NONE', #371, .T. ) ;
#1023 = EDGE_CURVE ( 'NONE', #694, #708, #1162, .T. ) ;
#1024 = EDGE_LOOP ( 'NONE', ( #499, #542, #313, #1164 ) ) ;
#1025 = DIRECTION ( 'NONE',  ( 0.0000000000000000000, 0.0000000000000000000, 1.000000000000000000 ) ) ;
#1026 = CARTESIAN_POINT ( 'NONE',  ( -1.149999999999999200, 0.03249999999999994600, 0.8000000000000000400 ) ) ;
#1027 = CARTESIAN_POINT ( 'NONE',  ( -1.149999999999999200, 0.6174999999999997200, 0.5333333333333333300 ) ) ;
#1028 = FACE_OUTER_BOUND ( 'NONE', #227, .T. ) ;
#1029 = CARTESIAN_POINT ( 'NONE',  ( 1.309999999999999600, 0.6174999999999993800, -0.5333333333333332100 ) ) ;
#1030 = CARTESIAN_POINT ( 'NONE',  ( 1.517499999999999800, 0.6174999999999999400, -0.5333333333333332100 ) ) ;
#1031 = CARTESIAN_POINT ( 'NONE',  ( -1.517499999999999800, 0.03249999999999989700, 0.8000000000000000400 ) ) ;
#1032 = CARTESIAN_POINT ( 'NONE',  ( 1.517499999999999800, 0.6174999999999999400, -0.8000000000000000400 ) ) ;
#1033 = CARTESIAN_POINT ( 'NONE',  ( 1.309999999999999600, 0.6174999999999996000, -0.5333333333333332100 ) ) ;
#1034 = CARTESIAN_POINT ( 'NONE',  ( 1.149999999999999700, 0.6174999999999993800, 0.5333333333333329900 ) ) ;
#1035 = DIRECTION ( 'NONE',  ( -1.000000000000000000, 0.0000000000000000000, -0.0000000000000000000 ) ) ;
#1036 = DIRECTION ( 'NONE',  ( 0.0000000000000000000, 1.000000000000000000, 0.0000000000000000000 ) ) ;
#1037 = CARTESIAN_POINT ( 'NONE',  ( -1.309999999999999400, 0.6174999999999998300, 0.5333333333333333300 ) ) ;
#1038 = LINE ( 'NONE', #765, #711 ) ;
#1039 = ADVANCED_FACE ( 'NONE', ( #734 ), #731, .F. ) ;
#1040 = EDGE_CURVE ( 'NONE', #708, #856, #913, .T. ) ;
#1041 = LINE ( 'NONE', #331, #352 ) ;
#1042 = ORIENTED_EDGE ( 'NONE', *, *, #256, .T. ) ;
#1043 = DIRECTION ( 'NONE',  ( -1.000000000000000000, -0.0000000000000000000, 0.0000000000000000000 ) ) ;
#1044 = ADVANCED_FACE ( 'NONE', ( #202 ), #533, .F. ) ;
#1045 = CARTESIAN_POINT ( 'NONE',  ( 1.310000000000000100, 0.6174999999999998300, 0.5333333333333329900 ) ) ;
#1046 = PLANE ( 'NONE',  #388 ) ;
#1047 = CARTESIAN_POINT ( 'NONE',  ( -1.149999999999999200, 0.03249999999999994600, 0.8000000000000000400 ) ) ;
#1048 = ADVANCED_BREP_SHAPE_REPRESENTATION ( 'RC1206FR-070RL', ( #1137, #985, #184, #812, #937 ), #23 ) ;
#1049 = ORIENTED_EDGE ( 'NONE', *, *, #173, .T. ) ;
#1050 = DIRECTION ( 'NONE',  ( -1.000000000000000000, 0.0000000000000000000, -0.0000000000000000000 ) ) ;
#1051 = ORIENTED_EDGE ( 'NONE', *, *, #1131, .T. ) ;
#1052 = DIRECTION ( 'NONE',  ( 0.0000000000000000000, 1.000000000000000000, 0.0000000000000000000 ) ) ;
#1053 = COLOUR_RGB ( '',0.7921568627450980000, 0.8196078431372548800, 0.9333333333333333500 ) ;
#1054 = CARTESIAN_POINT ( 'NONE',  ( 1.149999999999999500, 0.6499999999999998000, -0.8000000000000000400 ) ) ;
#1055 = FACE_OUTER_BOUND ( 'NONE', #485, .T. ) ;
#1056 = DIRECTION ( 'NONE',  ( 0.0000000000000000000, 0.0000000000000000000, -1.000000000000000000 ) ) ;
#1057 = PLANE ( 'NONE',  #127 ) ;
#1058 = DIRECTION ( 'NONE',  ( 0.0000000000000000000, -0.0000000000000000000, -1.000000000000000000 ) ) ;
#1059 = DIRECTION ( 'NONE',  ( -1.000000000000000000, -1.290716872006552000E-016, -0.0000000000000000000 ) ) ;
#1060 = DIRECTION ( 'NONE',  ( 0.0000000000000000000, -0.0000000000000000000, 1.000000000000000000 ) ) ;
#1061 = DIRECTION ( 'NONE',  ( 9.856383386231858800E-017, 1.000000000000000000, 0.0000000000000000000 ) ) ;
#1062 = CARTESIAN_POINT ( 'NONE',  ( -1.549999999999999800, 0.6499999999999999100, -0.8000000000000000400 ) ) ;
#1063 = PLANE ( 'NONE',  #69 ) ;
#1064 = VECTOR ( 'NONE', #824, 1000.000000000000000 ) ;
#1065 = CARTESIAN_POINT ( 'NONE',  ( 1.149999999999999700, 0.6499999999999999100, 0.8000000000000000400 ) ) ;
#1066 = ORIENTED_EDGE ( 'NONE', *, *, #768, .F. ) ;
#1067 = DIRECTION ( 'NONE',  ( 1.000000000000000000, 0.0000000000000000000, 0.0000000000000000000 ) ) ;
#1068 = DIRECTION ( 'NONE',  ( 1.000000000000000000, -9.856383386231858800E-017, 0.0000000000000000000 ) ) ;
#1069 = FACE_OUTER_BOUND ( 'NONE', #908, .T. ) ;
#1070 = LINE ( 'NONE', #855, #212 ) ;
#1071 = EDGE_LOOP ( 'NONE', ( #899, #195, #188, #857 ) ) ;
#1072 = CARTESIAN_POINT ( 'NONE',  ( 1.149999999999999200, -4.745506346695992400E-017, 0.8000000000000000400 ) ) ;
#1073 = PLANE ( 'NONE',  #865 ) ;
#1074 = ORIENTED_EDGE ( 'NONE', *, *, #511, .T. ) ;
#1075 = CARTESIAN_POINT ( 'NONE',  ( 1.517499999999999800, 0.6174999999999999400, 0.7999999999999999300 ) ) ;
#1076 = CARTESIAN_POINT ( 'NONE',  ( 1.309999999999999600, 0.6174999999999993800, -0.7999999999999999300 ) ) ;
#1077 = CARTESIAN_POINT ( 'NONE',  ( 1.517499999999999800, 0.03249999999999991100, 0.8000000000000000400 ) ) ;
#1078 = CARTESIAN_POINT ( 'NONE',  ( 1.309999999999999600, 0.6174999999999998300, -0.7999999999999999300 ) ) ;
#1079 = CARTESIAN_POINT ( 'NONE',  ( -1.149999999999999200, 0.6174999999999997200, 0.5333333333333333300 ) ) ;
#1080 = VECTOR ( 'NONE', #959, 1000.000000000000000 ) ;
#1081 = DIRECTION ( 'NONE',  ( -0.0000000000000000000, 0.0000000000000000000, -1.000000000000000000 ) ) ;
#1082 = ORIENTED_EDGE ( 'NONE', *, *, #210, .T. ) ;
#1083 = CARTESIAN_POINT ( 'NONE',  ( -1.309999999999999400, 0.6499999999999999100, 0.8000000000000000400 ) ) ;
#1084 = VERTEX_POINT ( 'NONE', #503 ) ;
#1085 = ORIENTED_EDGE ( 'NONE', *, *, #401, .T. ) ;
#1086 = LINE ( 'NONE', #495, #805 ) ;
#1087 = AXIS2_PLACEMENT_3D ( 'NONE', #619, #621, #622 ) ;
#1088 = VERTEX_POINT ( 'NONE', #502 ) ;
#1089 = CARTESIAN_POINT ( 'NONE',  ( -1.517499999999999800, 0.6174999999999999400, -3.890865574559980300 ) ) ;
#1090 = EDGE_CURVE ( 'NONE', #902, #131, #37, .T. ) ;
#1091 = PLANE ( 'NONE',  #1209 ) ;
#1092 = CARTESIAN_POINT ( 'NONE',  ( 1.149999999999999500, 0.6174999999999998300, 0.7999999999999999300 ) ) ;
#1093 = UNCERTAINTY_MEASURE_WITH_UNIT (LENGTH_MEASURE( 1.000000000000000100E-005 ), #361, 'distance_accuracy_value', 'NONE');
#1094 = AXIS2_PLACEMENT_3D ( 'NONE', #264, #600, #530 ) ;
#1095 = ADVANCED_FACE ( 'NONE', ( #1028 ), #500, .F. ) ;
#1096 = DIRECTION ( 'NONE',  ( -0.0000000000000000000, -0.0000000000000000000, -1.000000000000000000 ) ) ;
#1097 = VERTEX_POINT ( 'NONE', #496 ) ;
#1098 = CARTESIAN_POINT ( 'NONE',  ( -1.517499999999999800, 0.03249999999999989700, -3.890865574559980300 ) ) ;
#1099 = VERTEX_POINT ( 'NONE', #482 ) ;
#1100 = CARTESIAN_POINT ( 'NONE',  ( -1.309999999999999400, 0.0000000000000000000, 0.8000000000000000400 ) ) ;
#1101 = LINE ( 'NONE', #722, #845 ) ;
#1102 = PLANE ( 'NONE',  #285 ) ;
#1103 = ORIENTED_EDGE ( 'NONE', *, *, #249, .T. ) ;
#1104 = DIRECTION ( 'NONE',  ( 0.0000000000000000000, -0.0000000000000000000, 1.000000000000000000 ) ) ;
#1105 = ORIENTED_EDGE ( 'NONE', *, *, #291, .T. ) ;
#1106 = CARTESIAN_POINT ( 'NONE',  ( -1.517499999999999800, 0.03249999999999989700, -3.890865574559980300 ) ) ;
#1107 = PLANE ( 'NONE',  #32 ) ;
#1108 = DIRECTION ( 'NONE',  ( 1.000000000000000000, -9.856383386231860100E-017, -1.355252715606880500E-016 ) ) ;
#1109 = CARTESIAN_POINT ( 'NONE',  ( -1.517499999999999800, 0.6174999999999999400, 0.8000000000000000400 ) ) ;
#1110 = DIRECTION ( 'NONE',  ( 1.000000000000000000, 0.0000000000000000000, -0.0000000000000000000 ) ) ;
#1111 = DIRECTION ( 'NONE',  ( 0.0000000000000000000, -0.0000000000000000000, -1.000000000000000000 ) ) ;
#1112 = ORIENTED_EDGE ( 'NONE', *, *, #654, .T. ) ;
#1113 = DIRECTION ( 'NONE',  ( 0.0000000000000000000, -0.0000000000000000000, -1.000000000000000000 ) ) ;
#1114 = ORIENTED_EDGE ( 'NONE', *, *, #421, .T. ) ;
#1115 = VECTOR ( 'NONE', #867, 1000.000000000000000 ) ;
#1116 = ORIENTED_EDGE ( 'NONE', *, *, #418, .T. ) ;
#1117 = VECTOR ( 'NONE', #1001, 1000.000000000000000 ) ;
#1118 = CARTESIAN_POINT ( 'NONE',  ( -1.149999999999999500, 0.6174999999999997200, -0.5333333333333331000 ) ) ;
#1119 = DIRECTION ( 'NONE',  ( 1.000000000000000000, -1.290716872006552000E-016, 0.0000000000000000000 ) ) ;
#1120 = CARTESIAN_POINT ( 'NONE',  ( 1.149999999999999200, 0.03249999999999994600, -0.8000000000000000400 ) ) ;
#1121 = PLANE ( 'NONE',  #59 ) ;
#1122 = DIRECTION ( 'NONE',  ( 0.0000000000000000000, 0.0000000000000000000, 1.000000000000000000 ) ) ;
#1123 = DIRECTION ( 'NONE',  ( 1.000000000000000000, 0.0000000000000000000, -0.0000000000000000000 ) ) ;
#1124 = VECTOR ( 'NONE', #568, 1000.000000000000000 ) ;
#1125 = DIRECTION ( 'NONE',  ( 1.000000000000000000, -0.0000000000000000000, 0.0000000000000000000 ) ) ;
#1126 = CARTESIAN_POINT ( 'NONE',  ( 1.517499999999999800, 0.6174999999999999400, 0.8000000000000000400 ) ) ;
#1127 = PLANE ( 'NONE',  #194 ) ;
#1128 =( GEOMETRIC_REPRESENTATION_CONTEXT ( 3 ) GLOBAL_UNCERTAINTY_ASSIGNED_CONTEXT ( ( #907 ) ) GLOBAL_UNIT_ASSIGNED_CONTEXT ( ( #972, #973, #975 ) ) REPRESENTATION_CONTEXT ( 'NONE', 'WORKASPACE' ) );
#1129 = VERTEX_POINT ( 'NONE', #481 ) ;
#1130 = CARTESIAN_POINT ( 'NONE',  ( -1.517499999999999800, 0.03249999999999989700, -0.7999999999999999300 ) ) ;
#1131 = EDGE_CURVE ( 'NONE', #1088, #253, #893, .T. ) ;
#1132 = DIRECTION ( 'NONE',  ( 1.000000000000000000, -9.427844978134825100E-017, -0.0000000000000000000 ) ) ;
#1133 = CARTESIAN_POINT ( 'NONE',  ( 1.517499999999999800, 0.03249999999999989700, 0.8000000000000000400 ) ) ;
#1134 = VECTOR ( 'NONE', #633, 1000.000000000000000 ) ;
#1135 = DIRECTION ( 'NONE',  ( -0.0000000000000000000, 0.0000000000000000000, -1.000000000000000000 ) ) ;
#1136 = DIRECTION ( 'NONE',  ( 1.000000000000000000, 0.0000000000000000000, -0.0000000000000000000 ) ) ;
#1137 = MANIFOLD_SOLID_BREP ( 'Boss-Extrude2', #272 ) ;
#1138 = CARTESIAN_POINT ( 'NONE',  ( -1.149999999999999200, 0.0000000000000000000, 0.8000000000000000400 ) ) ;
#1139 = ADVANCED_FACE ( 'NONE', ( #784 ), #440, .F. ) ;
#1140 = PLANE ( 'NONE',  #629 ) ;
#1141 = CARTESIAN_POINT ( 'NONE',  ( -1.309999999999999600, 0.6499999999999999100, 0.8000000000000000400 ) ) ;
#1142 = PRODUCT_DEFINITION_SHAPE ( 'NONE', 'NONE',  #544 ) ;
#1143 = CARTESIAN_POINT ( 'NONE',  ( 6.128099235787634200E-017, 0.6499999999999999100, 0.8000000000000000400 ) ) ;
#1144 = ADVANCED_FACE ( 'NONE', ( #209 ), #445, .F. ) ;
#1145 = FILL_AREA_STYLE_COLOUR ( '', #1053 ) ;
#1146 = CARTESIAN_POINT ( 'NONE',  ( -1.517499999999999800, 0.6174999999999999400, 0.8000000000000000400 ) ) ;
#1147 = ORIENTED_EDGE ( 'NONE', *, *, #226, .F. ) ;
#1148 = ORIENTED_EDGE ( 'NONE', *, *, #135, .F. ) ;
#1149 = CARTESIAN_POINT ( 'NONE',  ( -1.149999999999999500, -2.184285145224379200, 0.8000000000000000400 ) ) ;
#1150 = COLOUR_RGB ( '',0.2509803921568627400, 0.2509803921568627400, 0.2509803921568627400 ) ;
#1151 = EDGE_LOOP ( 'NONE', ( #442, #492, #1147, #992 ) ) ;
#1152 = LINE ( 'NONE', #1013, #880 ) ;
#1153 = PRESENTATION_STYLE_ASSIGNMENT (( #971 ) ) ;
#1154 = ADVANCED_FACE ( 'NONE', ( #1182 ), #424, .F. ) ;
#1155 = CARTESIAN_POINT ( 'NONE',  ( -1.517499999999999800, 0.6174999999999999400, 0.8000000000000000400 ) ) ;
#1156 = CARTESIAN_POINT ( 'NONE',  ( -1.149999999999999200, 0.03249999999999993900, -0.8000000000000000400 ) ) ;
#1157 = CARTESIAN_POINT ( 'NONE',  ( 1.549999999999999800, 0.6499999999999999100, -0.5333333333333332100 ) ) ;
#1158 = CARTESIAN_POINT ( 'NONE',  ( 0.0000000000000000000, 0.0000000000000000000, -0.8000000000000000400 ) ) ;
#1159 = EDGE_LOOP ( 'NONE', ( #180, #120, #632, #1216, #947, #894, #1049, #282 ) ) ;
#1160 = DIRECTION ( 'NONE',  ( -9.856383386231858800E-017, -1.000000000000000000, -0.0000000000000000000 ) ) ;
#1161 = ORIENTED_EDGE ( 'NONE', *, *, #172, .T. ) ;
#1162 = LINE ( 'NONE', #268, #170 ) ;
#1163 = CARTESIAN_POINT ( 'NONE',  ( -1.149999999999999700, -2.184285145224379200, -0.8000000000000000400 ) ) ;
#1164 = ORIENTED_EDGE ( 'NONE', *, *, #1023, .T. ) ;
#1165 = SURFACE_STYLE_FILL_AREA ( #1199 ) ;
#1166 = CARTESIAN_POINT ( 'NONE',  ( 1.549999999999999800, -1.898202538678397700E-016, -0.8000000000000000400 ) ) ;
#1167 = VERTEX_POINT ( 'NONE', #420 ) ;
#1168 = ADVANCED_FACE ( 'NONE', ( #219 ), #429, .F. ) ;
#1169 = CARTESIAN_POINT ( 'NONE',  ( -1.149999999999999500, 0.6174999999999998300, -0.7999999999999999300 ) ) ;
#1170 = DIRECTION ( 'NONE',  ( 0.0000000000000000000, -0.0000000000000000000, -1.000000000000000000 ) ) ;
#1171 = CARTESIAN_POINT ( 'NONE',  ( -1.517499999999999800, 0.6174999999999999400, -0.8000000000000000400 ) ) ;
#1172 = CARTESIAN_POINT ( 'NONE',  ( -1.149999999999999500, 0.6500000000000000200, -0.5333333333333331000 ) ) ;
#1173 = DIRECTION ( 'NONE',  ( -1.000000000000000000, 0.0000000000000000000, -0.0000000000000000000 ) ) ;
#1174 = DIRECTION ( 'NONE',  ( 0.0000000000000000000, 0.0000000000000000000, -1.000000000000000000 ) ) ;
#1175 = FACE_OUTER_BOUND ( 'NONE', #243, .T. ) ;
#1176 = ORIENTED_EDGE ( 'NONE', *, *, #573, .F. ) ;
#1177 = FACE_OUTER_BOUND ( 'NONE', #25, .T. ) ;
#1178 = ORIENTED_EDGE ( 'NONE', *, *, #654, .F. ) ;
#1179 = CARTESIAN_POINT ( 'NONE',  ( -1.149999999999999200, 0.0000000000000000000, 0.8000000000000000400 ) ) ;
#1180 = LINE ( 'NONE', #994, #250 ) ;
#1181 = CARTESIAN_POINT ( 'NONE',  ( 0.0000000000000000000, 0.0000000000000000000, -0.8000000000000000400 ) ) ;
#1182 = FACE_OUTER_BOUND ( 'NONE', #732, .T. ) ;
#1183 = ORIENTED_EDGE ( 'NONE', *, *, #478, .F. ) ;
#1184 = DIRECTION ( 'NONE',  ( 0.0000000000000000000, -1.000000000000000000, 0.0000000000000000000 ) ) ;
#1185 =( NAMED_UNIT ( * ) SI_UNIT ( $, .STERADIAN. ) SOLID_ANGLE_UNIT ( ) );
#1186 =( LENGTH_UNIT ( ) NAMED_UNIT ( * ) SI_UNIT ( .MILLI., .METRE. ) );
#1187 = VECTOR ( 'NONE', #220, 1000.000000000000000 ) ;
#1188 = ORIENTED_EDGE ( 'NONE', *, *, #590, .T. ) ;
#1189 = ORIENTED_EDGE ( 'NONE', *, *, #186, .T. ) ;
#1190 = ORIENTED_EDGE ( 'NONE', *, *, #806, .F. ) ;
#1191 =( NAMED_UNIT ( * ) PLANE_ANGLE_UNIT ( ) SI_UNIT ( $, .RADIAN. ) );
#1192 = LINE ( 'NONE', #774, #206 ) ;
#1193 = CLOSED_SHELL ( 'NONE', ( #563, #584, #70, #1044, #362, #1095, #1144, #716, #958, #16, #265, #1168, #917, #1217 ) ) ;
#1194 = MECHANICAL_DESIGN_GEOMETRIC_PRESENTATION_REPRESENTATION (  '', ( #207 ), #153 ) ;
#1195 = VERTEX_POINT ( 'NONE', #436 ) ;
#1196 = MECHANICAL_DESIGN_GEOMETRIC_PRESENTATION_REPRESENTATION (  '', ( #938 ), #1128 ) ;
#1197 = DIRECTION ( 'NONE',  ( 0.0000000000000000000, 1.000000000000000000, 0.0000000000000000000 ) ) ;
#1198 = CARTESIAN_POINT ( 'NONE',  ( 1.549999999999999800, -1.898202538678397000E-016, 0.8000000000000000400 ) ) ;
#1199 = FILL_AREA_STYLE ('',( #1145 ) ) ;
#1200 = SURFACE_SIDE_STYLE ('',( #1165 ) ) ;
#1201 = DIRECTION ( 'NONE',  ( 0.0000000000000000000, 0.0000000000000000000, 1.000000000000000000 ) ) ;
#1202 = ORIENTED_EDGE ( 'NONE', *, *, #83, .T. ) ;
#1203 = CARTESIAN_POINT ( 'NONE',  ( 1.549999999999999800, 0.6499999999999999100, 0.8000000000000000400 ) ) ;
#1204 = ORIENTED_EDGE ( 'NONE', *, *, #768, .T. ) ;
#1205 = ORIENTED_EDGE ( 'NONE', *, *, #107, .T. ) ;
#1206 = DIRECTION ( 'NONE',  ( 0.0000000000000000000, 0.0000000000000000000, 1.000000000000000000 ) ) ;
#1207 = AXIS2_PLACEMENT_3D ( 'NONE', #246, #323, #325 ) ;
#1208 = VECTOR ( 'NONE', #888, 1000.000000000000000 ) ;
#1209 = AXIS2_PLACEMENT_3D ( 'NONE', #1224, #48, #62 ) ;
#1210 = ORIENTED_EDGE ( 'NONE', *, *, #291, .F. ) ;
#1211 = DIRECTION ( 'NONE',  ( -0.0000000000000000000, 0.0000000000000000000, 1.000000000000000000 ) ) ;
#1212 = LINE ( 'NONE', #549, #1007 ) ;
#1213 = LINE ( 'NONE', #862, #1115 ) ;
#1214 = SURFACE_STYLE_USAGE ( .BOTH. , #1200 ) ;
#1215 = VECTOR ( 'NONE', #713, 1000.000000000000000 ) ;
#1216 = ORIENTED_EDGE ( 'NONE', *, *, #280, .F. ) ;
#1217 = ADVANCED_FACE ( 'NONE', ( #13 ), #402, .F. ) ;
#1218 = VECTOR ( 'NONE', #585, 1000.000000000000000 ) ;
#1219 = CARTESIAN_POINT ( 'NONE',  ( 1.149999999999999200, 0.03249999999999994600, 0.8000000000000000400 ) ) ;
#1220 = ORIENTED_EDGE ( 'NONE', *, *, #680, .F. ) ;
#1221 = DIRECTION ( 'NONE',  ( -0.0000000000000000000, -0.0000000000000000000, -1.000000000000000000 ) ) ;
#1222 = VERTEX_POINT ( 'NONE', #406 ) ;
#1223 = PLANE ( 'NONE',  #803 ) ;
#1224 = CARTESIAN_POINT ( 'NONE',  ( 1.149999999999999700, 0.6174999999999993800, 0.5333333333333329900 ) ) ;
#1225 = EDGE_LOOP ( 'NONE', ( #176, #720, #1178, #1010 ) ) ;
ENDSEC;
END-ISO-10303-21;
