ISO-10303-21;
HEADER;
FILE_DESCRIPTION (( 'STEP AP214' ),
    '1' );
FILE_NAME ('SiT1602BI-32-33E-33.333000.STEP',
    '2024-08-28T10:03:25',
    ( '' ),
    ( '' ),
    'SwSTEP 2.0',
    'SolidWorks 2020',
    '' );
FILE_SCHEMA (( 'AUTOMOTIVE_DESIGN' ));
ENDSEC;

DATA;
#1 = EDGE_LOOP ( 'NONE', ( #760, #340, #795, #1001 ) ) ;
#2 = CARTESIAN_POINT ( 'NONE',  ( 1.069669914110086051, 0.7299999999999999822, 2.094669914110091735 ) ) ;
#3 = ORIENTED_EDGE ( 'NONE', *, *, #849, .F. ) ;
#4 = SURFACE_STYLE_FILL_AREA ( #659 ) ;
#5 = LINE ( 'NONE', #489, #560 ) ;
#6 = EDGE_CURVE ( 'NONE', #495, #416, #783, .T. ) ;
#7 = VERTEX_POINT ( 'NONE', #864 ) ;
#8 = PLANE ( 'NONE',  #997 ) ;
#9 = ORIENTED_EDGE ( 'NONE', *, *, #6, .F. ) ;
#10 = DIRECTION ( 'NONE',  ( 0.000000000000000000, 1.000000000000000000, 0.000000000000000000 ) ) ;
#11 = CARTESIAN_POINT ( 'NONE',  ( -1.500000000000000888, -0.02000000000000000042, 0.6449999999999997957 ) ) ;
#12 = VECTOR ( 'NONE', #34, 1000.000000000000000 ) ;
#13 = AXIS2_PLACEMENT_3D ( 'NONE', #676, #261, #506 ) ;
#14 = ORIENTED_EDGE ( 'NONE', *, *, #657, .F. ) ;
#15 = FACE_OUTER_BOUND ( 'NONE', #429, .T. ) ;
#16 = EDGE_CURVE ( 'NONE', #926, #416, #188, .T. ) ;
#17 = EDGE_LOOP ( 'NONE', ( #878, #583, #757, #248 ) ) ;
#18 = CARTESIAN_POINT ( 'NONE',  ( -1.500000000000001776, -0.02000000000000000042, -1.744999999999999218 ) ) ;
#19 = DIRECTION ( 'NONE',  ( -0.000000000000000000, -1.000000000000000000, -0.000000000000000000 ) ) ;
#20 = VECTOR ( 'NONE', #551, 1000.000000000000000 ) ;
#21 = FACE_OUTER_BOUND ( 'NONE', #744, .T. ) ;
#22 = DIRECTION ( 'NONE',  ( 0.000000000000000000, -1.000000000000000000, 0.000000000000000000 ) ) ;
#23 = VECTOR ( 'NONE', #1063, 1000.000000000000000 ) ;
#24 = EDGE_CURVE ( 'NONE', #845, #1024, #693, .T. ) ;
#25 = CARTESIAN_POINT ( 'NONE',  ( -0.9500000000000012879, 0.000000000000000000, 1.745000000000000329 ) ) ;
#26 = DIRECTION ( 'NONE',  ( -0.000000000000000000, 1.000000000000000000, -0.000000000000000000 ) ) ;
#27 = CARTESIAN_POINT ( 'NONE',  ( -1.500000000000001332, -0.02000000000000000042, -0.6449999999999989075 ) ) ;
#28 = LINE ( 'NONE', #604, #12 ) ;
#29 = LINE ( 'NONE', #115, #54 ) ;
#30 = CARTESIAN_POINT ( 'NONE',  ( -0.9500000000000011768, -0.02000000000000000042, 1.195000000000000062 ) ) ;
#31 = CARTESIAN_POINT ( 'NONE',  ( 0.9500000000000025091, 0.000000000000000000, -1.194999999999999174 ) ) ;
#32 = AXIS2_PLACEMENT_3D ( 'NONE', #1070, #311, #569 ) ;
#33 = CIRCLE ( 'NONE', #66, 0.5500000000000003775 ) ;
#34 = DIRECTION ( 'NONE',  ( -0.000000000000000000, -0.000000000000000000, 1.000000000000000000 ) ) ;
#35 = VERTEX_POINT ( 'NONE', #200 ) ;
#36 = PLANE ( 'NONE',  #124 ) ;
#37 = CARTESIAN_POINT ( 'NONE',  ( -0.7154792120088316887, 0.000000000000000000, -0.6449999999999989075 ) ) ;
#38 = DIRECTION ( 'NONE',  ( 0.000000000000000000, 0.000000000000000000, 1.000000000000000000 ) ) ;
#39 = CIRCLE ( 'NONE', #343, 0.1249999999999996808 ) ;
#40 = CARTESIAN_POINT ( 'NONE',  ( 0.9500000000000030642, -0.02000000000000000042, -1.744999999999999440 ) ) ;
#41 = CARTESIAN_POINT ( 'NONE',  ( 0.9500000000000030642, -0.02000000000000000042, -1.744999999999999440 ) ) ;
#42 = EDGE_CURVE ( 'NONE', #175, #91, #652, .T. ) ;
#43 = VERTEX_POINT ( 'NONE', #608 ) ;
#44 = DIRECTION ( 'NONE',  ( -1.000000000000000000, 0.000000000000000000, -3.942553354492746489E-16 ) ) ;
#45 = DIRECTION ( 'NONE',  ( -0.000000000000000000, -0.000000000000000000, 1.000000000000000000 ) ) ;
#46 =( GEOMETRIC_REPRESENTATION_CONTEXT ( 3 ) GLOBAL_UNCERTAINTY_ASSIGNED_CONTEXT ( ( #403 ) ) GLOBAL_UNIT_ASSIGNED_CONTEXT ( ( #666, #815, #73 ) ) REPRESENTATION_CONTEXT ( 'NONE', 'WORKASPACE' ) );
#47 = AXIS2_PLACEMENT_3D ( 'NONE', #240, #917, #325 ) ;
#48 = AXIS2_PLACEMENT_3D ( 'NONE', #901, #468, #813 ) ;
#49 = EDGE_LOOP ( 'NONE', ( #484, #145, #55, #671 ) ) ;
#50 = LINE ( 'NONE', #632, #1013 ) ;
#51 = DIRECTION ( 'NONE',  ( 0.000000000000000000, -1.000000000000000000, 0.000000000000000000 ) ) ;
#52 = CARTESIAN_POINT ( 'NONE',  ( 1.500000000000001776, -0.02000000000000000042, -0.6449999999999980194 ) ) ;
#53 = EDGE_CURVE ( 'NONE', #398, #802, #102, .T. ) ;
#54 = VECTOR ( 'NONE', #195, 1000.000000000000000 ) ;
#55 = ORIENTED_EDGE ( 'NONE', *, *, #680, .F. ) ;
#56 = EDGE_CURVE ( 'NONE', #875, #623, #946, .T. ) ;
#57 = DIRECTION ( 'NONE',  ( 1.000000000000000000, 0.000000000000000000, 1.971276677246373491E-15 ) ) ;
#58 = FACE_OUTER_BOUND ( 'NONE', #771, .T. ) ;
#59 =( LENGTH_UNIT ( ) NAMED_UNIT ( * ) SI_UNIT ( .MILLI., .METRE. ) );
#60 = ORIENTED_EDGE ( 'NONE', *, *, #639, .F. ) ;
#61 = SURFACE_SIDE_STYLE ('',( #642 ) ) ;
#62 = PRODUCT_DEFINITION ( 'UNKNOWN', '', #119, #170 ) ;
#63 = LINE ( 'NONE', #635, #20 ) ;
#64 = DIRECTION ( 'NONE',  ( -1.000000000000000000, 0.000000000000000000, -3.942553354492747475E-16 ) ) ;
#65 = ORIENTED_EDGE ( 'NONE', *, *, #42, .T. ) ;
#66 = AXIS2_PLACEMENT_3D ( 'NONE', #919, #491, #756 ) ;
#67 = LINE ( 'NONE', #496, #165 ) ;
#68 = ADVANCED_FACE ( 'NONE', ( #21 ), #277, .F. ) ;
#69 = DIRECTION ( 'NONE',  ( 1.000000000000000000, 0.000000000000000000, 0.000000000000000000 ) ) ;
#70 = CARTESIAN_POINT ( 'NONE',  ( 0.9500000000000003997, -0.02000000000000000042, 1.745000000000000773 ) ) ;
#71 = FACE_OUTER_BOUND ( 'NONE', #736, .T. ) ;
#72 = VERTEX_POINT ( 'NONE', #788 ) ;
#73 =( NAMED_UNIT ( * ) SI_UNIT ( $, .STERADIAN. ) SOLID_ANGLE_UNIT ( ) );
#74 = AXIS2_PLACEMENT_3D ( 'NONE', #746, #1078, #323 ) ;
#75 = DIRECTION ( 'NONE',  ( -0.000000000000000000, 1.000000000000000000, -0.000000000000000000 ) ) ;
#76 = ORIENTED_EDGE ( 'NONE', *, *, #56, .F. ) ;
#77 = DIRECTION ( 'NONE',  ( 0.000000000000000000, -1.000000000000000000, 0.000000000000000000 ) ) ;
#78 = ORIENTED_EDGE ( 'NONE', *, *, #624, .T. ) ;
#79 = LINE ( 'NONE', #1085, #273 ) ;
#80 = ORIENTED_EDGE ( 'NONE', *, *, #706, .F. ) ;
#81 = DIRECTION ( 'NONE',  ( -0.000000000000000000, 1.000000000000000000, -0.000000000000000000 ) ) ;
#82 = ORIENTED_EDGE ( 'NONE', *, *, #976, .T. ) ;
#83 = AXIS2_PLACEMENT_3D ( 'NONE', #800, #203, #366 ) ;
#84 = CIRCLE ( 'NONE', #873, 0.5500000000000003775 ) ;
#85 = CARTESIAN_POINT ( 'NONE',  ( 1.069669914110086051, 0.7299999999999999822, 1.969669914110092179 ) ) ;
#86 = ORIENTED_EDGE ( 'NONE', *, *, #42, .F. ) ;
#87 = ORIENTED_EDGE ( 'NONE', *, *, #479, .F. ) ;
#88 = ADVANCED_FACE ( 'NONE', ( #344 ), #1027, .T. ) ;
#89 = FACE_OUTER_BOUND ( 'NONE', #339, .T. ) ;
#90 = AXIS2_PLACEMENT_3D ( 'NONE', #268, #342, #622 ) ;
#91 = VERTEX_POINT ( 'NONE', #269 ) ;
#92 = CARTESIAN_POINT ( 'NONE',  ( -0.9500000000000011768, -0.02000000000000000042, -1.169999999999998597 ) ) ;
#93 = VERTEX_POINT ( 'NONE', #108 ) ;
#94 = CARTESIAN_POINT ( 'NONE',  ( 0.9500000000000007327, -0.02000000000000000042, 0.6450000000000001288 ) ) ;
#95 = EDGE_CURVE ( 'NONE', #43, #926, #504, .T. ) ;
#96 = VERTEX_POINT ( 'NONE', #265 ) ;
#97 = CARTESIAN_POINT ( 'NONE',  ( -0.9500000000000011768, 0.000000000000000000, 1.195000000000000062 ) ) ;
#98 = EDGE_LOOP ( 'NONE', ( #78, #3, #507, #379 ) ) ;
#99 = CARTESIAN_POINT ( 'NONE',  ( -0.9500000000000010658, -0.02000000000000000042, 1.745000000000000551 ) ) ;
#100 = COLOUR_RGB ( '',1.000000000000000000, 1.000000000000000000, 1.000000000000000000 ) ;
#101 = VECTOR ( 'NONE', #81, 1000.000000000000000 ) ;
#102 = LINE ( 'NONE', #123, #208 ) ;
#103 = CARTESIAN_POINT ( 'NONE',  ( 1.500000000000000444, -0.02000000000000000042, 0.6450000000000005729 ) ) ;
#104 = EDGE_CURVE ( 'NONE', #196, #480, #989, .T. ) ;
#105 = ORIENTED_EDGE ( 'NONE', *, *, #920, .F. ) ;
#106 = DIRECTION ( 'NONE',  ( -1.000000000000000000, 0.000000000000000000, -3.942553354492746489E-16 ) ) ;
#107 = CLOSED_SHELL ( 'NONE', ( #405, #553, #713, #127, #937, #228 ) ) ;
#108 = CARTESIAN_POINT ( 'NONE',  ( -1.500000000000001776, 0.000000000000000000, -1.744999999999999218 ) ) ;
#109 = SURFACE_STYLE_FILL_AREA ( #278 ) ;
#110 = ADVANCED_FACE ( 'NONE', ( #958 ), #432, .F. ) ;
#111 = DIRECTION ( 'NONE',  ( 0.000000000000000000, 0.000000000000000000, 1.000000000000000000 ) ) ;
#112 = DIRECTION ( 'NONE',  ( 1.000000000000000000, -0.000000000000000000, 7.885106708985491006E-16 ) ) ;
#113 = CARTESIAN_POINT ( 'NONE',  ( -1.600000000000000755, 0.7500000000000000000, 2.500000000000000444 ) ) ;
#114 = DIRECTION ( 'NONE',  ( 0.000000000000000000, 0.000000000000000000, -1.000000000000000000 ) ) ;
#115 = CARTESIAN_POINT ( 'NONE',  ( -0.9500000000000021760, -0.02000000000000000042, -1.744999999999999885 ) ) ;
#116 = ORIENTED_EDGE ( 'NONE', *, *, #561, .T. ) ;
#117 = DIRECTION ( 'NONE',  ( 0.000000000000000000, 0.000000000000000000, 1.000000000000000000 ) ) ;
#118 = COLOUR_RGB ( '',0.2980392156862745057, 0.2980392156862745057, 0.2980392156862745057 ) ;
#119 = PRODUCT_DEFINITION_FORMATION_WITH_SPECIFIED_SOURCE ( 'ANY', '', #1034, .NOT_KNOWN. ) ;
#120 = EDGE_LOOP ( 'NONE', ( #280, #691, #531, #581 ) ) ;
#121 = CARTESIAN_POINT ( 'NONE',  ( 0.9500000000000030642, -0.02000000000000000042, -1.744999999999999440 ) ) ;
#122 = EDGE_CURVE ( 'NONE', #72, #464, #613, .T. ) ;
#123 = CARTESIAN_POINT ( 'NONE',  ( 1.500000000000000444, -0.02000000000000000042, 0.6450000000000005729 ) ) ;
#124 = AXIS2_PLACEMENT_3D ( 'NONE', #357, #191, #854 ) ;
#125 = ORIENTED_EDGE ( 'NONE', *, *, #673, .T. ) ;
#126 = PRESENTATION_STYLE_ASSIGNMENT (( #466 ) ) ;
#127 = ADVANCED_FACE ( 'NONE', ( #940 ), #436, .F. ) ;
#128 = FILL_AREA_STYLE ('',( #301 ) ) ;
#129 = CARTESIAN_POINT ( 'NONE',  ( -0.3764505405658095105, -0.02000000000000000042, -1.129183121349778496 ) ) ;
#130 = ORIENTED_EDGE ( 'NONE', *, *, #960, .T. ) ;
#131 = PRESENTATION_STYLE_ASSIGNMENT (( #721 ) ) ;
#132 = LINE ( 'NONE', #819, #628 ) ;
#133 = DIRECTION ( 'NONE',  ( 0.000000000000000000, -1.000000000000000000, 0.000000000000000000 ) ) ;
#134 = AXIS2_PLACEMENT_3D ( 'NONE', #712, #445, #193 ) ;
#135 = PRODUCT_RELATED_PRODUCT_CATEGORY ( 'part', '', ( #1034 ) ) ;
#136 = VECTOR ( 'NONE', #1046, 1000.000000000000000 ) ;
#137 = ORIENTED_EDGE ( 'NONE', *, *, #53, .F. ) ;
#138 = CARTESIAN_POINT ( 'NONE',  ( 1.500000000000001776, -0.02000000000000000042, -0.6449999999999980194 ) ) ;
#139 = CARTESIAN_POINT ( 'NONE',  ( 0.9500000000000020650, -0.02000000000000000042, -0.6449999999999989075 ) ) ;
#140 = DIRECTION ( 'NONE',  ( -1.000000000000000000, -0.000000000000000000, -0.000000000000000000 ) ) ;
#141 = ORIENTED_EDGE ( 'NONE', *, *, #655, .F. ) ;
#142 =( NAMED_UNIT ( * ) PLANE_ANGLE_UNIT ( ) SI_UNIT ( $, .RADIAN. ) );
#143 = FILL_AREA_STYLE_COLOUR ( '', #146 ) ;
#144 = STYLED_ITEM ( 'NONE', ( #650 ), #566 ) ;
#145 = ORIENTED_EDGE ( 'NONE', *, *, #990, .T. ) ;
#146 = COLOUR_RGB ( '',0.7921568627450980005, 0.8196078431372548767, 0.9333333333333333481 ) ;
#147 = DIRECTION ( 'NONE',  ( 0.000000000000000000, 1.000000000000000000, 0.000000000000000000 ) ) ;
#148 = EDGE_CURVE ( 'NONE', #852, #404, #527, .T. ) ;
#149 = VERTEX_POINT ( 'NONE', #773 ) ;
#150 = EDGE_LOOP ( 'NONE', ( #168, #899, #160, #65, #963 ) ) ;
#151 = COLOUR_RGB ( '',1.000000000000000000, 1.000000000000000000, 1.000000000000000000 ) ;
#152 = PRESENTATION_STYLE_ASSIGNMENT (( #900 ) ) ;
#153 = AXIS2_PLACEMENT_3D ( 'NONE', #645, #51, #471 ) ;
#154 = CARTESIAN_POINT ( 'NONE',  ( 1.069669914110086051, 0.7299999999999999822, 1.969669914110092179 ) ) ;
#155 = VERTEX_POINT ( 'NONE', #855 ) ;
#156 = DIRECTION ( 'NONE',  ( 0.000000000000000000, 0.000000000000000000, -1.000000000000000000 ) ) ;
#157 = UNCERTAINTY_MEASURE_WITH_UNIT (LENGTH_MEASURE( 1.000000000000000082E-05 ), #651, 'distance_accuracy_value', 'NONE');
#158 = ORIENTED_EDGE ( 'NONE', *, *, #247, .F. ) ;
#159 = DIRECTION ( 'NONE',  ( 0.000000000000000000, 0.000000000000000000, 1.000000000000000000 ) ) ;
#160 = ORIENTED_EDGE ( 'NONE', *, *, #470, .T. ) ;
#161 = FACE_OUTER_BOUND ( 'NONE', #238, .T. ) ;
#162 = EDGE_CURVE ( 'NONE', #464, #328, #274, .T. ) ;
#163 = EDGE_CURVE ( 'NONE', #236, #859, #886, .T. ) ;
#164 = ORIENTED_EDGE ( 'NONE', *, *, #358, .F. ) ;
#165 = VECTOR ( 'NONE', #841, 1000.000000000000000 ) ;
#166 = VECTOR ( 'NONE', #898, 1000.000000000000000 ) ;
#167 = PLANE ( 'NONE',  #1023 ) ;
#168 = ORIENTED_EDGE ( 'NONE', *, *, #180, .T. ) ;
#169 = CARTESIAN_POINT ( 'NONE',  ( 1.599999999999999423, 0.7500000000000000000, 2.500000000000000444 ) ) ;
#170 = PRODUCT_DEFINITION_CONTEXT ( 'detailed design', #411, 'design' ) ;
#171 = ORIENTED_EDGE ( 'NONE', *, *, #162, .T. ) ;
#172 = EDGE_CURVE ( 'NONE', #214, #404, #376, .T. ) ;
#173 = DIRECTION ( 'NONE',  ( 1.000000000000000000, -0.000000000000000000, 0.000000000000000000 ) ) ;
#174 = VECTOR ( 'NONE', #584, 1000.000000000000000 ) ;
#175 = VERTEX_POINT ( 'NONE', #725 ) ;
#176 = PLANE ( 'NONE',  #13 ) ;
#177 = ORIENTED_EDGE ( 'NONE', *, *, #338, .T. ) ;
#178 = LINE ( 'NONE', #591, #473 ) ;
#179 = CARTESIAN_POINT ( 'NONE',  ( 0.9500000000000020650, 0.000000000000000000, -0.6449999999999989075 ) ) ;
#180 = EDGE_CURVE ( 'NONE', #495, #875, #63, .T. ) ;
#181 = CARTESIAN_POINT ( 'NONE',  ( 1.500000000000001776, -0.02000000000000000042, -0.6449999999999980194 ) ) ;
#182 = CARTESIAN_POINT ( 'NONE',  ( 0.000000000000000000, 0.7500000000000000000, 0.000000000000000000 ) ) ;
#183 = ORIENTED_EDGE ( 'NONE', *, *, #1058, .T. ) ;
#184 = LINE ( 'NONE', #705, #550 ) ;
#185 = AXIS2_PLACEMENT_3D ( 'NONE', #1074, #499, #1080 ) ;
#186 = CARTESIAN_POINT ( 'NONE',  ( -0.9500000000000012879, -0.02000000000000000042, 1.745000000000000329 ) ) ;
#187 = EDGE_CURVE ( 'NONE', #555, #641, #897, .T. ) ;
#188 = LINE ( 'NONE', #37, #954 ) ;
#189 = CARTESIAN_POINT ( 'NONE',  ( -1.500000000000001776, -0.02000000000000000042, -1.744999999999999218 ) ) ;
#190 = EDGE_LOOP ( 'NONE', ( #603, #1049, #137, #291 ) ) ;
#191 = DIRECTION ( 'NONE',  ( 0.000000000000000000, 1.000000000000000000, 0.000000000000000000 ) ) ;
#192 = AXIS2_PLACEMENT_3D ( 'NONE', #685, #173, #592 ) ;
#193 = DIRECTION ( 'NONE',  ( 0.000000000000000000, 0.000000000000000000, 1.000000000000000000 ) ) ;
#194 = FACE_OUTER_BOUND ( 'NONE', #367, .T. ) ;
#195 = DIRECTION ( 'NONE',  ( 1.000000000000000000, -0.000000000000000000, -1.182766006347823897E-15 ) ) ;
#196 = VERTEX_POINT ( 'NONE', #461 ) ;
#197 = LINE ( 'NONE', #189, #458 ) ;
#198 = PLANE ( 'NONE',  #232 ) ;
#199 = SURFACE_SIDE_STYLE ('',( #537 ) ) ;
#200 = CARTESIAN_POINT ( 'NONE',  ( 1.599999999999999423, 0.7500000000000000000, -2.499999999999999556 ) ) ;
#201 = LINE ( 'NONE', #363, #219 ) ;
#202 = VECTOR ( 'NONE', #1059, 1000.000000000000000 ) ;
#203 = DIRECTION ( 'NONE',  ( -0.8191520442889929088, 0.000000000000000000, -0.5735764363510444941 ) ) ;
#204 = EDGE_LOOP ( 'NONE', ( #662, #665, #585, #840 ) ) ;
#205 = LINE ( 'NONE', #881, #23 ) ;
#206 = FACE_OUTER_BOUND ( 'NONE', #593, .T. ) ;
#207 = PLANE ( 'NONE',  #386 ) ;
#208 = VECTOR ( 'NONE', #112, 1000.000000000000000 ) ;
#209 = AXIS2_PLACEMENT_3D ( 'NONE', #400, #916, #478 ) ;
#210 = DIRECTION ( 'NONE',  ( 0.000000000000000000, 0.000000000000000000, 1.000000000000000000 ) ) ;
#211 = VERTEX_POINT ( 'NONE', #369 ) ;
#212 = DIRECTION ( 'NONE',  ( -3.942553354492742545E-16, -0.000000000000000000, 1.000000000000000000 ) ) ;
#213 = CARTESIAN_POINT ( 'NONE',  ( -1.600000000000000755, 0.7500000000000000000, 2.500000000000000444 ) ) ;
#214 = VERTEX_POINT ( 'NONE', #139 ) ;
#215 = FILL_AREA_STYLE ('',( #720 ) ) ;
#216 = DIRECTION ( 'NONE',  ( 1.000000000000000000, 0.000000000000000000, 1.971276677246373097E-15 ) ) ;
#217 = LINE ( 'NONE', #646, #890 ) ;
#218 = PRESENTATION_LAYER_ASSIGNMENT (  '', '', ( #144 ) ) ;
#219 = VECTOR ( 'NONE', #717, 1000.000000000000000 ) ;
#220 = ORIENTED_EDGE ( 'NONE', *, *, #1055, .T. ) ;
#221 = DIRECTION ( 'NONE',  ( -0.000000000000000000, 1.000000000000000000, -0.000000000000000000 ) ) ;
#222 = FACE_OUTER_BOUND ( 'NONE', #331, .T. ) ;
#223 = VERTEX_POINT ( 'NONE', #638 ) ;
#224 = CARTESIAN_POINT ( 'NONE',  ( -0.9500000000000011768, -0.02000000000000000042, 1.195000000000000062 ) ) ;
#225 = APPLICATION_PROTOCOL_DEFINITION ( 'draft international standard', 'automotive_design', 1998, #987 ) ;
#226 = MANIFOLD_SOLID_BREP ( 'Boss-Extrude2[2]', #341 ) ;
#227 = ORIENTED_EDGE ( 'NONE', *, *, #303, .T. ) ;
#228 = ADVANCED_FACE ( 'NONE', ( #58 ), #546, .F. ) ;
#229 = CARTESIAN_POINT ( 'NONE',  ( 1.500000000000000000, 0.000000000000000000, 1.745000000000000995 ) ) ;
#230 = APPLICATION_PROTOCOL_DEFINITION ( 'draft international standard', 'automotive_design', 1998, #411 ) ;
#231 = VERTEX_POINT ( 'NONE', #804 ) ;
#232 = AXIS2_PLACEMENT_3D ( 'NONE', #451, #474, #967 ) ;
#233 = ORIENTED_EDGE ( 'NONE', *, *, #607, .F. ) ;
#234 = VECTOR ( 'NONE', #270, 1000.000000000000000 ) ;
#235 = CARTESIAN_POINT ( 'NONE',  ( -1.500000000000000888, 0.000000000000000000, 0.6449999999999997957 ) ) ;
#236 = VERTEX_POINT ( 'NONE', #449 ) ;
#237 = CARTESIAN_POINT ( 'NONE',  ( -1.600000000000000755, 0.7500000000000000000, 2.500000000000000444 ) ) ;
#238 = EDGE_LOOP ( 'NONE', ( #407, #105, #76, #130 ) ) ;
#239 = DIRECTION ( 'NONE',  ( -0.000000000000000000, 0.000000000000000000, 1.000000000000000000 ) ) ;
#240 = CARTESIAN_POINT ( 'NONE',  ( 0.000000000000000000, 0.000000000000000000, 0.000000000000000000 ) ) ;
#241 = EDGE_LOOP ( 'NONE', ( #885, #850 ) ) ;
#242 = CARTESIAN_POINT ( 'NONE',  ( 0.9500000000000007327, -0.02000000000000000042, 0.6450000000000001288 ) ) ;
#243 = EDGE_LOOP ( 'NONE', ( #1025, #233, #1017, #755 ) ) ;
#244 = FACE_OUTER_BOUND ( 'NONE', #190, .T. ) ;
#245 = VERTEX_POINT ( 'NONE', #729 ) ;
#246 = DIRECTION ( 'NONE',  ( 1.000000000000000000, 0.000000000000000000, 0.000000000000000000 ) ) ;
#247 = EDGE_CURVE ( 'NONE', #762, #35, #384, .T. ) ;
#248 = ORIENTED_EDGE ( 'NONE', *, *, #6, .T. ) ;
#249 = DIRECTION ( 'NONE',  ( 1.000000000000000000, 0.000000000000000000, 0.000000000000000000 ) ) ;
#250 = AXIS2_PLACEMENT_3D ( 'NONE', #97, #421, #156 ) ;
#251 = DIRECTION ( 'NONE',  ( -3.942553354492743531E-16, 0.000000000000000000, 1.000000000000000000 ) ) ;
#252 = ORIENTED_EDGE ( 'NONE', *, *, #148, .T. ) ;
#253 = DIRECTION ( 'NONE',  ( 1.000000000000000000, 0.000000000000000000, -3.942553354492743531E-16 ) ) ;
#254 = ADVANCED_FACE ( 'NONE', ( #796 ), #296, .T. ) ;
#255 = ORIENTED_EDGE ( 'NONE', *, *, #706, .T. ) ;
#256 = LINE ( 'NONE', #868, #668 ) ;
#257 = VECTOR ( 'NONE', #701, 1000.000000000000000 ) ;
#258 = CARTESIAN_POINT ( 'NONE',  ( -0.9500000000000011768, -0.02000000000000000042, -1.169999999999998597 ) ) ;
#259 = AXIS2_PLACEMENT_3D ( 'NONE', #707, #335, #516 ) ;
#260 = DIRECTION ( 'NONE',  ( 0.000000000000000000, -1.000000000000000000, 0.000000000000000000 ) ) ;
#261 = DIRECTION ( 'NONE',  ( 1.182766006347824095E-15, 0.000000000000000000, 1.000000000000000000 ) ) ;
#262 = EDGE_LOOP ( 'NONE', ( #889, #505, #322, #749 ) ) ;
#263 = ADVANCED_FACE ( 'NONE', ( #988 ), #982, .T. ) ;
#264 = CARTESIAN_POINT ( 'NONE',  ( 1.069669914110086051, 0.7299999999999999822, 2.094669914110091735 ) ) ;
#265 = CARTESIAN_POINT ( 'NONE',  ( 1.599999999999999423, 0.000000000000000000, 2.500000000000000444 ) ) ;
#266 = DIRECTION ( 'NONE',  ( 0.000000000000000000, -0.000000000000000000, -1.000000000000000000 ) ) ;
#267 = AXIS2_PLACEMENT_3D ( 'NONE', #846, #10, #599 ) ;
#268 = CARTESIAN_POINT ( 'NONE',  ( 0.9500000000000025091, -0.02000000000000000042, -1.194999999999999174 ) ) ;
#269 = CARTESIAN_POINT ( 'NONE',  ( -0.3764505405658095105, -0.02000000000000000042, -1.129183121349778496 ) ) ;
#270 = DIRECTION ( 'NONE',  ( -0.000000000000000000, 1.000000000000000000, -0.000000000000000000 ) ) ;
#271 = CARTESIAN_POINT ( 'NONE',  ( 1.500000000000002665, -0.02000000000000000042, -1.744999999999998330 ) ) ;
#272 = CARTESIAN_POINT ( 'NONE',  ( -1.600000000000000755, 0.7500000000000000000, 2.500000000000000444 ) ) ;
#273 = VECTOR ( 'NONE', #394, 1000.000000000000000 ) ;
#274 = LINE ( 'NONE', #810, #462 ) ;
#275 = CARTESIAN_POINT ( 'NONE',  ( 0.9500000000000005107, 0.000000000000000000, 1.195000000000000506 ) ) ;
#276 = FACE_OUTER_BOUND ( 'NONE', #395, .T. ) ;
#277 = CYLINDRICAL_SURFACE ( 'NONE', #134, 0.1249999999999996808 ) ;
#278 = FILL_AREA_STYLE ('',( #1044 ) ) ;
#279 = EDGE_CURVE ( 'NONE', #35, #942, #287, .T. ) ;
#280 = ORIENTED_EDGE ( 'NONE', *, *, #620, .T. ) ;
#281 =( LENGTH_UNIT ( ) NAMED_UNIT ( * ) SI_UNIT ( .MILLI., .METRE. ) );
#282 = LINE ( 'NONE', #103, #610 ) ;
#283 = CIRCLE ( 'NONE', #267, 0.1249999999999996808 ) ;
#284 = VECTOR ( 'NONE', #1033, 1000.000000000000000 ) ;
#285 = ADVANCED_FACE ( 'NONE', ( #206 ), #882, .F. ) ;
#286 = ORIENTED_EDGE ( 'NONE', *, *, #349, .F. ) ;
#287 = LINE ( 'NONE', #733, #136 ) ;
#288 = DIRECTION ( 'NONE',  ( -0.000000000000000000, 1.000000000000000000, -0.000000000000000000 ) ) ;
#289 = MECHANICAL_DESIGN_GEOMETRIC_PRESENTATION_REPRESENTATION (  '', ( #776 ), #911 ) ;
#290 = DIRECTION ( 'NONE',  ( 0.000000000000000000, 1.000000000000000000, 0.000000000000000000 ) ) ;
#291 = ORIENTED_EDGE ( 'NONE', *, *, #866, .T. ) ;
#292 = ADVANCED_FACE ( 'NONE', ( #674 ), #681, .T. ) ;
#293 = CARTESIAN_POINT ( 'NONE',  ( 0.9500000000000030642, -0.02000000000000000042, -1.744999999999999440 ) ) ;
#294 = ORIENTED_EDGE ( 'NONE', *, *, #330, .F. ) ;
#295 = FILL_AREA_STYLE_COLOUR ( '', #872 ) ;
#296 = PLANE ( 'NONE',  #153 ) ;
#297 = DIRECTION ( 'NONE',  ( 1.000000000000000000, 0.000000000000000000, 1.971276677246373097E-15 ) ) ;
#298 = COLOUR_RGB ( '',1.000000000000000000, 1.000000000000000000, 1.000000000000000000 ) ;
#299 = ORIENTED_EDGE ( 'NONE', *, *, #1076, .F. ) ;
#300 = SURFACE_STYLE_USAGE ( .BOTH. , #61 ) ;
#301 = FILL_AREA_STYLE_COLOUR ( '', #151 ) ;
#302 =( NAMED_UNIT ( * ) PLANE_ANGLE_UNIT ( ) SI_UNIT ( $, .RADIAN. ) );
#303 = EDGE_CURVE ( 'NONE', #480, #731, #842, .T. ) ;
#304 = VECTOR ( 'NONE', #45, 1000.000000000000000 ) ;
#305 = CIRCLE ( 'NONE', #955, 0.1249999999999996808 ) ;
#306 = VERTEX_POINT ( 'NONE', #904 ) ;
#307 = DIRECTION ( 'NONE',  ( -0.000000000000000000, 1.000000000000000000, 0.000000000000000000 ) ) ;
#308 = DIRECTION ( 'NONE',  ( 3.942553354492747475E-16, 0.000000000000000000, -1.000000000000000000 ) ) ;
#309 = EDGE_CURVE ( 'NONE', #231, #722, #616, .T. ) ;
#310 = ORIENTED_EDGE ( 'NONE', *, *, #624, .F. ) ;
#311 = DIRECTION ( 'NONE',  ( -7.885106708985491992E-16, 0.000000000000000000, -1.000000000000000000 ) ) ;
#312 = CARTESIAN_POINT ( 'NONE',  ( -0.9500000000000010658, -0.02000000000000000042, 1.745000000000000551 ) ) ;
#313 = ORIENTED_EDGE ( 'NONE', *, *, #503, .T. ) ;
#314 = DIRECTION ( 'NONE',  ( 0.000000000000000000, -1.000000000000000000, 0.000000000000000000 ) ) ;
#315 = VECTOR ( 'NONE', #803, 1000.000000000000000 ) ;
#316 = VERTEX_POINT ( 'NONE', #993 ) ;
#317 = ADVANCED_FACE ( 'NONE', ( #835 ), #828, .F. ) ;
#318 = PLANE ( 'NONE',  #192 ) ;
#319 = ORIENTED_EDGE ( 'NONE', *, *, #443, .F. ) ;
#320 = FACE_OUTER_BOUND ( 'NONE', #98, .T. ) ;
#321 = VECTOR ( 'NONE', #336, 1000.000000000000000 ) ;
#322 = ORIENTED_EDGE ( 'NONE', *, *, #867, .F. ) ;
#323 = DIRECTION ( 'NONE',  ( 1.000000000000000000, 0.000000000000000000, 7.885106708985491992E-16 ) ) ;
#324 = EDGE_CURVE ( 'NONE', #7, #1041, #305, .T. ) ;
#325 = DIRECTION ( 'NONE',  ( 1.000000000000000000, 0.000000000000000000, 0.000000000000000000 ) ) ;
#326 = ORIENTED_EDGE ( 'NONE', *, *, #172, .F. ) ;
#327 = DIRECTION ( 'NONE',  ( 0.000000000000000000, 1.000000000000000000, 0.000000000000000000 ) ) ;
#328 = VERTEX_POINT ( 'NONE', #235 ) ;
#329 = LINE ( 'NONE', #822, #791 ) ;
#330 = EDGE_CURVE ( 'NONE', #1010, #852, #5, .T. ) ;
#331 = EDGE_LOOP ( 'NONE', ( #476, #637, #401, #393 ) ) ;
#332 = CARTESIAN_POINT ( 'NONE',  ( -1.500000000000000888, 0.000000000000000000, 0.6449999999999997957 ) ) ;
#333 = ORIENTED_EDGE ( 'NONE', *, *, #568, .F. ) ;
#334 = VECTOR ( 'NONE', #249, 1000.000000000000000 ) ;
#335 = DIRECTION ( 'NONE',  ( 0.000000000000000000, 1.000000000000000000, 0.000000000000000000 ) ) ;
#336 = DIRECTION ( 'NONE',  ( -3.942553354492742545E-16, -0.000000000000000000, -1.000000000000000000 ) ) ;
#337 = FACE_OUTER_BOUND ( 'NONE', #658, .T. ) ;
#338 = EDGE_CURVE ( 'NONE', #316, #328, #667, .T. ) ;
#339 = EDGE_LOOP ( 'NONE', ( #536, #625, #313, #843 ) ) ;
#340 = ORIENTED_EDGE ( 'NONE', *, *, #554, .F. ) ;
#341 = CLOSED_SHELL ( 'NONE', ( #570, #787, #818, #465, #728, #752, #775 ) ) ;
#342 = DIRECTION ( 'NONE',  ( 0.000000000000000000, -1.000000000000000000, 0.000000000000000000 ) ) ;
#343 = AXIS2_PLACEMENT_3D ( 'NONE', #606, #863, #111 ) ;
#344 = FACE_OUTER_BOUND ( 'NONE', #241, .T. ) ;
#345 = DIRECTION ( 'NONE',  ( 0.000000000000000000, 0.000000000000000000, -1.000000000000000000 ) ) ;
#346 = CARTESIAN_POINT ( 'NONE',  ( 0.9500000000000025091, -0.02000000000000000042, -1.194999999999999174 ) ) ;
#347 = CARTESIAN_POINT ( 'NONE',  ( -1.500000000000000888, -0.02000000000000000042, 1.745000000000000107 ) ) ;
#348 = PLANE ( 'NONE',  #494 ) ;
#349 = EDGE_CURVE ( 'NONE', #567, #1004, #753, .T. ) ;
#350 = ORIENTED_EDGE ( 'NONE', *, *, #338, .F. ) ;
#351 = VECTOR ( 'NONE', #915, 1000.000000000000000 ) ;
#352 = LINE ( 'NONE', #938, #809 ) ;
#353 = EDGE_CURVE ( 'NONE', #1024, #765, #329, .T. ) ;
#354 = CIRCLE ( 'NONE', #690, 0.5500000000000003775 ) ;
#355 = DIRECTION ( 'NONE',  ( 0.000000000000000000, 0.000000000000000000, -1.000000000000000000 ) ) ;
#356 = DIRECTION ( 'NONE',  ( 0.000000000000000000, -1.000000000000000000, 0.000000000000000000 ) ) ;
#357 = CARTESIAN_POINT ( 'NONE',  ( 1.069669914110086051, 0.7299999999999999822, 1.969669914110092179 ) ) ;
#358 = EDGE_CURVE ( 'NONE', #416, #306, #79, .T. ) ;
#359 = CARTESIAN_POINT ( 'NONE',  ( 1.500000000000001776, 0.000000000000000000, -0.6449999999999980194 ) ) ;
#360 = PRESENTATION_STYLE_ASSIGNMENT (( #1039 ) ) ;
#361 = CLOSED_SHELL ( 'NONE', ( #68, #317, #110, #380, #951, #847, #254, #365, #723 ) ) ;
#362 = FILL_AREA_STYLE ('',( #295 ) ) ;
#363 = CARTESIAN_POINT ( 'NONE',  ( -1.500000000000001332, -0.02000000000000000042, -0.6449999999999989075 ) ) ;
#364 = ADVANCED_FACE ( 'NONE', ( #244 ), #575, .F. ) ;
#365 = ADVANCED_FACE ( 'NONE', ( #89 ), #910, .F. ) ;
#366 = DIRECTION ( 'NONE',  ( -0.5735764363510444941, 0.000000000000000000, 0.8191520442889929088 ) ) ;
#367 = EDGE_LOOP ( 'NONE', ( #929, #469, #742, #686 ) ) ;
#368 = PLANE ( 'NONE',  #836 ) ;
#369 = CARTESIAN_POINT ( 'NONE',  ( 1.069669914110086051, 0.7500000000000000000, 2.094669914110091735 ) ) ;
#370 = VECTOR ( 'NONE', #417, 1000.000000000000000 ) ;
#371 = STYLED_ITEM ( 'NONE', ( #360 ), #939 ) ;
#372 = ADVANCED_FACE ( 'NONE', ( #923 ), #167, .F. ) ;
#373 = PLANE ( 'NONE',  #454 ) ;
#374 = ORIENTED_EDGE ( 'NONE', *, *, #990, .F. ) ;
#375 = LINE ( 'NONE', #715, #315 ) ;
#376 = LINE ( 'NONE', #557, #1084 ) ;
#377 = CARTESIAN_POINT ( 'NONE',  ( 1.069669914110086051, 0.7299999999999999822, 1.844669914110092179 ) ) ;
#378 = AXIS2_PLACEMENT_3D ( 'NONE', #522, #618, #952 ) ;
#379 = ORIENTED_EDGE ( 'NONE', *, *, #920, .T. ) ;
#380 = ADVANCED_FACE ( 'NONE', ( #758 ), #318, .F. ) ;
#381 = CARTESIAN_POINT ( 'NONE',  ( 0.9500000000000025091, 0.000000000000000000, -1.194999999999999174 ) ) ;
#382 = DIRECTION ( 'NONE',  ( 0.000000000000000000, 0.000000000000000000, -1.000000000000000000 ) ) ;
#383 = EDGE_LOOP ( 'NONE', ( #448, #1082, #415, #227 ) ) ;
#384 = LINE ( 'NONE', #716, #654 ) ;
#385 = ADVANCED_FACE ( 'NONE', ( #571 ), #931, .T. ) ;
#386 = AXIS2_PLACEMENT_3D ( 'NONE', #523, #535, #266 ) ;
#387 = ORIENTED_EDGE ( 'NONE', *, *, #648, .F. ) ;
#388 = CARTESIAN_POINT ( 'NONE',  ( 1.500000000000000000, -0.02000000000000000042, 1.745000000000000995 ) ) ;
#389 = CARTESIAN_POINT ( 'NONE',  ( 0.9500000000000030642, 0.000000000000000000, -1.744999999999999440 ) ) ;
#390 = DIRECTION ( 'NONE',  ( 0.000000000000000000, 1.000000000000000000, 0.000000000000000000 ) ) ;
#391 = AXIS2_PLACEMENT_3D ( 'NONE', #792, #876, #427 ) ;
#392 = AXIS2_PLACEMENT_3D ( 'NONE', #258, #617, #782 ) ;
#393 = ORIENTED_EDGE ( 'NONE', *, *, #162, .F. ) ;
#394 = DIRECTION ( 'NONE',  ( -1.000000000000000000, -0.000000000000000000, 7.885106708985491006E-16 ) ) ;
#395 = EDGE_LOOP ( 'NONE', ( #82, #649, #912, #669 ) ) ;
#396 = CARTESIAN_POINT ( 'NONE',  ( -0.9500000000000021760, -0.02000000000000000042, -1.744999999999999885 ) ) ;
#397 = EDGE_CURVE ( 'NONE', #1004, #765, #352, .T. ) ;
#398 = VERTEX_POINT ( 'NONE', #94 ) ;
#399 = LINE ( 'NONE', #1029, #587 ) ;
#400 = CARTESIAN_POINT ( 'NONE',  ( 1.599999999999999423, 0.7500000000000000000, 2.500000000000000444 ) ) ;
#401 = ORIENTED_EDGE ( 'NONE', *, *, #798, .F. ) ;
#402 = DIRECTION ( 'NONE',  ( -3.942553354492743531E-16, 0.000000000000000000, -1.000000000000000000 ) ) ;
#403 = UNCERTAINTY_MEASURE_WITH_UNIT (LENGTH_MEASURE( 1.000000000000000082E-05 ), #666, 'distance_accuracy_value', 'NONE');
#404 = VERTEX_POINT ( 'NONE', #179 ) ;
#405 = ADVANCED_FACE ( 'NONE', ( #276 ), #612, .T. ) ;
#406 = DIRECTION ( 'NONE',  ( -7.885106708985485090E-16, 0.000000000000000000, 1.000000000000000000 ) ) ;
#407 = ORIENTED_EDGE ( 'NONE', *, *, #605, .T. ) ;
#408 = PLANE ( 'NONE',  #1077 ) ;
#409 = ORIENTED_EDGE ( 'NONE', *, *, #849, .T. ) ;
#410 = VECTOR ( 'NONE', #19, 1000.000000000000000 ) ;
#411 = APPLICATION_CONTEXT ( 'automotive_design' ) ;
#412 = FILL_AREA_STYLE_COLOUR ( '', #100 ) ;
#413 = ADVANCED_FACE ( 'NONE', ( #700 ), #36, .F. ) ;
#414 = DIRECTION ( 'NONE',  ( 0.000000000000000000, 0.000000000000000000, 1.000000000000000000 ) ) ;
#415 = ORIENTED_EDGE ( 'NONE', *, *, #524, .F. ) ;
#416 = VERTEX_POINT ( 'NONE', #521 ) ;
#417 = DIRECTION ( 'NONE',  ( 1.000000000000000000, -0.000000000000000000, -1.182766006347823897E-15 ) ) ;
#418 = DIRECTION ( 'NONE',  ( -0.000000000000000000, -1.000000000000000000, -0.000000000000000000 ) ) ;
#419 =( NAMED_UNIT ( * ) SI_UNIT ( $, .STERADIAN. ) SOLID_ANGLE_UNIT ( ) );
#420 = ORIENTED_EDGE ( 'NONE', *, *, #16, .T. ) ;
#421 = DIRECTION ( 'NONE',  ( 0.000000000000000000, -1.000000000000000000, 0.000000000000000000 ) ) ;
#422 = EDGE_LOOP ( 'NONE', ( #830, #60, #682, #970 ) ) ;
#423 = STYLED_ITEM ( 'NONE', ( #969 ), #563 ) ;
#424 = DIRECTION ( 'NONE',  ( -0.000000000000000000, 1.000000000000000000, -0.000000000000000000 ) ) ;
#425 = MECHANICAL_DESIGN_GEOMETRIC_PRESENTATION_REPRESENTATION (  '', ( #768 ), #858 ) ;
#426 = DIRECTION ( 'NONE',  ( 3.942553354492747475E-16, 0.000000000000000000, -1.000000000000000000 ) ) ;
#427 = DIRECTION ( 'NONE',  ( 0.000000000000000000, 0.000000000000000000, 1.000000000000000000 ) ) ;
#428 = LINE ( 'NONE', #774, #980 ) ;
#429 = EDGE_LOOP ( 'NONE', ( #490, #220, #544, #751 ) ) ;
#430 = VECTOR ( 'NONE', #26, 1000.000000000000000 ) ;
#431 = LINE ( 'NONE', #25, #971 ) ;
#432 = PLANE ( 'NONE',  #894 ) ;
#433 = EDGE_CURVE ( 'NONE', #859, #574, #509, .T. ) ;
#434 = EDGE_CURVE ( 'NONE', #1041, #7, #738, .T. ) ;
#435 = FACE_OUTER_BOUND ( 'NONE', #918, .T. ) ;
#436 = PLANE ( 'NONE',  #823 ) ;
#437 = DIRECTION ( 'NONE',  ( -0.000000000000000000, 1.000000000000000000, -0.000000000000000000 ) ) ;
#438 = EDGE_CURVE ( 'NONE', #214, #555, #1040, .T. ) ;
#439 = CARTESIAN_POINT ( 'NONE',  ( -0.7154792120088316887, -0.02000000000000000042, -0.6449999999999989075 ) ) ;
#440 = VECTOR ( 'NONE', #297, 1000.000000000000000 ) ;
#441 = CARTESIAN_POINT ( 'NONE',  ( 1.069669914110086051, 0.7500000000000000000, 1.969669914110092179 ) ) ;
#442 = CARTESIAN_POINT ( 'NONE',  ( 0.9500000000000005107, -0.02000000000000000042, 1.195000000000000506 ) ) ;
#443 = EDGE_CURVE ( 'NONE', #762, #96, #1042, .T. ) ;
#444 = AXIS2_PLACEMENT_3D ( 'NONE', #1071, #147, #414 ) ;
#445 = DIRECTION ( 'NONE',  ( -0.000000000000000000, 1.000000000000000000, -0.000000000000000000 ) ) ;
#446 = ADVANCED_FACE ( 'NONE', ( #1037 ), #697, .F. ) ;
#447 = FACE_OUTER_BOUND ( 'NONE', #1079, .T. ) ;
#448 = ORIENTED_EDGE ( 'NONE', *, *, #529, .T. ) ;
#449 = CARTESIAN_POINT ( 'NONE',  ( -1.600000000000000755, 0.7500000000000000000, -2.499999999999999556 ) ) ;
#450 = PLANE ( 'NONE',  #48 ) ;
#451 = CARTESIAN_POINT ( 'NONE',  ( 1.500000000000002665, -0.02000000000000000042, -1.744999999999998330 ) ) ;
#452 = ORIENTED_EDGE ( 'NONE', *, *, #104, .T. ) ;
#453 =( NAMED_UNIT ( * ) PLANE_ANGLE_UNIT ( ) SI_UNIT ( $, .RADIAN. ) );
#454 = AXIS2_PLACEMENT_3D ( 'NONE', #709, #663, #621 ) ;
#455 =( NAMED_UNIT ( * ) SI_UNIT ( $, .STERADIAN. ) SOLID_ANGLE_UNIT ( ) );
#456 = DIRECTION ( 'NONE',  ( 0.000000000000000000, 0.000000000000000000, -1.000000000000000000 ) ) ;
#457 = PRODUCT_DEFINITION_SHAPE ( 'NONE', 'NONE',  #62 ) ;
#458 = VECTOR ( 'NONE', #614, 1000.000000000000000 ) ;
#459 = EDGE_CURVE ( 'NONE', #994, #211, #39, .T. ) ;
#460 = ORIENTED_EDGE ( 'NONE', *, *, #833, .T. ) ;
#461 = CARTESIAN_POINT ( 'NONE',  ( -0.9500000000000011768, -0.02000000000000000042, 0.6449999999999997957 ) ) ;
#462 = VECTOR ( 'NONE', #972, 1000.000000000000000 ) ;
#463 = CARTESIAN_POINT ( 'NONE',  ( 1.500000000000000000, 0.000000000000000000, 1.745000000000000995 ) ) ;
#464 = VERTEX_POINT ( 'NONE', #1026 ) ;
#465 = ADVANCED_FACE ( 'NONE', ( #435 ), #957, .T. ) ;
#466 = SURFACE_STYLE_USAGE ( .BOTH. , #199 ) ;
#467 = SURFACE_STYLE_FILL_AREA ( #128 ) ;
#468 = DIRECTION ( 'NONE',  ( 0.000000000000000000, -1.000000000000000000, 0.000000000000000000 ) ) ;
#469 = ORIENTED_EDGE ( 'NONE', *, *, #187, .T. ) ;
#470 = EDGE_CURVE ( 'NONE', #623, #175, #29, .T. ) ;
#471 = DIRECTION ( 'NONE',  ( 0.000000000000000000, -0.000000000000000000, -1.000000000000000000 ) ) ;
#472 = FILL_AREA_STYLE ('',( #143 ) ) ;
#473 = VECTOR ( 'NONE', #114, 1000.000000000000000 ) ;
#474 = DIRECTION ( 'NONE',  ( -1.000000000000000000, 0.000000000000000000, -7.885106708985487062E-16 ) ) ;
#475 =( GEOMETRIC_REPRESENTATION_CONTEXT ( 3 ) GLOBAL_UNCERTAINTY_ASSIGNED_CONTEXT ( ( #664 ) ) GLOBAL_UNIT_ASSIGNED_CONTEXT ( ( #59, #302, #797 ) ) REPRESENTATION_CONTEXT ( 'NONE', 'WORKASPACE' ) );
#476 = ORIENTED_EDGE ( 'NONE', *, *, #529, .F. ) ;
#477 = PLANE ( 'NONE',  #32 ) ;
#478 = DIRECTION ( 'NONE',  ( 0.000000000000000000, 0.000000000000000000, 1.000000000000000000 ) ) ;
#479 = EDGE_CURVE ( 'NONE', #316, #196, #526, .T. ) ;
#480 = VERTEX_POINT ( 'NONE', #99 ) ;
#481 = FACE_OUTER_BOUND ( 'NONE', #695, .T. ) ;
#482 = VECTOR ( 'NONE', #510, 1000.000000000000000 ) ;
#483 = AXIS2_PLACEMENT_3D ( 'NONE', #154, #485, #1007 ) ;
#484 = ORIENTED_EDGE ( 'NONE', *, *, #309, .T. ) ;
#485 = DIRECTION ( 'NONE',  ( -0.000000000000000000, 1.000000000000000000, -0.000000000000000000 ) ) ;
#486 = EDGE_LOOP ( 'NONE', ( #1030, #319, #995, #684 ) ) ;
#487 = PLANE ( 'NONE',  #185 ) ;
#488 = ORIENTED_EDGE ( 'NONE', *, *, #459, .F. ) ;
#489 = CARTESIAN_POINT ( 'NONE',  ( 1.500000000000002665, 0.000000000000000000, -1.744999999999998330 ) ) ;
#490 = ORIENTED_EDGE ( 'NONE', *, *, #247, .T. ) ;
#491 = DIRECTION ( 'NONE',  ( 0.000000000000000000, -1.000000000000000000, 0.000000000000000000 ) ) ;
#492 =( GEOMETRIC_REPRESENTATION_CONTEXT ( 3 ) GLOBAL_UNCERTAINTY_ASSIGNED_CONTEXT ( ( #820 ) ) GLOBAL_UNIT_ASSIGNED_CONTEXT ( ( #281, #981, #724 ) ) REPRESENTATION_CONTEXT ( 'NONE', 'WORKASPACE' ) );
#493 = EDGE_CURVE ( 'NONE', #942, #245, #869, .T. ) ;
#494 = AXIS2_PLACEMENT_3D ( 'NONE', #528, #789, #871 ) ;
#495 = VERTEX_POINT ( 'NONE', #439 ) ;
#496 = CARTESIAN_POINT ( 'NONE',  ( -0.7154792120088316887, -0.02000000000000000042, -0.6449999999999989075 ) ) ;
#497 = DIRECTION ( 'NONE',  ( -1.000000000000000000, 0.000000000000000000, -3.942553354492743531E-16 ) ) ;
#498 = ORIENTED_EDGE ( 'NONE', *, *, #1045, .F. ) ;
#499 = DIRECTION ( 'NONE',  ( -0.000000000000000000, 1.000000000000000000, 0.000000000000000000 ) ) ;
#500 = VERTEX_POINT ( 'NONE', #692 ) ;
#501 = AXIS2_PLACEMENT_3D ( 'NONE', #1031, #426, #764 ) ;
#502 = DIRECTION ( 'NONE',  ( 0.000000000000000000, 0.000000000000000000, 1.000000000000000000 ) ) ;
#503 = EDGE_CURVE ( 'NONE', #155, #1041, #600, .T. ) ;
#504 = CIRCLE ( 'NONE', #378, 0.5750000000000001776 ) ;
#505 = ORIENTED_EDGE ( 'NONE', *, *, #866, .F. ) ;
#506 = DIRECTION ( 'NONE',  ( 1.000000000000000000, 0.000000000000000000, -1.182766006347824095E-15 ) ) ;
#507 = ORIENTED_EDGE ( 'NONE', *, *, #470, .F. ) ;
#508 = CARTESIAN_POINT ( 'NONE',  ( -0.9500000000000021760, 0.000000000000000000, -1.744999999999999885 ) ) ;
#509 = LINE ( 'NONE', #272, #410 ) ;
#510 = DIRECTION ( 'NONE',  ( -1.000000000000000000, 0.000000000000000000, -1.577021341797098201E-15 ) ) ;
#511 = DIRECTION ( 'NONE',  ( 0.000000000000000000, -0.000000000000000000, -1.000000000000000000 ) ) ;
#512 = ORIENTED_EDGE ( 'NONE', *, *, #1068, .T. ) ;
#513 = AXIS2_PLACEMENT_3D ( 'NONE', #927, #839, #683 ) ;
#514 = CIRCLE ( 'NONE', #513, 0.1249999999999996808 ) ;
#515 = ORIENTED_EDGE ( 'NONE', *, *, #648, .T. ) ;
#516 = DIRECTION ( 'NONE',  ( 0.000000000000000000, 0.000000000000000000, 1.000000000000000000 ) ) ;
#517 = DIRECTION ( 'NONE',  ( -0.5735764363510444941, -0.000000000000000000, 0.8191520442889929088 ) ) ;
#518 = PLANE ( 'NONE',  #573 ) ;
#519 = ORIENTED_EDGE ( 'NONE', *, *, #95, .T. ) ;
#520 = AXIS2_PLACEMENT_3D ( 'NONE', #1066, #307, #848 ) ;
#521 = CARTESIAN_POINT ( 'NONE',  ( -0.7154792120088316887, 0.000000000000000000, -0.6449999999999989075 ) ) ;
#522 = CARTESIAN_POINT ( 'NONE',  ( -0.9500000000000011768, 0.000000000000000000, -1.169999999999998597 ) ) ;
#523 = CARTESIAN_POINT ( 'NONE',  ( 0.9500000000000025091, -0.02000000000000000042, -1.194999999999999174 ) ) ;
#524 = EDGE_CURVE ( 'NONE', #480, #72, #860, .T. ) ;
#525 = DIRECTION ( 'NONE',  ( -0.000000000000000000, 1.000000000000000000, -0.000000000000000000 ) ) ;
#526 = LINE ( 'NONE', #11, #879 ) ;
#527 = LINE ( 'NONE', #359, #482 ) ;
#528 = CARTESIAN_POINT ( 'NONE',  ( -1.500000000000000888, -0.02000000000000000042, 1.745000000000000107 ) ) ;
#529 = EDGE_CURVE ( 'NONE', #731, #464, #431, .T. ) ;
#530 = CARTESIAN_POINT ( 'NONE',  ( 1.069669914110086051, 0.7299999999999999822, 1.969669914110092179 ) ) ;
#531 = ORIENTED_EDGE ( 'NONE', *, *, #163, .F. ) ;
#532 =( GEOMETRIC_REPRESENTATION_CONTEXT ( 3 ) GLOBAL_UNCERTAINTY_ASSIGNED_CONTEXT ( ( #832 ) ) GLOBAL_UNIT_ASSIGNED_CONTEXT ( ( #895, #453, #556 ) ) REPRESENTATION_CONTEXT ( 'NONE', 'WORKASPACE' ) );
#533 = CIRCLE ( 'NONE', #250, 0.5500000000000002665 ) ;
#534 = CARTESIAN_POINT ( 'NONE',  ( 0.9500000000000003997, -0.02000000000000000042, 1.745000000000000773 ) ) ;
#535 = DIRECTION ( 'NONE',  ( 0.000000000000000000, -1.000000000000000000, 0.000000000000000000 ) ) ;
#536 = ORIENTED_EDGE ( 'NONE', *, *, #968, .F. ) ;
#537 = SURFACE_STYLE_FILL_AREA ( #215 ) ;
#538 = EDGE_CURVE ( 'NONE', #223, #567, #205, .T. ) ;
#539 = VECTOR ( 'NONE', #1043, 1000.000000000000000 ) ;
#540 = VECTOR ( 'NONE', #1019, 1000.000000000000000 ) ;
#541 = DIRECTION ( 'NONE',  ( 0.000000000000000000, 0.000000000000000000, -1.000000000000000000 ) ) ;
#542 = LINE ( 'NONE', #389, #440 ) ;
#543 = CARTESIAN_POINT ( 'NONE',  ( 1.069669914110086051, 0.7299999999999999822, 1.844669914110092179 ) ) ;
#544 = ORIENTED_EDGE ( 'NONE', *, *, #163, .T. ) ;
#545 = SURFACE_STYLE_FILL_AREA ( #549 ) ;
#546 = PLANE ( 'NONE',  #1086 ) ;
#547 = PLANE ( 'NONE',  #552 ) ;
#548 = ORIENTED_EDGE ( 'NONE', *, *, #976, .F. ) ;
#549 = FILL_AREA_STYLE ('',( #727 ) ) ;
#550 = VECTOR ( 'NONE', #1018, 1000.000000000000000 ) ;
#551 = DIRECTION ( 'NONE',  ( -1.000000000000000000, -0.000000000000000000, -1.849221438785761469E-15 ) ) ;
#552 = AXIS2_PLACEMENT_3D ( 'NONE', #805, #308, #64 ) ;
#553 = ADVANCED_FACE ( 'NONE', ( #891 ), #368, .F. ) ;
#554 = EDGE_CURVE ( 'NONE', #845, #1004, #375, .T. ) ;
#555 = VERTEX_POINT ( 'NONE', #121 ) ;
#556 =( NAMED_UNIT ( * ) SI_UNIT ( $, .STERADIAN. ) SOLID_ANGLE_UNIT ( ) );
#557 = CARTESIAN_POINT ( 'NONE',  ( 0.9500000000000020650, -0.02000000000000000042, -0.6449999999999989075 ) ) ;
#558 = LINE ( 'NONE', #887, #166 ) ;
#559 = MANIFOLD_SOLID_BREP ( 'Cut-Extrude1', #361 ) ;
#560 = VECTOR ( 'NONE', #406, 1000.000000000000000 ) ;
#561 = EDGE_CURVE ( 'NONE', #802, #845, #50, .T. ) ;
#562 = ORIENTED_EDGE ( 'NONE', *, *, #657, .T. ) ;
#563 = MANIFOLD_SOLID_BREP ( 'Boss-Extrude2[3]', #107 ) ;
#564 = DIRECTION ( 'NONE',  ( -0.000000000000000000, 1.000000000000000000, -0.000000000000000000 ) ) ;
#565 = LINE ( 'NONE', #52, #202 ) ;
#566 = MANIFOLD_SOLID_BREP ( 'Boss-Extrude2[4]', #1020 ) ;
#567 = VERTEX_POINT ( 'NONE', #908 ) ;
#568 = EDGE_CURVE ( 'NONE', #149, #214, #808, .T. ) ;
#569 = DIRECTION ( 'NONE',  ( -1.000000000000000000, 0.000000000000000000, 7.885106708985491992E-16 ) ) ;
#570 = ADVANCED_FACE ( 'NONE', ( #745 ), #477, .F. ) ;
#571 = FACE_OUTER_BOUND ( 'NONE', #1073, .T. ) ;
#572 = ORIENTED_EDGE ( 'NONE', *, *, #588, .F. ) ;
#573 = AXIS2_PLACEMENT_3D ( 'NONE', #113, #345, #964 ) ;
#574 = VERTEX_POINT ( 'NONE', #827 ) ;
#575 = PLANE ( 'NONE',  #74 ) ;
#576 = EDGE_LOOP ( 'NONE', ( #512, #141, #814, #907 ) ) ;
#577 = DIRECTION ( 'NONE',  ( -0.000000000000000000, 1.000000000000000000, 0.000000000000000000 ) ) ;
#578 = CLOSED_SHELL ( 'NONE', ( #446, #880, #285, #263, #739, #1083 ) ) ;
#579 = ORIENTED_EDGE ( 'NONE', *, *, #538, .F. ) ;
#580 = DIRECTION ( 'NONE',  ( -0.000000000000000000, 1.000000000000000000, -0.000000000000000000 ) ) ;
#581 = ORIENTED_EDGE ( 'NONE', *, *, #639, .T. ) ;
#582 = DIRECTION ( 'NONE',  ( -0.000000000000000000, 1.000000000000000000, -0.000000000000000000 ) ) ;
#583 = ORIENTED_EDGE ( 'NONE', *, *, #960, .F. ) ;
#584 = DIRECTION ( 'NONE',  ( -0.000000000000000000, 1.000000000000000000, -0.000000000000000000 ) ) ;
#585 = ORIENTED_EDGE ( 'NONE', *, *, #24, .F. ) ;
#586 = DIRECTION ( 'NONE',  ( 0.000000000000000000, -0.000000000000000000, -1.000000000000000000 ) ) ;
#587 = VECTOR ( 'NONE', #948, 1000.000000000000000 ) ;
#588 = EDGE_CURVE ( 'NONE', #91, #495, #67, .T. ) ;
#589 = AXIS2_PLACEMENT_3D ( 'NONE', #442, #629, #38 ) ;
#590 = ORIENTED_EDGE ( 'NONE', *, *, #53, .T. ) ;
#591 = CARTESIAN_POINT ( 'NONE',  ( -1.500000000000000888, -0.02000000000000000042, 1.745000000000000107 ) ) ;
#592 = DIRECTION ( 'NONE',  ( 0.000000000000000000, 0.000000000000000000, -1.000000000000000000 ) ) ;
#593 = EDGE_LOOP ( 'NONE', ( #611, #387, #87, #177 ) ) ;
#594 = DIRECTION ( 'NONE',  ( 0.000000000000000000, 1.000000000000000000, 0.000000000000000000 ) ) ;
#595 = MANIFOLD_SOLID_BREP ( 'Boss-Extrude2[1]', #578 ) ;
#596 = AXIS2_PLACEMENT_3D ( 'NONE', #441, #861, #1021 ) ;
#597 = ORIENTED_EDGE ( 'NONE', *, *, #279, .F. ) ;
#598 = AXIS2_PLACEMENT_3D ( 'NONE', #85, #741, #660 ) ;
#599 = DIRECTION ( 'NONE',  ( 0.000000000000000000, 0.000000000000000000, 1.000000000000000000 ) ) ;
#600 = LINE ( 'NONE', #264, #696 ) ;
#601 = CARTESIAN_POINT ( 'NONE',  ( -1.600000000000000755, 0.7500000000000000000, -2.499999999999999556 ) ) ;
#602 = FACE_OUTER_BOUND ( 'NONE', #777, .T. ) ;
#603 = ORIENTED_EDGE ( 'NONE', *, *, #538, .T. ) ;
#604 = CARTESIAN_POINT ( 'NONE',  ( -1.600000000000000755, 0.000000000000000000, 2.500000000000000444 ) ) ;
#605 = EDGE_CURVE ( 'NONE', #306, #93, #399, .T. ) ;
#606 = CARTESIAN_POINT ( 'NONE',  ( 1.069669914110086051, 0.7500000000000000000, 1.969669914110092179 ) ) ;
#607 = EDGE_CURVE ( 'NONE', #574, #96, #862, .T. ) ;
#608 = CARTESIAN_POINT ( 'NONE',  ( -0.9500000000000021760, 0.000000000000000000, -1.744999999999999885 ) ) ;
#609 = VECTOR ( 'NONE', #246, 1000.000000000000000 ) ;
#610 = VECTOR ( 'NONE', #437, 1000.000000000000000 ) ;
#611 = ORIENTED_EDGE ( 'NONE', *, *, #798, .T. ) ;
#612 = CYLINDRICAL_SURFACE ( 'NONE', #896, 0.5500000000000002665 ) ;
#613 = LINE ( 'NONE', #347, #430 ) ;
#614 = DIRECTION ( 'NONE',  ( -0.000000000000000000, 1.000000000000000000, -0.000000000000000000 ) ) ;
#615 = LINE ( 'NONE', #853, #965 ) ;
#616 = CIRCLE ( 'NONE', #598, 0.1249999999999996808 ) ;
#617 = DIRECTION ( 'NONE',  ( -0.000000000000000000, 1.000000000000000000, -0.000000000000000000 ) ) ;
#618 = DIRECTION ( 'NONE',  ( 0.000000000000000000, -1.000000000000000000, 0.000000000000000000 ) ) ;
#619 = FACE_OUTER_BOUND ( 'NONE', #486, .T. ) ;
#620 = EDGE_CURVE ( 'NONE', #245, #574, #28, .T. ) ;
#621 = DIRECTION ( 'NONE',  ( 0.000000000000000000, 0.000000000000000000, 1.000000000000000000 ) ) ;
#622 = DIRECTION ( 'NONE',  ( 0.000000000000000000, 0.000000000000000000, -1.000000000000000000 ) ) ;
#623 = VERTEX_POINT ( 'NONE', #18 ) ;
#624 = EDGE_CURVE ( 'NONE', #93, #43, #943, .T. ) ;
#625 = ORIENTED_EDGE ( 'NONE', *, *, #759, .F. ) ;
#626 = CIRCLE ( 'NONE', #767, 0.1249999999999996808 ) ;
#627 = SURFACE_STYLE_USAGE ( .BOTH. , #1053 ) ;
#628 = VECTOR ( 'NONE', #382, 1000.000000000000000 ) ;
#629 = DIRECTION ( 'NONE',  ( -0.000000000000000000, 1.000000000000000000, -0.000000000000000000 ) ) ;
#630 = PLANE ( 'NONE',  #703 ) ;
#631 = VERTEX_POINT ( 'NONE', #763 ) ;
#632 = CARTESIAN_POINT ( 'NONE',  ( 1.500000000000000000, -0.02000000000000000042, 1.745000000000000995 ) ) ;
#633 = VECTOR ( 'NONE', #216, 1000.000000000000000 ) ;
#634 = AXIS2_PLACEMENT_3D ( 'NONE', #817, #239, #69 ) ;
#635 = CARTESIAN_POINT ( 'NONE',  ( -0.9500000000000016209, -0.02000000000000000042, -0.6449999999999993516 ) ) ;
#636 = SURFACE_STYLE_USAGE ( .BOTH. , #661 ) ;
#637 = ORIENTED_EDGE ( 'NONE', *, *, #833, .F. ) ;
#638 = CARTESIAN_POINT ( 'NONE',  ( 0.9500000000000007327, 0.000000000000000000, 0.6450000000000001288 ) ) ;
#639 = EDGE_CURVE ( 'NONE', #236, #245, #184, .T. ) ;
#640 = CARTESIAN_POINT ( 'NONE',  ( 1.069669914110086051, 0.7500000000000000000, 1.844669914110092179 ) ) ;
#641 = VERTEX_POINT ( 'NONE', #271 ) ;
#642 = SURFACE_STYLE_FILL_AREA ( #362 ) ;
#643 = ADVANCED_BREP_SHAPE_REPRESENTATION ( 'SiT1602BI-32-33E-33.333000', ( #595, #226, #563, #566, #559, #939, #47 ), #475 ) ;
#644 = PRESENTATION_LAYER_ASSIGNMENT (  '', '', ( #423 ) ) ;
#645 = CARTESIAN_POINT ( 'NONE',  ( 0.000000000000000000, 0.000000000000000000, 0.000000000000000000 ) ) ;
#646 = CARTESIAN_POINT ( 'NONE',  ( -1.600000000000000755, 0.7500000000000000000, -2.499999999999999556 ) ) ;
#647 = MECHANICAL_DESIGN_GEOMETRIC_PRESENTATION_REPRESENTATION (  '', ( #371 ), #925 ) ;
#648 = EDGE_CURVE ( 'NONE', #196, #631, #615, .T. ) ;
#649 = ORIENTED_EDGE ( 'NONE', *, *, #888, .F. ) ;
#650 = PRESENTATION_STYLE_ASSIGNMENT (( #300 ) ) ;
#651 =( LENGTH_UNIT ( ) NAMED_UNIT ( * ) SI_UNIT ( .MILLI., .METRE. ) );
#652 = CIRCLE ( 'NONE', #391, 0.5750000000000001776 ) ;
#653 = LINE ( 'NONE', #129, #1014 ) ;
#654 = VECTOR ( 'NONE', #541, 1000.000000000000000 ) ;
#655 = EDGE_CURVE ( 'NONE', #641, #1010, #256, .T. ) ;
#656 = AXIS2_PLACEMENT_3D ( 'NONE', #30, #260, #355 ) ;
#657 = EDGE_CURVE ( 'NONE', #72, #316, #178, .T. ) ;
#658 = EDGE_LOOP ( 'NONE', ( #374, #125, #719, #488 ) ) ;
#659 = FILL_AREA_STYLE ('',( #412 ) ) ;
#660 = DIRECTION ( 'NONE',  ( 0.000000000000000000, 0.000000000000000000, 1.000000000000000000 ) ) ;
#661 = SURFACE_SIDE_STYLE ('',( #1067 ) ) ;
#662 = ORIENTED_EDGE ( 'NONE', *, *, #397, .T. ) ;
#663 = DIRECTION ( 'NONE',  ( -0.000000000000000000, 1.000000000000000000, 0.000000000000000000 ) ) ;
#664 = UNCERTAINTY_MEASURE_WITH_UNIT (LENGTH_MEASURE( 1.000000000000000082E-05 ), #59, 'distance_accuracy_value', 'NONE');
#665 = ORIENTED_EDGE ( 'NONE', *, *, #353, .F. ) ;
#666 =( LENGTH_UNIT ( ) NAMED_UNIT ( * ) SI_UNIT ( .MILLI., .METRE. ) );
#667 = LINE ( 'NONE', #737, #174 ) ;
#668 = VECTOR ( 'NONE', #424, 1000.000000000000000 ) ;
#669 = ORIENTED_EDGE ( 'NONE', *, *, #172, .T. ) ;
#670 = LINE ( 'NONE', #396, #101 ) ;
#671 = ORIENTED_EDGE ( 'NONE', *, *, #824, .F. ) ;
#672 =( LENGTH_UNIT ( ) NAMED_UNIT ( * ) SI_UNIT ( .MILLI., .METRE. ) );
#673 = EDGE_CURVE ( 'NONE', #722, #231, #626, .T. ) ;
#674 = FACE_OUTER_BOUND ( 'NONE', #49, .T. ) ;
#675 = ORIENTED_EDGE ( 'NONE', *, *, #1045, .T. ) ;
#676 = CARTESIAN_POINT ( 'NONE',  ( -0.9500000000000021760, -0.02000000000000000042, -1.744999999999999885 ) ) ;
#677 = VECTOR ( 'NONE', #106, 1000.000000000000000 ) ;
#678 = UNCERTAINTY_MEASURE_WITH_UNIT (LENGTH_MEASURE( 1.000000000000000082E-05 ), #811, 'distance_accuracy_value', 'NONE');
#679 = ORIENTED_EDGE ( 'NONE', *, *, #95, .F. ) ;
#680 = EDGE_CURVE ( 'NONE', #211, #994, #283, .T. ) ;
#681 = CYLINDRICAL_SURFACE ( 'NONE', #444, 0.1249999999999996808 ) ;
#682 = ORIENTED_EDGE ( 'NONE', *, *, #1055, .F. ) ;
#683 = DIRECTION ( 'NONE',  ( 0.000000000000000000, 0.000000000000000000, 1.000000000000000000 ) ) ;
#684 = ORIENTED_EDGE ( 'NONE', *, *, #433, .T. ) ;
#685 = CARTESIAN_POINT ( 'NONE',  ( -1.600000000000000755, 0.7500000000000000000, 2.500000000000000444 ) ) ;
#686 = ORIENTED_EDGE ( 'NONE', *, *, #568, .T. ) ;
#687 = CYLINDRICAL_SURFACE ( 'NONE', #748, 0.1249999999999996808 ) ;
#688 = ADVANCED_FACE ( 'NONE', ( #481 ), #373, .F. ) ;
#689 = PRESENTATION_LAYER_ASSIGNMENT (  '', '', ( #747 ) ) ;
#690 = AXIS2_PLACEMENT_3D ( 'NONE', #31, #356, #456 ) ;
#691 = ORIENTED_EDGE ( 'NONE', *, *, #433, .F. ) ;
#692 = CARTESIAN_POINT ( 'NONE',  ( 0.9500000000000030642, 0.000000000000000000, -1.744999999999999440 ) ) ;
#693 = LINE ( 'NONE', #534, #539 ) ;
#694 = CARTESIAN_POINT ( 'NONE',  ( 1.069669914110086051, 0.7299999999999999822, 1.969669914110092179 ) ) ;
#695 = EDGE_LOOP ( 'NONE', ( #825, #590, #116, #999 ) ) ;
#696 = VECTOR ( 'NONE', #945, 1000.000000000000000 ) ;
#697 = PLANE ( 'NONE',  #501 ) ;
#698 = CARTESIAN_POINT ( 'NONE',  ( -0.7154792120088316887, -0.02000000000000000042, -0.6449999999999989075 ) ) ;
#699 = CARTESIAN_POINT ( 'NONE',  ( -0.3764505405658095105, 0.000000000000000000, -1.129183121349778496 ) ) ;
#700 = FACE_OUTER_BOUND ( 'NONE', #1015, .T. ) ;
#701 = DIRECTION ( 'NONE',  ( -0.000000000000000000, 1.000000000000000000, -0.000000000000000000 ) ) ;
#702 = LINE ( 'NONE', #1047, #284 ) ;
#703 = AXIS2_PLACEMENT_3D ( 'NONE', #913, #77, #586 ) ;
#704 = PRESENTATION_LAYER_ASSIGNMENT (  '', '', ( #371 ) ) ;
#705 = CARTESIAN_POINT ( 'NONE',  ( -1.600000000000000755, 0.7500000000000000000, -2.499999999999999556 ) ) ;
#706 = EDGE_CURVE ( 'NONE', #1052, #155, #903, .T. ) ;
#707 = CARTESIAN_POINT ( 'NONE',  ( 1.069669914110086051, 0.7500000000000000000, 1.969669914110092179 ) ) ;
#708 = DIRECTION ( 'NONE',  ( 1.577021341797098398E-15, 0.000000000000000000, -1.000000000000000000 ) ) ;
#709 = CARTESIAN_POINT ( 'NONE',  ( 0.9500000000000005107, -0.02000000000000000042, 1.195000000000000506 ) ) ;
#710 = VECTOR ( 'NONE', #418, 1000.000000000000000 ) ;
#711 = DIRECTION ( 'NONE',  ( -0.000000000000000000, 1.000000000000000000, -0.000000000000000000 ) ) ;
#712 = CARTESIAN_POINT ( 'NONE',  ( 1.069669914110086051, 0.7299999999999999822, 1.969669914110092179 ) ) ;
#713 = ADVANCED_FACE ( 'NONE', ( #974 ), #198, .F. ) ;
#714 = PLANE ( 'NONE',  #83 ) ;
#715 = CARTESIAN_POINT ( 'NONE',  ( 1.500000000000000000, -0.02000000000000000042, 1.745000000000000995 ) ) ;
#716 = CARTESIAN_POINT ( 'NONE',  ( 1.599999999999999423, 0.7500000000000000000, 2.500000000000000444 ) ) ;
#717 = DIRECTION ( 'NONE',  ( -0.000000000000000000, 1.000000000000000000, -0.000000000000000000 ) ) ;
#718 = FACE_OUTER_BOUND ( 'NONE', #985, .T. ) ;
#719 = ORIENTED_EDGE ( 'NONE', *, *, #824, .T. ) ;
#720 = FILL_AREA_STYLE_COLOUR ( '', #118 ) ;
#721 = SURFACE_STYLE_USAGE ( .BOTH. , #977 ) ;
#722 = VERTEX_POINT ( 'NONE', #543 ) ;
#723 = ADVANCED_FACE ( 'NONE', ( #71 ), #884, .T. ) ;
#724 =( NAMED_UNIT ( * ) SI_UNIT ( $, .STERADIAN. ) SOLID_ANGLE_UNIT ( ) );
#725 = CARTESIAN_POINT ( 'NONE',  ( -0.9500000000000021760, -0.02000000000000000042, -1.744999999999999885 ) ) ;
#726 = EDGE_LOOP ( 'NONE', ( #956, #597, #158, #812 ) ) ;
#727 = FILL_AREA_STYLE_COLOUR ( '', #298 ) ;
#728 = ADVANCED_FACE ( 'NONE', ( #790 ), #714, .F. ) ;
#729 = CARTESIAN_POINT ( 'NONE',  ( -1.600000000000000755, 0.000000000000000000, -2.499999999999999556 ) ) ;
#730 = CARTESIAN_POINT ( 'NONE',  ( 1.500000000000002665, 0.000000000000000000, -1.744999999999998330 ) ) ;
#731 = VERTEX_POINT ( 'NONE', #877 ) ;
#732 = PRESENTATION_LAYER_ASSIGNMENT (  '', '', ( #1035 ) ) ;
#733 = CARTESIAN_POINT ( 'NONE',  ( 1.599999999999999423, 0.7500000000000000000, -2.499999999999999556 ) ) ;
#734 = LINE ( 'NONE', #1064, #1062 ) ;
#735 = VECTOR ( 'NONE', #582, 1000.000000000000000 ) ;
#736 = EDGE_LOOP ( 'NONE', ( #826, #255 ) ) ;
#737 = CARTESIAN_POINT ( 'NONE',  ( -1.500000000000000888, -0.02000000000000000042, 0.6449999999999997957 ) ) ;
#738 = CIRCLE ( 'NONE', #259, 0.1249999999999996808 ) ;
#739 = ADVANCED_FACE ( 'NONE', ( #718 ), #630, .T. ) ;
#740 = EDGE_LOOP ( 'NONE', ( #935, #498, #299, #806 ) ) ;
#741 = DIRECTION ( 'NONE',  ( 0.000000000000000000, 1.000000000000000000, 0.000000000000000000 ) ) ;
#742 = ORIENTED_EDGE ( 'NONE', *, *, #1076, .T. ) ;
#743 = CARTESIAN_POINT ( 'NONE',  ( 0.9500000000000003997, 0.000000000000000000, 1.745000000000000773 ) ) ;
#744 = EDGE_LOOP ( 'NONE', ( #80, #1069, #1008, #1075 ) ) ;
#745 = FACE_OUTER_BOUND ( 'NONE', #17, .T. ) ;
#746 = CARTESIAN_POINT ( 'NONE',  ( 1.500000000000000444, -0.02000000000000000042, 0.6450000000000005729 ) ) ;
#747 = STYLED_ITEM ( 'NONE', ( #152 ), #595 ) ;
#748 = AXIS2_PLACEMENT_3D ( 'NONE', #694, #594, #933 ) ;
#749 = ORIENTED_EDGE ( 'NONE', *, *, #353, .T. ) ;
#750 = CARTESIAN_POINT ( 'NONE',  ( 1.500000000000000444, -0.02000000000000000042, 0.6450000000000005729 ) ) ;
#751 = ORIENTED_EDGE ( 'NONE', *, *, #883, .T. ) ;
#752 = ADVANCED_FACE ( 'NONE', ( #1009 ), #8, .F. ) ;
#753 = LINE ( 'NONE', #229, #986 ) ;
#754 = PRESENTATION_LAYER_ASSIGNMENT (  '', '', ( #776 ) ) ;
#755 = ORIENTED_EDGE ( 'NONE', *, *, #493, .F. ) ;
#756 = DIRECTION ( 'NONE',  ( 0.000000000000000000, 0.000000000000000000, 1.000000000000000000 ) ) ;
#757 = ORIENTED_EDGE ( 'NONE', *, *, #180, .F. ) ;
#758 = FACE_OUTER_BOUND ( 'NONE', #120, .T. ) ;
#759 = EDGE_CURVE ( 'NONE', #155, #1052, #514, .T. ) ;
#760 = ORIENTED_EDGE ( 'NONE', *, *, #349, .T. ) ;
#761 = LINE ( 'NONE', #332, #609 ) ;
#762 = VERTEX_POINT ( 'NONE', #169 ) ;
#763 = CARTESIAN_POINT ( 'NONE',  ( -0.9500000000000011768, 0.000000000000000000, 0.6449999999999997957 ) ) ;
#764 = DIRECTION ( 'NONE',  ( -1.000000000000000000, 0.000000000000000000, -3.942553354492747475E-16 ) ) ;
#765 = VERTEX_POINT ( 'NONE', #743 ) ;
#766 = CARTESIAN_POINT ( 'NONE',  ( 1.500000000000000000, -0.02000000000000000042, 1.745000000000000995 ) ) ;
#767 = AXIS2_PLACEMENT_3D ( 'NONE', #930, #936, #502 ) ;
#768 = STYLED_ITEM ( 'NONE', ( #892 ), #643 ) ;
#769 = ORIENTED_EDGE ( 'NONE', *, *, #309, .F. ) ;
#770 =( NAMED_UNIT ( * ) SI_UNIT ( $, .STERADIAN. ) SOLID_ANGLE_UNIT ( ) );
#771 = EDGE_LOOP ( 'NONE', ( #548, #834, #294, #944 ) ) ;
#772 = CARTESIAN_POINT ( 'NONE',  ( -1.600000000000000755, 0.000000000000000000, -2.499999999999999556 ) ) ;
#773 = CARTESIAN_POINT ( 'NONE',  ( 1.500000000000001776, -0.02000000000000000042, -0.6449999999999980194 ) ) ;
#774 = CARTESIAN_POINT ( 'NONE',  ( 1.069669914110086051, 0.7299999999999999822, 1.844669914110092179 ) ) ;
#775 = ADVANCED_FACE ( 'NONE', ( #602 ), #487, .T. ) ;
#776 = STYLED_ITEM ( 'NONE', ( #131 ), #226 ) ;
#777 = EDGE_LOOP ( 'NONE', ( #164, #1006, #679, #310, #902 ) ) ;
#778 = DIRECTION ( 'NONE',  ( 1.000000000000000000, 0.000000000000000000, 0.000000000000000000 ) ) ;
#779 = DIRECTION ( 'NONE',  ( 1.000000000000000000, 0.000000000000000000, -0.000000000000000000 ) ) ;
#780 =( NAMED_UNIT ( * ) SI_UNIT ( $, .STERADIAN. ) SOLID_ANGLE_UNIT ( ) );
#781 = CARTESIAN_POINT ( 'NONE',  ( -1.600000000000000755, 0.000000000000000000, 2.500000000000000444 ) ) ;
#782 = DIRECTION ( 'NONE',  ( 0.000000000000000000, 0.000000000000000000, 1.000000000000000000 ) ) ;
#783 = LINE ( 'NONE', #698, #257 ) ;
#784 = DIRECTION ( 'NONE',  ( -0.000000000000000000, 1.000000000000000000, -0.000000000000000000 ) ) ;
#785 = VECTOR ( 'NONE', #327, 1000.000000000000000 ) ;
#786 = DIRECTION ( 'NONE',  ( -1.000000000000000000, -0.000000000000000000, -3.942553354492746489E-16 ) ) ;
#787 = ADVANCED_FACE ( 'NONE', ( #161 ), #408, .F. ) ;
#788 = CARTESIAN_POINT ( 'NONE',  ( -1.500000000000000888, -0.02000000000000000042, 1.745000000000000107 ) ) ;
#789 = DIRECTION ( 'NONE',  ( 1.000000000000000000, 0.000000000000000000, 0.000000000000000000 ) ) ;
#790 = FACE_OUTER_BOUND ( 'NONE', #991, .T. ) ;
#791 = VECTOR ( 'NONE', #75, 1000.000000000000000 ) ;
#792 = CARTESIAN_POINT ( 'NONE',  ( -0.9500000000000011768, -0.02000000000000000042, -1.169999999999998597 ) ) ;
#793 =( NAMED_UNIT ( * ) PLANE_ANGLE_UNIT ( ) SI_UNIT ( $, .RADIAN. ) );
#794 = CARTESIAN_POINT ( 'NONE',  ( 1.069669914110086051, 0.7299999999999999822, 1.969669914110092179 ) ) ;
#795 = ORIENTED_EDGE ( 'NONE', *, *, #561, .F. ) ;
#796 = FACE_OUTER_BOUND ( 'NONE', #243, .T. ) ;
#797 =( NAMED_UNIT ( * ) SI_UNIT ( $, .STERADIAN. ) SOLID_ANGLE_UNIT ( ) );
#798 = EDGE_CURVE ( 'NONE', #328, #631, #761, .T. ) ;
#799 = ADVANCED_FACE ( 'NONE', ( #337 ), #687, .T. ) ;
#800 = CARTESIAN_POINT ( 'NONE',  ( -0.7154792120088316887, -0.02000000000000000042, -0.6449999999999989075 ) ) ;
#801 = MECHANICAL_DESIGN_GEOMETRIC_PRESENTATION_REPRESENTATION (  '', ( #747 ), #816 ) ;
#802 = VERTEX_POINT ( 'NONE', #750 ) ;
#803 = DIRECTION ( 'NONE',  ( -0.000000000000000000, 1.000000000000000000, -0.000000000000000000 ) ) ;
#804 = CARTESIAN_POINT ( 'NONE',  ( 1.069669914110086051, 0.7299999999999999822, 2.094669914110091735 ) ) ;
#805 = CARTESIAN_POINT ( 'NONE',  ( 0.9500000000000003997, -0.02000000000000000042, 1.745000000000000773 ) ) ;
#806 = ORIENTED_EDGE ( 'NONE', *, *, #655, .T. ) ;
#807 = CLOSED_SHELL ( 'NONE', ( #292, #799, #413, #88 ) ) ;
#808 = LINE ( 'NONE', #138, #351 ) ;
#809 = VECTOR ( 'NONE', #786, 1000.000000000000000 ) ;
#810 = CARTESIAN_POINT ( 'NONE',  ( -1.500000000000000888, 0.000000000000000000, 1.745000000000000107 ) ) ;
#811 =( LENGTH_UNIT ( ) NAMED_UNIT ( * ) SI_UNIT ( .MILLI., .METRE. ) );
#812 = ORIENTED_EDGE ( 'NONE', *, *, #443, .T. ) ;
#813 = DIRECTION ( 'NONE',  ( 0.000000000000000000, -0.000000000000000000, -1.000000000000000000 ) ) ;
#814 = ORIENTED_EDGE ( 'NONE', *, *, #187, .F. ) ;
#815 =( NAMED_UNIT ( * ) PLANE_ANGLE_UNIT ( ) SI_UNIT ( $, .RADIAN. ) );
#816 =( GEOMETRIC_REPRESENTATION_CONTEXT ( 3 ) GLOBAL_UNCERTAINTY_ASSIGNED_CONTEXT ( ( #1081 ) ) GLOBAL_UNIT_ASSIGNED_CONTEXT ( ( #672, #992, #770 ) ) REPRESENTATION_CONTEXT ( 'NONE', 'WORKASPACE' ) );
#817 = CARTESIAN_POINT ( 'NONE',  ( -1.500000000000000888, -0.02000000000000000042, 0.6449999999999997957 ) ) ;
#818 = ADVANCED_FACE ( 'NONE', ( #320 ), #176, .F. ) ;
#819 = CARTESIAN_POINT ( 'NONE',  ( 1.599999999999999423, 0.000000000000000000, 2.500000000000000444 ) ) ;
#820 = UNCERTAINTY_MEASURE_WITH_UNIT (LENGTH_MEASURE( 1.000000000000000082E-05 ), #281, 'distance_accuracy_value', 'NONE');
#821 = ORIENTED_EDGE ( 'NONE', *, *, #397, .F. ) ;
#822 = CARTESIAN_POINT ( 'NONE',  ( 0.9500000000000003997, -0.02000000000000000042, 1.745000000000000773 ) ) ;
#823 = AXIS2_PLACEMENT_3D ( 'NONE', #181, #708, #1038 ) ;
#824 = EDGE_CURVE ( 'NONE', #231, #211, #851, .T. ) ;
#825 = ORIENTED_EDGE ( 'NONE', *, *, #867, .T. ) ;
#826 = ORIENTED_EDGE ( 'NONE', *, *, #759, .T. ) ;
#827 = CARTESIAN_POINT ( 'NONE',  ( -1.600000000000000755, 0.000000000000000000, 2.500000000000000444 ) ) ;
#828 = PLANE ( 'NONE',  #209 ) ;
#829 = SHAPE_DEFINITION_REPRESENTATION ( #457, #643 ) ;
#830 = ORIENTED_EDGE ( 'NONE', *, *, #493, .T. ) ;
#831 = FACE_BOUND ( 'NONE', #979, .T. ) ;
#832 = UNCERTAINTY_MEASURE_WITH_UNIT (LENGTH_MEASURE( 1.000000000000000082E-05 ), #895, 'distance_accuracy_value', 'NONE');
#833 = EDGE_CURVE ( 'NONE', #631, #731, #533, .T. ) ;
#834 = ORIENTED_EDGE ( 'NONE', *, *, #148, .F. ) ;
#835 = FACE_OUTER_BOUND ( 'NONE', #726, .T. ) ;
#836 = AXIS2_PLACEMENT_3D ( 'NONE', #40, #1056, #57 ) ;
#837 = COLOUR_RGB ( '',1.000000000000000000, 1.000000000000000000, 1.000000000000000000 ) ;
#838 = ORIENTED_EDGE ( 'NONE', *, *, #122, .T. ) ;
#839 = DIRECTION ( 'NONE',  ( 0.000000000000000000, 1.000000000000000000, 0.000000000000000000 ) ) ;
#840 = ORIENTED_EDGE ( 'NONE', *, *, #554, .T. ) ;
#841 = DIRECTION ( 'NONE',  ( -0.5735764363510444941, -0.000000000000000000, 0.8191520442889929088 ) ) ;
#842 = LINE ( 'NONE', #312, #934 ) ;
#843 = ORIENTED_EDGE ( 'NONE', *, *, #434, .T. ) ;
#844 = AXIS2_PLACEMENT_3D ( 'NONE', #224, #221, #1050 ) ;
#845 = VERTEX_POINT ( 'NONE', #766 ) ;
#846 = CARTESIAN_POINT ( 'NONE',  ( 1.069669914110086051, 0.7500000000000000000, 1.969669914110092179 ) ) ;
#847 = ADVANCED_FACE ( 'NONE', ( #831, #15 ), #941, .F. ) ;
#848 = DIRECTION ( 'NONE',  ( 0.000000000000000000, 0.000000000000000000, 1.000000000000000000 ) ) ;
#849 = EDGE_CURVE ( 'NONE', #175, #43, #670, .T. ) ;
#850 = ORIENTED_EDGE ( 'NONE', *, *, #459, .T. ) ;
#851 = LINE ( 'NONE', #2, #785 ) ;
#852 = VERTEX_POINT ( 'NONE', #1000 ) ;
#853 = CARTESIAN_POINT ( 'NONE',  ( -0.9500000000000011768, -0.02000000000000000042, 0.6449999999999997957 ) ) ;
#854 = DIRECTION ( 'NONE',  ( 0.000000000000000000, -0.000000000000000000, 1.000000000000000000 ) ) ;
#855 = CARTESIAN_POINT ( 'NONE',  ( 1.069669914110086051, 0.7299999999999999822, 2.094669914110091735 ) ) ;
#856 =( LENGTH_UNIT ( ) NAMED_UNIT ( * ) SI_UNIT ( .MILLI., .METRE. ) );
#857 = AXIS2_PLACEMENT_3D ( 'NONE', #530, #390, #874 ) ;
#858 =( GEOMETRIC_REPRESENTATION_CONTEXT ( 3 ) GLOBAL_UNCERTAINTY_ASSIGNED_CONTEXT ( ( #678 ) ) GLOBAL_UNIT_ASSIGNED_CONTEXT ( ( #811, #1072, #419 ) ) REPRESENTATION_CONTEXT ( 'NONE', 'WORKASPACE' ) );
#859 = VERTEX_POINT ( 'NONE', #237 ) ;
#860 = LINE ( 'NONE', #186, #677 ) ;
#861 = DIRECTION ( 'NONE',  ( 0.000000000000000000, 1.000000000000000000, 0.000000000000000000 ) ) ;
#862 = LINE ( 'NONE', #781, #334 ) ;
#863 = DIRECTION ( 'NONE',  ( 0.000000000000000000, 1.000000000000000000, 0.000000000000000000 ) ) ;
#864 = CARTESIAN_POINT ( 'NONE',  ( 1.069669914110086051, 0.7500000000000000000, 1.844669914110092179 ) ) ;
#865 = SURFACE_SIDE_STYLE ('',( #109 ) ) ;
#866 = EDGE_CURVE ( 'NONE', #398, #223, #1005, .T. ) ;
#867 = EDGE_CURVE ( 'NONE', #1024, #398, #33, .T. ) ;
#868 = CARTESIAN_POINT ( 'NONE',  ( 1.500000000000002665, -0.02000000000000000042, -1.744999999999998330 ) ) ;
#869 = LINE ( 'NONE', #772, #540 ) ;
#870 = DIRECTION ( 'NONE',  ( 0.000000000000000000, 0.000000000000000000, 1.000000000000000000 ) ) ;
#871 = DIRECTION ( 'NONE',  ( 0.000000000000000000, 0.000000000000000000, -1.000000000000000000 ) ) ;
#872 = COLOUR_RGB ( '',1.000000000000000000, 1.000000000000000000, 1.000000000000000000 ) ;
#873 = AXIS2_PLACEMENT_3D ( 'NONE', #275, #22, #117 ) ;
#874 = DIRECTION ( 'NONE',  ( 0.000000000000000000, -0.000000000000000000, 1.000000000000000000 ) ) ;
#875 = VERTEX_POINT ( 'NONE', #27 ) ;
#876 = DIRECTION ( 'NONE',  ( 0.000000000000000000, -1.000000000000000000, 0.000000000000000000 ) ) ;
#877 = CARTESIAN_POINT ( 'NONE',  ( -0.9500000000000010658, 0.000000000000000000, 1.745000000000000551 ) ) ;
#878 = ORIENTED_EDGE ( 'NONE', *, *, #358, .T. ) ;
#879 = VECTOR ( 'NONE', #778, 1000.000000000000000 ) ;
#880 = ADVANCED_FACE ( 'NONE', ( #447 ), #348, .F. ) ;
#881 = CARTESIAN_POINT ( 'NONE',  ( 1.500000000000000444, 0.000000000000000000, 0.6450000000000005729 ) ) ;
#882 = PLANE ( 'NONE',  #634 ) ;
#883 = EDGE_CURVE ( 'NONE', #859, #762, #702, .T. ) ;
#884 = PLANE ( 'NONE',  #857 ) ;
#885 = ORIENTED_EDGE ( 'NONE', *, *, #680, .T. ) ;
#886 = LINE ( 'NONE', #213, #304 ) ;
#887 = CARTESIAN_POINT ( 'NONE',  ( 1.069669914110086051, 0.7299999999999999822, 1.844669914110092179 ) ) ;
#888 = EDGE_CURVE ( 'NONE', #555, #500, #959, .T. ) ;
#889 = ORIENTED_EDGE ( 'NONE', *, *, #909, .T. ) ;
#890 = VECTOR ( 'NONE', #140, 1000.000000000000000 ) ;
#891 = FACE_OUTER_BOUND ( 'NONE', #576, .T. ) ;
#892 = PRESENTATION_STYLE_ASSIGNMENT (( #636 ) ) ;
#893 = ORIENTED_EDGE ( 'NONE', *, *, #524, .T. ) ;
#894 = AXIS2_PLACEMENT_3D ( 'NONE', #601, #870, #779 ) ;
#895 =( LENGTH_UNIT ( ) NAMED_UNIT ( * ) SI_UNIT ( .MILLI., .METRE. ) );
#896 = AXIS2_PLACEMENT_3D ( 'NONE', #346, #711, #950 ) ;
#897 = LINE ( 'NONE', #293, #633 ) ;
#898 = DIRECTION ( 'NONE',  ( 0.000000000000000000, 1.000000000000000000, 0.000000000000000000 ) ) ;
#899 = ORIENTED_EDGE ( 'NONE', *, *, #56, .T. ) ;
#900 = SURFACE_STYLE_USAGE ( .BOTH. , #996 ) ;
#901 = CARTESIAN_POINT ( 'NONE',  ( -0.9500000000000011768, 0.000000000000000000, 1.195000000000000062 ) ) ;
#902 = ORIENTED_EDGE ( 'NONE', *, *, #605, .F. ) ;
#903 = CIRCLE ( 'NONE', #1048, 0.1249999999999996808 ) ;
#904 = CARTESIAN_POINT ( 'NONE',  ( -1.500000000000001332, 0.000000000000000000, -0.6449999999999989075 ) ) ;
#905 = PRESENTATION_LAYER_ASSIGNMENT (  '', '', ( #768 ) ) ;
#906 = ORIENTED_EDGE ( 'NONE', *, *, #479, .T. ) ;
#907 = ORIENTED_EDGE ( 'NONE', *, *, #888, .T. ) ;
#908 = CARTESIAN_POINT ( 'NONE',  ( 1.500000000000000444, 0.000000000000000000, 0.6450000000000005729 ) ) ;
#909 = EDGE_CURVE ( 'NONE', #765, #223, #84, .T. ) ;
#910 = CYLINDRICAL_SURFACE ( 'NONE', #483, 0.1249999999999996808 ) ;
#911 =( GEOMETRIC_REPRESENTATION_CONTEXT ( 3 ) GLOBAL_UNCERTAINTY_ASSIGNED_CONTEXT ( ( #157 ) ) GLOBAL_UNIT_ASSIGNED_CONTEXT ( ( #651, #142, #455 ) ) REPRESENTATION_CONTEXT ( 'NONE', 'WORKASPACE' ) );
#912 = ORIENTED_EDGE ( 'NONE', *, *, #438, .F. ) ;
#913 = CARTESIAN_POINT ( 'NONE',  ( -0.9500000000000011768, -0.02000000000000000042, 1.195000000000000062 ) ) ;
#914 = ORIENTED_EDGE ( 'NONE', *, *, #909, .F. ) ;
#915 = DIRECTION ( 'NONE',  ( -1.000000000000000000, 0.000000000000000000, -1.577021341797098201E-15 ) ) ;
#916 = DIRECTION ( 'NONE',  ( -1.000000000000000000, 0.000000000000000000, 0.000000000000000000 ) ) ;
#917 = DIRECTION ( 'NONE',  ( 0.000000000000000000, 0.000000000000000000, 1.000000000000000000 ) ) ;
#918 = EDGE_LOOP ( 'NONE', ( #519, #949, #86, #409 ) ) ;
#919 = CARTESIAN_POINT ( 'NONE',  ( 0.9500000000000005107, -0.02000000000000000042, 1.195000000000000506 ) ) ;
#920 = EDGE_CURVE ( 'NONE', #623, #93, #197, .T. ) ;
#921 = UNCERTAINTY_MEASURE_WITH_UNIT (LENGTH_MEASURE( 1.000000000000000082E-05 ), #856, 'distance_accuracy_value', 'NONE');
#922 = EDGE_LOOP ( 'NONE', ( #460, #1065, #1061, #515 ) ) ;
#923 = FACE_OUTER_BOUND ( 'NONE', #1, .T. ) ;
#924 = MECHANICAL_DESIGN_GEOMETRIC_PRESENTATION_REPRESENTATION (  '', ( #144 ), #46 ) ;
#925 =( GEOMETRIC_REPRESENTATION_CONTEXT ( 3 ) GLOBAL_UNCERTAINTY_ASSIGNED_CONTEXT ( ( #921 ) ) GLOBAL_UNIT_ASSIGNED_CONTEXT ( ( #856, #793, #780 ) ) REPRESENTATION_CONTEXT ( 'NONE', 'WORKASPACE' ) );
#926 = VERTEX_POINT ( 'NONE', #699 ) ;
#927 = CARTESIAN_POINT ( 'NONE',  ( 1.069669914110086051, 0.7299999999999999822, 1.969669914110092179 ) ) ;
#928 = ADVANCED_FACE ( 'NONE', ( #953 ), #1028, .T. ) ;
#929 = ORIENTED_EDGE ( 'NONE', *, *, #438, .T. ) ;
#930 = CARTESIAN_POINT ( 'NONE',  ( 1.069669914110086051, 0.7299999999999999822, 1.969669914110092179 ) ) ;
#931 = PLANE ( 'NONE',  #520 ) ;
#932 = ORIENTED_EDGE ( 'NONE', *, *, #673, .F. ) ;
#933 = DIRECTION ( 'NONE',  ( 0.000000000000000000, 0.000000000000000000, 1.000000000000000000 ) ) ;
#934 = VECTOR ( 'NONE', #580, 1000.000000000000000 ) ;
#935 = ORIENTED_EDGE ( 'NONE', *, *, #330, .T. ) ;
#936 = DIRECTION ( 'NONE',  ( 0.000000000000000000, 1.000000000000000000, 0.000000000000000000 ) ) ;
#937 = ADVANCED_FACE ( 'NONE', ( #194 ), #207, .T. ) ;
#938 = CARTESIAN_POINT ( 'NONE',  ( 0.9500000000000003997, 0.000000000000000000, 1.745000000000000773 ) ) ;
#939 = MANIFOLD_SOLID_BREP ( 'Boss-Extrude3', #807 ) ;
#940 = FACE_OUTER_BOUND ( 'NONE', #961, .T. ) ;
#941 = PLANE ( 'NONE',  #1036 ) ;
#942 = VERTEX_POINT ( 'NONE', #947 ) ;
#943 = LINE ( 'NONE', #508, #370 ) ;
#944 = ORIENTED_EDGE ( 'NONE', *, *, #1068, .F. ) ;
#945 = DIRECTION ( 'NONE',  ( -0.000000000000000000, 1.000000000000000000, -0.000000000000000000 ) ) ;
#946 = LINE ( 'NONE', #1032, #321 ) ;
#947 = CARTESIAN_POINT ( 'NONE',  ( 1.599999999999999423, 0.000000000000000000, -2.499999999999999556 ) ) ;
#948 = DIRECTION ( 'NONE',  ( -3.942553354492742545E-16, -0.000000000000000000, -1.000000000000000000 ) ) ;
#949 = ORIENTED_EDGE ( 'NONE', *, *, #1058, .F. ) ;
#950 = DIRECTION ( 'NONE',  ( 0.000000000000000000, 0.000000000000000000, 1.000000000000000000 ) ) ;
#951 = ADVANCED_FACE ( 'NONE', ( #619 ), #518, .F. ) ;
#952 = DIRECTION ( 'NONE',  ( 0.000000000000000000, 0.000000000000000000, 1.000000000000000000 ) ) ;
#953 = FACE_OUTER_BOUND ( 'NONE', #262, .T. ) ;
#954 = VECTOR ( 'NONE', #517, 1000.000000000000000 ) ;
#955 = AXIS2_PLACEMENT_3D ( 'NONE', #1002, #1011, #159 ) ;
#956 = ORIENTED_EDGE ( 'NONE', *, *, #1003, .T. ) ;
#957 = CYLINDRICAL_SURFACE ( 'NONE', #392, 0.5750000000000001776 ) ;
#958 = FACE_OUTER_BOUND ( 'NONE', #422, .T. ) ;
#959 = LINE ( 'NONE', #41, #234 ) ;
#960 = EDGE_CURVE ( 'NONE', #875, #306, #201, .T. ) ;
#961 = EDGE_LOOP ( 'NONE', ( #252, #326, #333, #675 ) ) ;
#962 = CARTESIAN_POINT ( 'NONE',  ( 1.599999999999999423, 0.7500000000000000000, 2.500000000000000444 ) ) ;
#963 = ORIENTED_EDGE ( 'NONE', *, *, #588, .T. ) ;
#964 = DIRECTION ( 'NONE',  ( -1.000000000000000000, 0.000000000000000000, -0.000000000000000000 ) ) ;
#965 = VECTOR ( 'NONE', #525, 1000.000000000000000 ) ;
#966 = EDGE_CURVE ( 'NONE', #802, #567, #282, .T. ) ;
#967 = DIRECTION ( 'NONE',  ( -7.885106708985487062E-16, 0.000000000000000000, 1.000000000000000000 ) ) ;
#968 = EDGE_CURVE ( 'NONE', #1052, #7, #428, .T. ) ;
#969 = PRESENTATION_STYLE_ASSIGNMENT (( #627 ) ) ;
#970 = ORIENTED_EDGE ( 'NONE', *, *, #279, .T. ) ;
#971 = VECTOR ( 'NONE', #44, 1000.000000000000000 ) ;
#972 = DIRECTION ( 'NONE',  ( 0.000000000000000000, 0.000000000000000000, -1.000000000000000000 ) ) ;
#973 = CARTESIAN_POINT ( 'NONE',  ( 1.069669914110086051, 0.7500000000000000000, 2.094669914110091735 ) ) ;
#974 = FACE_OUTER_BOUND ( 'NONE', #740, .T. ) ;
#975 = ORIENTED_EDGE ( 'NONE', *, *, #434, .F. ) ;
#976 = EDGE_CURVE ( 'NONE', #404, #500, #354, .T. ) ;
#977 = SURFACE_SIDE_STYLE ('',( #467 ) ) ;
#978 = MECHANICAL_DESIGN_GEOMETRIC_PRESENTATION_REPRESENTATION (  '', ( #1035 ), #492 ) ;
#979 = EDGE_LOOP ( 'NONE', ( #975, #1054 ) ) ;
#980 = VECTOR ( 'NONE', #784, 1000.000000000000000 ) ;
#981 =( NAMED_UNIT ( * ) PLANE_ANGLE_UNIT ( ) SI_UNIT ( $, .RADIAN. ) );
#982 = CYLINDRICAL_SURFACE ( 'NONE', #844, 0.5500000000000003775 ) ;
#983 = DIRECTION ( 'NONE',  ( -7.885106708985485090E-16, 0.000000000000000000, 1.000000000000000000 ) ) ;
#984 = ADVANCED_FACE ( 'NONE', ( #1051 ), #547, .F. ) ;
#985 = EDGE_LOOP ( 'NONE', ( #893, #562, #906, #452 ) ) ;
#986 = VECTOR ( 'NONE', #998, 1000.000000000000000 ) ;
#987 = APPLICATION_CONTEXT ( 'automotive_design' ) ;
#988 = FACE_OUTER_BOUND ( 'NONE', #922, .T. ) ;
#989 = CIRCLE ( 'NONE', #656, 0.5500000000000002665 ) ;
#990 = EDGE_CURVE ( 'NONE', #722, #994, #558, .T. ) ;
#991 = EDGE_LOOP ( 'NONE', ( #420, #9, #572, #183 ) ) ;
#992 =( NAMED_UNIT ( * ) PLANE_ANGLE_UNIT ( ) SI_UNIT ( $, .RADIAN. ) );
#993 = CARTESIAN_POINT ( 'NONE',  ( -1.500000000000000888, -0.02000000000000000042, 0.6449999999999997957 ) ) ;
#994 = VERTEX_POINT ( 'NONE', #640 ) ;
#995 = ORIENTED_EDGE ( 'NONE', *, *, #883, .F. ) ;
#996 = SURFACE_SIDE_STYLE ('',( #4 ) ) ;
#997 = AXIS2_PLACEMENT_3D ( 'NONE', #92, #577, #1016 ) ;
#998 = DIRECTION ( 'NONE',  ( -3.942553354492742545E-16, -0.000000000000000000, 1.000000000000000000 ) ) ;
#999 = ORIENTED_EDGE ( 'NONE', *, *, #24, .T. ) ;
#1000 = CARTESIAN_POINT ( 'NONE',  ( 1.500000000000001776, 0.000000000000000000, -0.6449999999999980194 ) ) ;
#1001 = ORIENTED_EDGE ( 'NONE', *, *, #966, .T. ) ;
#1002 = CARTESIAN_POINT ( 'NONE',  ( 1.069669914110086051, 0.7500000000000000000, 1.969669914110092179 ) ) ;
#1003 = EDGE_CURVE ( 'NONE', #96, #942, #132, .T. ) ;
#1004 = VERTEX_POINT ( 'NONE', #463 ) ;
#1005 = LINE ( 'NONE', #242, #735 ) ;
#1006 = ORIENTED_EDGE ( 'NONE', *, *, #16, .F. ) ;
#1007 = DIRECTION ( 'NONE',  ( 0.000000000000000000, 0.000000000000000000, 1.000000000000000000 ) ) ;
#1008 = ORIENTED_EDGE ( 'NONE', *, *, #324, .T. ) ;
#1009 = FACE_OUTER_BOUND ( 'NONE', #150, .T. ) ;
#1010 = VERTEX_POINT ( 'NONE', #730 ) ;
#1011 = DIRECTION ( 'NONE',  ( 0.000000000000000000, 1.000000000000000000, 0.000000000000000000 ) ) ;
#1012 = PRODUCT_CONTEXT ( 'NONE', #987, 'mechanical' ) ;
#1013 = VECTOR ( 'NONE', #212, 1000.000000000000000 ) ;
#1014 = VECTOR ( 'NONE', #288, 1000.000000000000000 ) ;
#1015 = EDGE_LOOP ( 'NONE', ( #769, #932 ) ) ;
#1016 = DIRECTION ( 'NONE',  ( 0.000000000000000000, 0.000000000000000000, 1.000000000000000000 ) ) ;
#1017 = ORIENTED_EDGE ( 'NONE', *, *, #620, .F. ) ;
#1018 = DIRECTION ( 'NONE',  ( -0.000000000000000000, -1.000000000000000000, -0.000000000000000000 ) ) ;
#1019 = DIRECTION ( 'NONE',  ( -1.000000000000000000, -0.000000000000000000, -0.000000000000000000 ) ) ;
#1020 = CLOSED_SHELL ( 'NONE', ( #928, #364, #372, #984, #688, #385 ) ) ;
#1021 = DIRECTION ( 'NONE',  ( 0.000000000000000000, -0.000000000000000000, 1.000000000000000000 ) ) ;
#1022 = CARTESIAN_POINT ( 'NONE',  ( -1.500000000000001776, -0.02000000000000000042, -1.744999999999999218 ) ) ;
#1023 = AXIS2_PLACEMENT_3D ( 'NONE', #388, #497, #251 ) ;
#1024 = VERTEX_POINT ( 'NONE', #70 ) ;
#1025 = ORIENTED_EDGE ( 'NONE', *, *, #1003, .F. ) ;
#1026 = CARTESIAN_POINT ( 'NONE',  ( -1.500000000000000888, 0.000000000000000000, 1.745000000000000107 ) ) ;
#1027 = PLANE ( 'NONE',  #596 ) ;
#1028 = CYLINDRICAL_SURFACE ( 'NONE', #589, 0.5500000000000003775 ) ;
#1029 = CARTESIAN_POINT ( 'NONE',  ( -1.500000000000001776, 0.000000000000000000, -1.744999999999999218 ) ) ;
#1030 = ORIENTED_EDGE ( 'NONE', *, *, #607, .T. ) ;
#1031 = CARTESIAN_POINT ( 'NONE',  ( -0.9500000000000012879, -0.02000000000000000042, 1.745000000000000329 ) ) ;
#1032 = CARTESIAN_POINT ( 'NONE',  ( -1.500000000000001776, -0.02000000000000000042, -1.744999999999999218 ) ) ;
#1033 = DIRECTION ( 'NONE',  ( 1.000000000000000000, 0.000000000000000000, 0.000000000000000000 ) ) ;
#1034 = PRODUCT ( 'SiT1602BI-32-33E-33.333000', 'SiT1602BI-32-33E-33.333000', '', ( #1012 ) ) ;
#1035 = STYLED_ITEM ( 'NONE', ( #126 ), #559 ) ;
#1036 = AXIS2_PLACEMENT_3D ( 'NONE', #182, #314, #511 ) ;
#1037 = FACE_OUTER_BOUND ( 'NONE', #383, .T. ) ;
#1038 = DIRECTION ( 'NONE',  ( -1.000000000000000000, 0.000000000000000000, -1.577021341797098398E-15 ) ) ;
#1039 = SURFACE_STYLE_USAGE ( .BOTH. , #865 ) ;
#1040 = CIRCLE ( 'NONE', #90, 0.5500000000000003775 ) ;
#1041 = VERTEX_POINT ( 'NONE', #973 ) ;
#1042 = LINE ( 'NONE', #962, #710 ) ;
#1043 = DIRECTION ( 'NONE',  ( -1.000000000000000000, -0.000000000000000000, -3.942553354492746489E-16 ) ) ;
#1044 = FILL_AREA_STYLE_COLOUR ( '', #837 ) ;
#1045 = EDGE_CURVE ( 'NONE', #149, #852, #565, .T. ) ;
#1046 = DIRECTION ( 'NONE',  ( -0.000000000000000000, -1.000000000000000000, -0.000000000000000000 ) ) ;
#1047 = CARTESIAN_POINT ( 'NONE',  ( -1.600000000000000755, 0.7500000000000000000, 2.500000000000000444 ) ) ;
#1048 = AXIS2_PLACEMENT_3D ( 'NONE', #794, #290, #210 ) ;
#1049 = ORIENTED_EDGE ( 'NONE', *, *, #966, .F. ) ;
#1050 = DIRECTION ( 'NONE',  ( 0.000000000000000000, 0.000000000000000000, 1.000000000000000000 ) ) ;
#1051 = FACE_OUTER_BOUND ( 'NONE', #204, .T. ) ;
#1052 = VERTEX_POINT ( 'NONE', #377 ) ;
#1053 = SURFACE_SIDE_STYLE ('',( #545 ) ) ;
#1054 = ORIENTED_EDGE ( 'NONE', *, *, #324, .F. ) ;
#1055 = EDGE_CURVE ( 'NONE', #35, #236, #217, .T. ) ;
#1056 = DIRECTION ( 'NONE',  ( -1.971276677246373491E-15, 0.000000000000000000, 1.000000000000000000 ) ) ;
#1057 = DIRECTION ( 'NONE',  ( 0.000000000000000000, -0.000000000000000000, -1.000000000000000000 ) ) ;
#1058 = EDGE_CURVE ( 'NONE', #91, #926, #653, .T. ) ;
#1059 = DIRECTION ( 'NONE',  ( -0.000000000000000000, 1.000000000000000000, -0.000000000000000000 ) ) ;
#1060 = MECHANICAL_DESIGN_GEOMETRIC_PRESENTATION_REPRESENTATION (  '', ( #423 ), #532 ) ;
#1061 = ORIENTED_EDGE ( 'NONE', *, *, #104, .F. ) ;
#1062 = VECTOR ( 'NONE', #983, 1000.000000000000000 ) ;
#1063 = DIRECTION ( 'NONE',  ( 1.000000000000000000, -0.000000000000000000, 7.885106708985491006E-16 ) ) ;
#1064 = CARTESIAN_POINT ( 'NONE',  ( 1.500000000000002665, -0.02000000000000000042, -1.744999999999998330 ) ) ;
#1065 = ORIENTED_EDGE ( 'NONE', *, *, #303, .F. ) ;
#1066 = CARTESIAN_POINT ( 'NONE',  ( 0.9500000000000005107, 0.000000000000000000, 1.195000000000000506 ) ) ;
#1067 = SURFACE_STYLE_FILL_AREA ( #472 ) ;
#1068 = EDGE_CURVE ( 'NONE', #500, #1010, #542, .T. ) ;
#1069 = ORIENTED_EDGE ( 'NONE', *, *, #968, .T. ) ;
#1070 = CARTESIAN_POINT ( 'NONE',  ( -1.500000000000001332, -0.02000000000000000042, -0.6449999999999989075 ) ) ;
#1071 = CARTESIAN_POINT ( 'NONE',  ( 1.069669914110086051, 0.7299999999999999822, 1.969669914110092179 ) ) ;
#1072 =( NAMED_UNIT ( * ) PLANE_ANGLE_UNIT ( ) SI_UNIT ( $, .RADIAN. ) );
#1073 = EDGE_LOOP ( 'NONE', ( #914, #821, #286, #579 ) ) ;
#1074 = CARTESIAN_POINT ( 'NONE',  ( -0.9500000000000011768, 0.000000000000000000, -1.169999999999998597 ) ) ;
#1075 = ORIENTED_EDGE ( 'NONE', *, *, #503, .F. ) ;
#1076 = EDGE_CURVE ( 'NONE', #641, #149, #734, .T. ) ;
#1077 = AXIS2_PLACEMENT_3D ( 'NONE', #1022, #253, #402 ) ;
#1078 = DIRECTION ( 'NONE',  ( -7.885106708985491992E-16, 0.000000000000000000, 1.000000000000000000 ) ) ;
#1079 = EDGE_LOOP ( 'NONE', ( #171, #350, #14, #838 ) ) ;
#1080 = DIRECTION ( 'NONE',  ( 0.000000000000000000, 0.000000000000000000, 1.000000000000000000 ) ) ;
#1081 = UNCERTAINTY_MEASURE_WITH_UNIT (LENGTH_MEASURE( 1.000000000000000082E-05 ), #672, 'distance_accuracy_value', 'NONE');
#1082 = ORIENTED_EDGE ( 'NONE', *, *, #122, .F. ) ;
#1083 = ADVANCED_FACE ( 'NONE', ( #222 ), #450, .F. ) ;
#1084 = VECTOR ( 'NONE', #564, 1000.000000000000000 ) ;
#1085 = CARTESIAN_POINT ( 'NONE',  ( -1.500000000000001332, 0.000000000000000000, -0.6449999999999989075 ) ) ;
#1086 = AXIS2_PLACEMENT_3D ( 'NONE', #381, #133, #1057 ) ;
ENDSEC;
END-ISO-10303-21;
